<?xml version="1.0" encoding="utf-8" standalone="no"?>
<!DOCTYPE svg PUBLIC "-//W3C//DTD SVG 1.1//EN"
  "http://www.w3.org/Graphics/SVG/1.1/DTD/svg11.dtd">
<svg xmlns:xlink="http://www.w3.org/1999/xlink" width="591.403125pt" height="385.43625pt" viewBox="0 0 591.403125 385.43625" xmlns="http://www.w3.org/2000/svg" version="1.1">
 <metadata>
  <rdf:RDF xmlns:dc="http://purl.org/dc/elements/1.1/" xmlns:cc="http://creativecommons.org/ns#" xmlns:rdf="http://www.w3.org/1999/02/22-rdf-syntax-ns#">
   <cc:Work>
    <dc:type rdf:resource="http://purl.org/dc/dcmitype/StillImage"/>
    <dc:date>2025-02-13T22:24:30.554345</dc:date>
    <dc:format>image/svg+xml</dc:format>
    <dc:creator>
     <cc:Agent>
      <dc:title>Matplotlib v3.10.0, https://matplotlib.org/</dc:title>
     </cc:Agent>
    </dc:creator>
   </cc:Work>
  </rdf:RDF>
 </metadata>
 <defs>
  <style type="text/css">*{stroke-linejoin: round; stroke-linecap: butt}</style>
 </defs>
 <g id="figure_1">
  <g id="patch_1">
   <path d="M 0 385.43625 
L 591.403125 385.43625 
L 591.403125 0 
L 0 0 
z
" style="fill: #ffffff"/>
  </g>
  <g id="axes_1">
   <g id="patch_2">
    <path d="M 33.403125 355.08 
L 591.403125 355.08 
L 591.403125 22.44 
L 33.403125 22.44 
z
" style="fill: #ffffff"/>
   </g>
   <g id="matplotlib.axis_1">
    <g id="xtick_1">
     <g id="line2d_1">
      <path d="M 58.766761 355.08 
L 58.766761 22.44 
" clip-path="url(#p663570e028)" style="fill: none; stroke: #b0b0b0; stroke-width: 0.8; stroke-linecap: square"/>
     </g>
     <g id="line2d_2">
      <defs>
       <path id="mf784d506be" d="M 0 0 
L 0 3.5 
" style="stroke: #000000; stroke-width: 0.8"/>
      </defs>
      <g>
       <use xlink:href="#mf784d506be" x="58.766761" y="355.08" style="stroke: #000000; stroke-width: 0.8"/>
      </g>
     </g>
     <g id="text_1">
      <!-- −1.0 -->
      <g transform="translate(46.625355 369.678438) scale(0.1 -0.1)">
       <defs>
        <path id="DejaVuSans-2212" d="M 678 2272 
L 4684 2272 
L 4684 1741 
L 678 1741 
L 678 2272 
z
" transform="scale(0.015625)"/>
        <path id="DejaVuSans-31" d="M 794 531 
L 1825 531 
L 1825 4091 
L 703 3866 
L 703 4441 
L 1819 4666 
L 2450 4666 
L 2450 531 
L 3481 531 
L 3481 0 
L 794 0 
L 794 531 
z
" transform="scale(0.015625)"/>
        <path id="DejaVuSans-2e" d="M 684 794 
L 1344 794 
L 1344 0 
L 684 0 
L 684 794 
z
" transform="scale(0.015625)"/>
        <path id="DejaVuSans-30" d="M 2034 4250 
Q 1547 4250 1301 3770 
Q 1056 3291 1056 2328 
Q 1056 1369 1301 889 
Q 1547 409 2034 409 
Q 2525 409 2770 889 
Q 3016 1369 3016 2328 
Q 3016 3291 2770 3770 
Q 2525 4250 2034 4250 
z
M 2034 4750 
Q 2819 4750 3233 4129 
Q 3647 3509 3647 2328 
Q 3647 1150 3233 529 
Q 2819 -91 2034 -91 
Q 1250 -91 836 529 
Q 422 1150 422 2328 
Q 422 3509 836 4129 
Q 1250 4750 2034 4750 
z
" transform="scale(0.015625)"/>
       </defs>
       <use xlink:href="#DejaVuSans-2212"/>
       <use xlink:href="#DejaVuSans-31" transform="translate(83.789062 0)"/>
       <use xlink:href="#DejaVuSans-2e" transform="translate(147.412109 0)"/>
       <use xlink:href="#DejaVuSans-30" transform="translate(179.199219 0)"/>
      </g>
     </g>
    </g>
    <g id="xtick_2">
     <g id="line2d_3">
      <path d="M 179.545982 355.08 
L 179.545982 22.44 
" clip-path="url(#p663570e028)" style="fill: none; stroke: #b0b0b0; stroke-width: 0.8; stroke-linecap: square"/>
     </g>
     <g id="line2d_4">
      <g>
       <use xlink:href="#mf784d506be" x="179.545982" y="355.08" style="stroke: #000000; stroke-width: 0.8"/>
      </g>
     </g>
     <g id="text_2">
      <!-- −0.5 -->
      <g transform="translate(167.404576 369.678438) scale(0.1 -0.1)">
       <defs>
        <path id="DejaVuSans-35" d="M 691 4666 
L 3169 4666 
L 3169 4134 
L 1269 4134 
L 1269 2991 
Q 1406 3038 1543 3061 
Q 1681 3084 1819 3084 
Q 2600 3084 3056 2656 
Q 3513 2228 3513 1497 
Q 3513 744 3044 326 
Q 2575 -91 1722 -91 
Q 1428 -91 1123 -41 
Q 819 9 494 109 
L 494 744 
Q 775 591 1075 516 
Q 1375 441 1709 441 
Q 2250 441 2565 725 
Q 2881 1009 2881 1497 
Q 2881 1984 2565 2268 
Q 2250 2553 1709 2553 
Q 1456 2553 1204 2497 
Q 953 2441 691 2322 
L 691 4666 
z
" transform="scale(0.015625)"/>
       </defs>
       <use xlink:href="#DejaVuSans-2212"/>
       <use xlink:href="#DejaVuSans-30" transform="translate(83.789062 0)"/>
       <use xlink:href="#DejaVuSans-2e" transform="translate(147.412109 0)"/>
       <use xlink:href="#DejaVuSans-35" transform="translate(179.199219 0)"/>
      </g>
     </g>
    </g>
    <g id="xtick_3">
     <g id="line2d_5">
      <path d="M 300.325203 355.08 
L 300.325203 22.44 
" clip-path="url(#p663570e028)" style="fill: none; stroke: #b0b0b0; stroke-width: 0.8; stroke-linecap: square"/>
     </g>
     <g id="line2d_6">
      <g>
       <use xlink:href="#mf784d506be" x="300.325203" y="355.08" style="stroke: #000000; stroke-width: 0.8"/>
      </g>
     </g>
     <g id="text_3">
      <!-- 0.0 -->
      <g transform="translate(292.37364 369.678438) scale(0.1 -0.1)">
       <use xlink:href="#DejaVuSans-30"/>
       <use xlink:href="#DejaVuSans-2e" transform="translate(63.623047 0)"/>
       <use xlink:href="#DejaVuSans-30" transform="translate(95.410156 0)"/>
      </g>
     </g>
    </g>
    <g id="xtick_4">
     <g id="line2d_7">
      <path d="M 421.104424 355.08 
L 421.104424 22.44 
" clip-path="url(#p663570e028)" style="fill: none; stroke: #b0b0b0; stroke-width: 0.8; stroke-linecap: square"/>
     </g>
     <g id="line2d_8">
      <g>
       <use xlink:href="#mf784d506be" x="421.104424" y="355.08" style="stroke: #000000; stroke-width: 0.8"/>
      </g>
     </g>
     <g id="text_4">
      <!-- 0.5 -->
      <g transform="translate(413.152861 369.678438) scale(0.1 -0.1)">
       <use xlink:href="#DejaVuSans-30"/>
       <use xlink:href="#DejaVuSans-2e" transform="translate(63.623047 0)"/>
       <use xlink:href="#DejaVuSans-35" transform="translate(95.410156 0)"/>
      </g>
     </g>
    </g>
    <g id="xtick_5">
     <g id="line2d_9">
      <path d="M 541.883644 355.08 
L 541.883644 22.44 
" clip-path="url(#p663570e028)" style="fill: none; stroke: #b0b0b0; stroke-width: 0.8; stroke-linecap: square"/>
     </g>
     <g id="line2d_10">
      <g>
       <use xlink:href="#mf784d506be" x="541.883644" y="355.08" style="stroke: #000000; stroke-width: 0.8"/>
      </g>
     </g>
     <g id="text_5">
      <!-- 1.0 -->
      <g transform="translate(533.932082 369.678438) scale(0.1 -0.1)">
       <use xlink:href="#DejaVuSans-31"/>
       <use xlink:href="#DejaVuSans-2e" transform="translate(63.623047 0)"/>
       <use xlink:href="#DejaVuSans-30" transform="translate(95.410156 0)"/>
      </g>
     </g>
    </g>
    <g id="text_6">
     <!-- x -->
     <g transform="translate(309.44375 383.356563) scale(0.1 -0.1)">
      <defs>
       <path id="DejaVuSans-78" d="M 3513 3500 
L 2247 1797 
L 3578 0 
L 2900 0 
L 1881 1375 
L 863 0 
L 184 0 
L 1544 1831 
L 300 3500 
L 978 3500 
L 1906 2253 
L 2834 3500 
L 3513 3500 
z
" transform="scale(0.015625)"/>
      </defs>
      <use xlink:href="#DejaVuSans-78"/>
     </g>
    </g>
   </g>
   <g id="matplotlib.axis_2">
    <g id="ytick_1">
     <g id="line2d_11">
      <path d="M 33.403125 315.338356 
L 591.403125 315.338356 
" clip-path="url(#p663570e028)" style="fill: none; stroke: #b0b0b0; stroke-width: 0.8; stroke-linecap: square"/>
     </g>
     <g id="line2d_12">
      <defs>
       <path id="m6a81bb470d" d="M 0 0 
L -3.5 0 
" style="stroke: #000000; stroke-width: 0.8"/>
      </defs>
      <g>
       <use xlink:href="#m6a81bb470d" x="33.403125" y="315.338356" style="stroke: #000000; stroke-width: 0.8"/>
      </g>
     </g>
     <g id="text_7">
      <!-- 0 -->
      <g transform="translate(20.040625 319.137575) scale(0.1 -0.1)">
       <use xlink:href="#DejaVuSans-30"/>
      </g>
     </g>
    </g>
    <g id="ytick_2">
     <g id="line2d_13">
      <path d="M 33.403125 259.311417 
L 591.403125 259.311417 
" clip-path="url(#p663570e028)" style="fill: none; stroke: #b0b0b0; stroke-width: 0.8; stroke-linecap: square"/>
     </g>
     <g id="line2d_14">
      <g>
       <use xlink:href="#m6a81bb470d" x="33.403125" y="259.311417" style="stroke: #000000; stroke-width: 0.8"/>
      </g>
     </g>
     <g id="text_8">
      <!-- 2 -->
      <g transform="translate(20.040625 263.110636) scale(0.1 -0.1)">
       <defs>
        <path id="DejaVuSans-32" d="M 1228 531 
L 3431 531 
L 3431 0 
L 469 0 
L 469 531 
Q 828 903 1448 1529 
Q 2069 2156 2228 2338 
Q 2531 2678 2651 2914 
Q 2772 3150 2772 3378 
Q 2772 3750 2511 3984 
Q 2250 4219 1831 4219 
Q 1534 4219 1204 4116 
Q 875 4013 500 3803 
L 500 4441 
Q 881 4594 1212 4672 
Q 1544 4750 1819 4750 
Q 2544 4750 2975 4387 
Q 3406 4025 3406 3419 
Q 3406 3131 3298 2873 
Q 3191 2616 2906 2266 
Q 2828 2175 2409 1742 
Q 1991 1309 1228 531 
z
" transform="scale(0.015625)"/>
       </defs>
       <use xlink:href="#DejaVuSans-32"/>
      </g>
     </g>
    </g>
    <g id="ytick_3">
     <g id="line2d_15">
      <path d="M 33.403125 203.284478 
L 591.403125 203.284478 
" clip-path="url(#p663570e028)" style="fill: none; stroke: #b0b0b0; stroke-width: 0.8; stroke-linecap: square"/>
     </g>
     <g id="line2d_16">
      <g>
       <use xlink:href="#m6a81bb470d" x="33.403125" y="203.284478" style="stroke: #000000; stroke-width: 0.8"/>
      </g>
     </g>
     <g id="text_9">
      <!-- 4 -->
      <g transform="translate(20.040625 207.083697) scale(0.1 -0.1)">
       <defs>
        <path id="DejaVuSans-34" d="M 2419 4116 
L 825 1625 
L 2419 1625 
L 2419 4116 
z
M 2253 4666 
L 3047 4666 
L 3047 1625 
L 3713 1625 
L 3713 1100 
L 3047 1100 
L 3047 0 
L 2419 0 
L 2419 1100 
L 313 1100 
L 313 1709 
L 2253 4666 
z
" transform="scale(0.015625)"/>
       </defs>
       <use xlink:href="#DejaVuSans-34"/>
      </g>
     </g>
    </g>
    <g id="ytick_4">
     <g id="line2d_17">
      <path d="M 33.403125 147.257539 
L 591.403125 147.257539 
" clip-path="url(#p663570e028)" style="fill: none; stroke: #b0b0b0; stroke-width: 0.8; stroke-linecap: square"/>
     </g>
     <g id="line2d_18">
      <g>
       <use xlink:href="#m6a81bb470d" x="33.403125" y="147.257539" style="stroke: #000000; stroke-width: 0.8"/>
      </g>
     </g>
     <g id="text_10">
      <!-- 6 -->
      <g transform="translate(20.040625 151.056757) scale(0.1 -0.1)">
       <defs>
        <path id="DejaVuSans-36" d="M 2113 2584 
Q 1688 2584 1439 2293 
Q 1191 2003 1191 1497 
Q 1191 994 1439 701 
Q 1688 409 2113 409 
Q 2538 409 2786 701 
Q 3034 994 3034 1497 
Q 3034 2003 2786 2293 
Q 2538 2584 2113 2584 
z
M 3366 4563 
L 3366 3988 
Q 3128 4100 2886 4159 
Q 2644 4219 2406 4219 
Q 1781 4219 1451 3797 
Q 1122 3375 1075 2522 
Q 1259 2794 1537 2939 
Q 1816 3084 2150 3084 
Q 2853 3084 3261 2657 
Q 3669 2231 3669 1497 
Q 3669 778 3244 343 
Q 2819 -91 2113 -91 
Q 1303 -91 875 529 
Q 447 1150 447 2328 
Q 447 3434 972 4092 
Q 1497 4750 2381 4750 
Q 2619 4750 2861 4703 
Q 3103 4656 3366 4563 
z
" transform="scale(0.015625)"/>
       </defs>
       <use xlink:href="#DejaVuSans-36"/>
      </g>
     </g>
    </g>
    <g id="ytick_5">
     <g id="line2d_19">
      <path d="M 33.403125 91.230599 
L 591.403125 91.230599 
" clip-path="url(#p663570e028)" style="fill: none; stroke: #b0b0b0; stroke-width: 0.8; stroke-linecap: square"/>
     </g>
     <g id="line2d_20">
      <g>
       <use xlink:href="#m6a81bb470d" x="33.403125" y="91.230599" style="stroke: #000000; stroke-width: 0.8"/>
      </g>
     </g>
     <g id="text_11">
      <!-- 8 -->
      <g transform="translate(20.040625 95.029818) scale(0.1 -0.1)">
       <defs>
        <path id="DejaVuSans-38" d="M 2034 2216 
Q 1584 2216 1326 1975 
Q 1069 1734 1069 1313 
Q 1069 891 1326 650 
Q 1584 409 2034 409 
Q 2484 409 2743 651 
Q 3003 894 3003 1313 
Q 3003 1734 2745 1975 
Q 2488 2216 2034 2216 
z
M 1403 2484 
Q 997 2584 770 2862 
Q 544 3141 544 3541 
Q 544 4100 942 4425 
Q 1341 4750 2034 4750 
Q 2731 4750 3128 4425 
Q 3525 4100 3525 3541 
Q 3525 3141 3298 2862 
Q 3072 2584 2669 2484 
Q 3125 2378 3379 2068 
Q 3634 1759 3634 1313 
Q 3634 634 3220 271 
Q 2806 -91 2034 -91 
Q 1263 -91 848 271 
Q 434 634 434 1313 
Q 434 1759 690 2068 
Q 947 2378 1403 2484 
z
M 1172 3481 
Q 1172 3119 1398 2916 
Q 1625 2713 2034 2713 
Q 2441 2713 2670 2916 
Q 2900 3119 2900 3481 
Q 2900 3844 2670 4047 
Q 2441 4250 2034 4250 
Q 1625 4250 1398 4047 
Q 1172 3844 1172 3481 
z
" transform="scale(0.015625)"/>
       </defs>
       <use xlink:href="#DejaVuSans-38"/>
      </g>
     </g>
    </g>
    <g id="ytick_6">
     <g id="line2d_21">
      <path d="M 33.403125 35.20366 
L 591.403125 35.20366 
" clip-path="url(#p663570e028)" style="fill: none; stroke: #b0b0b0; stroke-width: 0.8; stroke-linecap: square"/>
     </g>
     <g id="line2d_22">
      <g>
       <use xlink:href="#m6a81bb470d" x="33.403125" y="35.20366" style="stroke: #000000; stroke-width: 0.8"/>
      </g>
     </g>
     <g id="text_12">
      <!-- 10 -->
      <g transform="translate(13.678125 39.002879) scale(0.1 -0.1)">
       <use xlink:href="#DejaVuSans-31"/>
       <use xlink:href="#DejaVuSans-30" transform="translate(63.623047 0)"/>
      </g>
     </g>
    </g>
    <g id="text_13">
     <!-- y -->
     <g transform="translate(7.598437 191.719375) rotate(-90) scale(0.1 -0.1)">
      <defs>
       <path id="DejaVuSans-79" d="M 2059 -325 
Q 1816 -950 1584 -1140 
Q 1353 -1331 966 -1331 
L 506 -1331 
L 506 -850 
L 844 -850 
Q 1081 -850 1212 -737 
Q 1344 -625 1503 -206 
L 1606 56 
L 191 3500 
L 800 3500 
L 1894 763 
L 2988 3500 
L 3597 3500 
L 2059 -325 
z
" transform="scale(0.015625)"/>
      </defs>
      <use xlink:href="#DejaVuSans-79"/>
     </g>
    </g>
   </g>
   <g id="line2d_23">
    <path d="M 58.766761 37.56 
L 65.537168 49.397297 
L 67.47157 53.414924 
L 69.405972 57.972844 
L 71.340374 63.153553 
L 73.274776 68.995602 
L 75.209178 75.491578 
L 77.62718 84.446669 
L 80.528783 96.149037 
L 89.717192 134.08579 
L 92.135195 142.609834 
L 94.069597 148.589752 
L 96.003999 153.723496 
L 97.4548 156.988271 
L 98.905602 159.74618 
L 100.356403 162.00853 
L 101.807204 163.800877 
L 103.258006 165.16223 
L 104.708807 166.143818 
L 106.159609 166.807468 
L 107.61041 167.223624 
L 109.544812 167.526897 
L 113.897216 168.095995 
L 115.348018 168.532253 
L 116.798819 169.210488 
L 118.249621 170.189294 
L 119.700422 171.516097 
L 121.151224 173.225643 
L 122.602025 175.338898 
L 124.052827 177.862393 
L 125.503628 180.78804 
L 127.43803 185.273737 
L 129.372432 190.342752 
L 131.790434 197.301837 
L 140.011643 221.770998 
L 141.946045 226.670176 
L 143.880446 230.910522 
L 145.331248 233.592555 
L 146.782049 235.812636 
L 148.232851 237.554394 
L 149.200052 238.448305 
L 150.167253 239.131548 
L 151.134454 239.610023 
L 152.101655 239.892392 
L 153.068856 239.98996 
L 154.036057 239.916509 
L 155.486858 239.521384 
L 156.93766 238.840713 
L 158.872061 237.612552 
L 165.158868 233.253663 
L 166.609669 232.633344 
L 168.060471 232.304049 
L 169.027672 232.272984 
L 169.994873 232.408096 
L 170.962074 232.719745 
L 171.929275 233.215604 
L 172.896475 233.900543 
L 174.347277 235.286067 
L 175.798078 237.095407 
L 177.24888 239.308696 
L 178.699681 241.892298 
L 180.634083 245.831464 
L 183.052086 251.348001 
L 190.306093 268.5188 
L 192.240495 272.378734 
L 193.691296 274.878683 
L 195.142098 276.983562 
L 196.592899 278.655669 
L 197.5601 279.517428 
L 198.527301 280.172099 
L 199.494502 280.618885 
L 200.461703 280.859879 
L 201.428904 280.90004 
L 202.396105 280.747121 
L 203.363306 280.411555 
L 204.814107 279.594765 
L 206.264909 278.450199 
L 208.199311 276.525329 
L 210.617313 273.723697 
L 214.486117 269.198444 
L 216.420519 267.315017 
L 217.87132 266.207823 
L 219.322122 265.428592 
L 220.289323 265.115402 
L 221.256524 264.980573 
L 222.223725 265.03256 
L 223.190926 265.277048 
L 224.158127 265.716872 
L 225.125328 266.351975 
L 226.576129 267.663554 
L 228.026931 269.385355 
L 229.477732 271.481871 
L 231.412134 274.775537 
L 233.830136 279.486925 
L 241.084144 294.222344 
L 243.018546 297.428475 
L 244.469347 299.439067 
L 245.920149 301.056915 
L 247.37095 302.245845 
L 248.338151 302.788441 
L 249.305352 303.126909 
L 250.272553 303.260967 
L 251.239754 303.193225 
L 252.206955 302.929147 
L 253.174156 302.476973 
L 254.624957 301.47056 
L 256.075759 300.113167 
L 257.52656 298.463029 
L 259.460962 295.925112 
L 266.231369 286.546792 
L 267.68217 284.956053 
L 269.132972 283.668782 
L 270.583773 282.738803 
L 271.550974 282.338602 
L 272.518175 282.125408 
L 273.485376 282.105739 
L 274.452577 282.283282 
L 275.419778 282.658844 
L 276.386979 283.230335 
L 277.35418 283.992803 
L 278.804981 285.476911 
L 280.255783 287.335387 
L 281.706584 289.518637 
L 283.640986 292.829323 
L 286.542589 298.30652 
L 290.411393 305.580008 
L 292.345795 308.783514 
L 293.796596 310.858097 
L 295.247398 312.585925 
L 296.698199 313.919838 
L 297.6654 314.572647 
L 298.632601 315.027852 
L 299.599802 315.281383 
L 300.567003 315.332048 
L 301.534204 315.181548 
L 302.501405 314.834456 
L 303.468606 314.298148 
L 304.919408 313.161648 
L 306.370209 311.667265 
L 307.82101 309.871031 
L 309.755412 307.121137 
L 317.49302 295.576992 
L 318.943822 293.94401 
L 320.394623 292.64383 
L 321.845424 291.724975 
L 322.812625 291.342612 
L 323.779826 291.153389 
L 324.747027 291.161859 
L 325.714228 291.3697 
L 326.681429 291.775695 
L 327.64863 292.375754 
L 329.099432 293.623846 
L 330.550233 295.257751 
L 332.001035 297.230234 
L 333.935437 300.284759 
L 336.837039 305.437597 
L 341.189444 313.206662 
L 343.123846 316.19428 
L 344.574647 318.100142 
L 346.025449 319.654814 
L 347.47625 320.812636 
L 348.443451 321.347238 
L 349.410652 321.684194 
L 350.377853 321.819973 
L 351.345054 321.753928 
L 352.312255 321.488306 
L 353.279456 321.028214 
L 354.246657 320.381546 
L 355.697458 319.085525 
L 357.14826 317.440186 
L 359.082662 314.803516 
L 361.500664 311.026422 
L 366.336669 303.243966 
L 368.271071 300.566079 
L 369.721872 298.879564 
L 371.172674 297.534387 
L 372.623475 296.57752 
L 373.590676 296.172852 
L 374.557877 295.963126 
L 375.525078 295.952336 
L 376.492279 296.141596 
L 377.45948 296.529124 
L 378.426681 297.110273 
L 379.877482 298.327997 
L 381.328284 299.927614 
L 382.779085 301.860349 
L 384.713487 304.851149 
L 387.61509 309.88096 
L 391.483894 316.619939 
L 393.418296 319.581452 
L 394.869097 321.48447 
L 396.319899 323.048326 
L 397.7707 324.22489 
L 398.737901 324.775953 
L 399.705102 325.131544 
L 400.672303 325.287247 
L 401.639504 325.24152 
L 402.606705 324.995715 
L 403.573906 324.554059 
L 404.541107 323.923595 
L 405.991909 322.645928 
L 407.44271 321.009579 
L 409.377112 318.366618 
L 411.795114 314.546882 
L 417.59832 305.095837 
L 419.532722 302.507775 
L 420.983524 300.922984 
L 422.434325 299.703579 
L 423.401526 299.114555 
L 424.368727 298.715566 
L 425.335928 298.512885 
L 426.303129 298.509948 
L 427.27033 298.70731 
L 428.237531 299.102629 
L 429.204732 299.690707 
L 430.655533 300.916049 
L 432.106335 302.518472 
L 433.557136 304.447697 
L 435.491538 307.421836 
L 438.393141 312.396766 
L 442.261945 319.002852 
L 444.196347 321.873898 
L 445.647148 323.700214 
L 447.09795 325.181191 
L 448.548751 326.270212 
L 449.515952 326.761149 
L 450.483153 327.055817 
L 451.450354 327.150347 
L 452.417555 327.04375 
L 453.384756 326.737932 
L 454.351957 326.237664 
L 455.319158 325.550515 
L 456.769959 324.192534 
L 458.220761 322.482899 
L 460.155163 319.755461 
L 462.573165 315.854749 
L 467.89277 307.046908 
L 469.827172 304.350646 
L 471.277974 302.67077 
L 472.728775 301.346769 
L 473.695976 300.683978 
L 474.663177 300.208939 
L 475.630378 299.928778 
L 476.597579 299.847809 
L 477.56478 299.967472 
L 478.531981 300.286313 
L 479.499182 300.800003 
L 480.466383 301.501403 
L 481.917185 302.883211 
L 483.367986 304.620731 
L 485.302388 307.39355 
L 487.72039 311.366921 
L 493.039996 320.404502 
L 494.974398 323.206793 
L 496.425199 324.972503 
L 497.876 326.386577 
L 499.326802 327.40394 
L 500.294003 327.845303 
L 501.261204 328.089577 
L 502.228405 328.133441 
L 503.195606 327.976464 
L 504.162807 327.621103 
L 505.130008 327.072673 
L 506.580809 325.906467 
L 508.031611 324.363092 
L 509.482412 322.493143 
L 511.416814 319.598856 
L 514.318417 314.746368 
L 518.187221 308.309459 
L 520.121623 305.525288 
L 521.572424 303.764819 
L 523.023226 302.350012 
L 524.474027 301.327191 
L 525.441228 300.880246 
L 526.408429 300.629336 
L 527.37563 300.578226 
L 528.342831 300.727797 
L 529.310032 301.076038 
L 530.277233 301.618072 
L 531.728034 302.776965 
L 533.178836 304.316947 
L 534.629637 306.188614 
L 536.564039 309.094852 
L 539.465642 313.989287 
L 541.883644 318.157282 
L 541.883644 318.157282 
" clip-path="url(#p663570e028)" style="fill: none; stroke: #0000ff; stroke-width: 1.5; stroke-linecap: square"/>
   </g>
   <g id="line2d_24">
    <path d="M 300.325203 315.338356 
L 324.481047 315.338356 
L 348.636891 309.408465 
L 372.792735 322.928529 
L 396.94858 303.334174 
L 421.104424 329.482333 
L 445.260268 297.913912 
L 469.416112 334.697883 
L 493.571956 293.733584 
L 517.7278 338.267604 
L 541.883644 291.201717 
L 566.039489 339.96 
" clip-path="url(#p663570e028)" style="fill: none; stroke: #ff0000; stroke-width: 1.5; stroke-linecap: square"/>
   </g>
   <g id="line2d_25">
    <path d="M 300.325203 315.338356 
L 324.481047 310.776901 
L 348.636891 320.861157 
L 372.792735 306.265663 
L 396.94858 325.703133 
L 421.104424 302.291856 
L 445.260268 329.576923 
L 469.416112 299.247684 
L 493.571956 332.232138 
L 517.7278 297.42041 
L 541.883644 333.491698 
L 566.039489 296.98208 
" clip-path="url(#p663570e028)" style="fill: none; stroke: #008000; stroke-width: 1.5; stroke-linecap: square"/>
   </g>
   <g id="patch_3">
    <path d="M 33.403125 355.08 
L 33.403125 22.44 
" style="fill: none; stroke: #000000; stroke-width: 0.8; stroke-linejoin: miter; stroke-linecap: square"/>
   </g>
   <g id="patch_4">
    <path d="M 591.403125 355.08 
L 591.403125 22.44 
" style="fill: none; stroke: #000000; stroke-width: 0.8; stroke-linejoin: miter; stroke-linecap: square"/>
   </g>
   <g id="patch_5">
    <path d="M 33.403125 355.08 
L 591.403125 355.08 
" style="fill: none; stroke: #000000; stroke-width: 0.8; stroke-linejoin: miter; stroke-linecap: square"/>
   </g>
   <g id="patch_6">
    <path d="M 33.403125 22.44 
L 591.403125 22.44 
" style="fill: none; stroke: #000000; stroke-width: 0.8; stroke-linejoin: miter; stroke-linecap: square"/>
   </g>
   <g id="text_14">
    <!-- EDO: $\dfrac{dI}{dt} = 15\cdot sen(30\cdot t) - 3\cdot I$	 PVI: I(0)=0 -->
    <g transform="translate(174.643125 14.64) scale(0.12 -0.12)">
     <defs>
      <path id="DejaVuSans-45" d="M 628 4666 
L 3578 4666 
L 3578 4134 
L 1259 4134 
L 1259 2753 
L 3481 2753 
L 3481 2222 
L 1259 2222 
L 1259 531 
L 3634 531 
L 3634 0 
L 628 0 
L 628 4666 
z
" transform="scale(0.015625)"/>
      <path id="DejaVuSans-44" d="M 1259 4147 
L 1259 519 
L 2022 519 
Q 2988 519 3436 956 
Q 3884 1394 3884 2338 
Q 3884 3275 3436 3711 
Q 2988 4147 2022 4147 
L 1259 4147 
z
M 628 4666 
L 1925 4666 
Q 3281 4666 3915 4102 
Q 4550 3538 4550 2338 
Q 4550 1131 3912 565 
Q 3275 0 1925 0 
L 628 0 
L 628 4666 
z
" transform="scale(0.015625)"/>
      <path id="DejaVuSans-4f" d="M 2522 4238 
Q 1834 4238 1429 3725 
Q 1025 3213 1025 2328 
Q 1025 1447 1429 934 
Q 1834 422 2522 422 
Q 3209 422 3611 934 
Q 4013 1447 4013 2328 
Q 4013 3213 3611 3725 
Q 3209 4238 2522 4238 
z
M 2522 4750 
Q 3503 4750 4090 4092 
Q 4678 3434 4678 2328 
Q 4678 1225 4090 567 
Q 3503 -91 2522 -91 
Q 1538 -91 948 565 
Q 359 1222 359 2328 
Q 359 3434 948 4092 
Q 1538 4750 2522 4750 
z
" transform="scale(0.015625)"/>
      <path id="DejaVuSans-3a" d="M 750 794 
L 1409 794 
L 1409 0 
L 750 0 
L 750 794 
z
M 750 3309 
L 1409 3309 
L 1409 2516 
L 750 2516 
L 750 3309 
z
" transform="scale(0.015625)"/>
      <path id="DejaVuSans-20" transform="scale(0.015625)"/>
      <path id="DejaVuSans-Oblique-64" d="M 2675 525 
Q 2444 222 2128 65 
Q 1813 -91 1428 -91 
Q 903 -91 598 267 
Q 294 625 294 1247 
Q 294 1766 478 2236 
Q 663 2706 1013 3078 
Q 1244 3325 1534 3454 
Q 1825 3584 2144 3584 
Q 2481 3584 2739 3421 
Q 2997 3259 3138 2956 
L 3513 4863 
L 4091 4863 
L 3144 0 
L 2566 0 
L 2675 525 
z
M 891 1350 
Q 891 897 1095 644 
Q 1300 391 1663 391 
Q 1931 391 2161 520 
Q 2391 650 2566 903 
Q 2750 1166 2856 1509 
Q 2963 1853 2963 2188 
Q 2963 2622 2758 2865 
Q 2553 3109 2194 3109 
Q 1922 3109 1687 2981 
Q 1453 2853 1288 2613 
Q 1106 2353 998 2009 
Q 891 1666 891 1350 
z
" transform="scale(0.015625)"/>
      <path id="DejaVuSans-Oblique-49" d="M 1081 4666 
L 1716 4666 
L 806 0 
L 172 0 
L 1081 4666 
z
" transform="scale(0.015625)"/>
      <path id="DejaVuSans-Oblique-74" d="M 2706 3500 
L 2619 3053 
L 1472 3053 
L 1100 1153 
Q 1081 1047 1072 975 
Q 1063 903 1063 863 
Q 1063 663 1183 572 
Q 1303 481 1569 481 
L 2150 481 
L 2053 0 
L 1503 0 
Q 991 0 739 200 
Q 488 400 488 806 
Q 488 878 497 964 
Q 506 1050 525 1153 
L 897 3053 
L 409 3053 
L 500 3500 
L 978 3500 
L 1172 4494 
L 1747 4494 
L 1556 3500 
L 2706 3500 
z
" transform="scale(0.015625)"/>
      <path id="DejaVuSans-3d" d="M 678 2906 
L 4684 2906 
L 4684 2381 
L 678 2381 
L 678 2906 
z
M 678 1631 
L 4684 1631 
L 4684 1100 
L 678 1100 
L 678 1631 
z
" transform="scale(0.015625)"/>
      <path id="DejaVuSans-22c5" d="M 684 2619 
L 1344 2619 
L 1344 1825 
L 684 1825 
L 684 2619 
z
" transform="scale(0.015625)"/>
      <path id="DejaVuSans-Oblique-73" d="M 3200 3397 
L 3091 2853 
Q 2863 2978 2609 3040 
Q 2356 3103 2088 3103 
Q 1634 3103 1373 2948 
Q 1113 2794 1113 2528 
Q 1113 2219 1719 2053 
Q 1766 2041 1788 2034 
L 1972 1978 
Q 2547 1819 2739 1644 
Q 2931 1469 2931 1166 
Q 2931 609 2489 259 
Q 2047 -91 1331 -91 
Q 1053 -91 747 -37 
Q 441 16 72 128 
L 184 722 
Q 500 559 806 475 
Q 1113 391 1394 391 
Q 1816 391 2080 572 
Q 2344 753 2344 1031 
Q 2344 1331 1650 1516 
L 1591 1531 
L 1394 1581 
Q 956 1697 753 1886 
Q 550 2075 550 2369 
Q 550 2928 970 3256 
Q 1391 3584 2113 3584 
Q 2397 3584 2667 3537 
Q 2938 3491 3200 3397 
z
" transform="scale(0.015625)"/>
      <path id="DejaVuSans-Oblique-65" d="M 3078 2063 
Q 3088 2113 3092 2166 
Q 3097 2219 3097 2272 
Q 3097 2653 2873 2875 
Q 2650 3097 2266 3097 
Q 1838 3097 1509 2826 
Q 1181 2556 1013 2059 
L 3078 2063 
z
M 3578 1613 
L 903 1613 
Q 884 1494 878 1425 
Q 872 1356 872 1306 
Q 872 872 1139 634 
Q 1406 397 1894 397 
Q 2269 397 2603 481 
Q 2938 566 3225 728 
L 3116 159 
Q 2806 34 2476 -28 
Q 2147 -91 1806 -91 
Q 1078 -91 686 257 
Q 294 606 294 1247 
Q 294 1794 489 2264 
Q 684 2734 1063 3103 
Q 1306 3334 1642 3459 
Q 1978 3584 2356 3584 
Q 2950 3584 3301 3228 
Q 3653 2872 3653 2272 
Q 3653 2128 3634 1964 
Q 3616 1800 3578 1613 
z
" transform="scale(0.015625)"/>
      <path id="DejaVuSans-Oblique-6e" d="M 3566 2113 
L 3156 0 
L 2578 0 
L 2988 2091 
Q 3016 2238 3031 2350 
Q 3047 2463 3047 2528 
Q 3047 2791 2881 2937 
Q 2716 3084 2419 3084 
Q 1956 3084 1622 2776 
Q 1288 2469 1184 1941 
L 800 0 
L 225 0 
L 903 3500 
L 1478 3500 
L 1363 2950 
Q 1603 3253 1940 3418 
Q 2278 3584 2650 3584 
Q 3113 3584 3367 3334 
Q 3622 3084 3622 2631 
Q 3622 2519 3608 2391 
Q 3594 2263 3566 2113 
z
" transform="scale(0.015625)"/>
      <path id="DejaVuSans-28" d="M 1984 4856 
Q 1566 4138 1362 3434 
Q 1159 2731 1159 2009 
Q 1159 1288 1364 580 
Q 1569 -128 1984 -844 
L 1484 -844 
Q 1016 -109 783 600 
Q 550 1309 550 2009 
Q 550 2706 781 3412 
Q 1013 4119 1484 4856 
L 1984 4856 
z
" transform="scale(0.015625)"/>
      <path id="DejaVuSans-33" d="M 2597 2516 
Q 3050 2419 3304 2112 
Q 3559 1806 3559 1356 
Q 3559 666 3084 287 
Q 2609 -91 1734 -91 
Q 1441 -91 1130 -33 
Q 819 25 488 141 
L 488 750 
Q 750 597 1062 519 
Q 1375 441 1716 441 
Q 2309 441 2620 675 
Q 2931 909 2931 1356 
Q 2931 1769 2642 2001 
Q 2353 2234 1838 2234 
L 1294 2234 
L 1294 2753 
L 1863 2753 
Q 2328 2753 2575 2939 
Q 2822 3125 2822 3475 
Q 2822 3834 2567 4026 
Q 2313 4219 1838 4219 
Q 1578 4219 1281 4162 
Q 984 4106 628 3988 
L 628 4550 
Q 988 4650 1302 4700 
Q 1616 4750 1894 4750 
Q 2613 4750 3031 4423 
Q 3450 4097 3450 3541 
Q 3450 3153 3228 2886 
Q 3006 2619 2597 2516 
z
" transform="scale(0.015625)"/>
      <path id="DejaVuSans-29" d="M 513 4856 
L 1013 4856 
Q 1481 4119 1714 3412 
Q 1947 2706 1947 2009 
Q 1947 1309 1714 600 
Q 1481 -109 1013 -844 
L 513 -844 
Q 928 -128 1133 580 
Q 1338 1288 1338 2009 
Q 1338 2731 1133 3434 
Q 928 4138 513 4856 
z
" transform="scale(0.015625)"/>
      <path id="DejaVuSans-50" d="M 1259 4147 
L 1259 2394 
L 2053 2394 
Q 2494 2394 2734 2622 
Q 2975 2850 2975 3272 
Q 2975 3691 2734 3919 
Q 2494 4147 2053 4147 
L 1259 4147 
z
M 628 4666 
L 2053 4666 
Q 2838 4666 3239 4311 
Q 3641 3956 3641 3272 
Q 3641 2581 3239 2228 
Q 2838 1875 2053 1875 
L 1259 1875 
L 1259 0 
L 628 0 
L 628 4666 
z
" transform="scale(0.015625)"/>
      <path id="DejaVuSans-56" d="M 1831 0 
L 50 4666 
L 709 4666 
L 2188 738 
L 3669 4666 
L 4325 4666 
L 2547 0 
L 1831 0 
z
" transform="scale(0.015625)"/>
      <path id="DejaVuSans-49" d="M 628 4666 
L 1259 4666 
L 1259 0 
L 628 0 
L 628 4666 
z
" transform="scale(0.015625)"/>
     </defs>
     <use xlink:href="#DejaVuSans-45" transform="translate(0 0.796875)"/>
     <use xlink:href="#DejaVuSans-44" transform="translate(63.183594 0.796875)"/>
     <use xlink:href="#DejaVuSans-4f" transform="translate(140.185547 0.796875)"/>
     <use xlink:href="#DejaVuSans-3a" transform="translate(218.896484 0.796875)"/>
     <use xlink:href="#DejaVuSans-20" transform="translate(252.587891 0.796875)"/>
     <use xlink:href="#DejaVuSans-Oblique-64" transform="translate(289.375 46.015625)"/>
     <use xlink:href="#DejaVuSans-Oblique-49" transform="translate(352.851562 46.015625)"/>
     <use xlink:href="#DejaVuSans-Oblique-64" transform="translate(284.375 -62.640625)"/>
     <use xlink:href="#DejaVuSans-Oblique-74" transform="translate(347.851562 -62.640625)"/>
     <use xlink:href="#DejaVuSans-3d" transform="translate(419.042969 0.796875)"/>
     <use xlink:href="#DejaVuSans-31" transform="translate(522.314453 0.796875)"/>
     <use xlink:href="#DejaVuSans-35" transform="translate(585.9375 0.796875)"/>
     <use xlink:href="#DejaVuSans-22c5" transform="translate(669.042969 0.796875)"/>
     <use xlink:href="#DejaVuSans-Oblique-73" transform="translate(720.3125 0.796875)"/>
     <use xlink:href="#DejaVuSans-Oblique-65" transform="translate(772.412109 0.796875)"/>
     <use xlink:href="#DejaVuSans-Oblique-6e" transform="translate(833.935547 0.796875)"/>
     <use xlink:href="#DejaVuSans-28" transform="translate(897.314453 0.796875)"/>
     <use xlink:href="#DejaVuSans-33" transform="translate(936.328125 0.796875)"/>
     <use xlink:href="#DejaVuSans-30" transform="translate(999.951172 0.796875)"/>
     <use xlink:href="#DejaVuSans-22c5" transform="translate(1083.056641 0.796875)"/>
     <use xlink:href="#DejaVuSans-Oblique-74" transform="translate(1134.326172 0.796875)"/>
     <use xlink:href="#DejaVuSans-29" transform="translate(1173.535156 0.796875)"/>
     <use xlink:href="#DejaVuSans-2212" transform="translate(1232.03125 0.796875)"/>
     <use xlink:href="#DejaVuSans-33" transform="translate(1335.302734 0.796875)"/>
     <use xlink:href="#DejaVuSans-22c5" transform="translate(1418.408203 0.796875)"/>
     <use xlink:href="#DejaVuSans-Oblique-49" transform="translate(1469.677734 0.796875)"/>
     <use xlink:href="#DejaVuSans-20" transform="translate(1499.169922 0.796875)"/>
     <use xlink:href="#DejaVuSans-20" transform="translate(1530.957031 0.796875)"/>
     <use xlink:href="#DejaVuSans-20" transform="translate(1562.744141 0.796875)"/>
     <use xlink:href="#DejaVuSans-20" transform="translate(1594.53125 0.796875)"/>
     <use xlink:href="#DejaVuSans-20" transform="translate(1626.318359 0.796875)"/>
     <use xlink:href="#DejaVuSans-20" transform="translate(1658.105469 0.796875)"/>
     <use xlink:href="#DejaVuSans-20" transform="translate(1689.892578 0.796875)"/>
     <use xlink:href="#DejaVuSans-20" transform="translate(1721.679688 0.796875)"/>
     <use xlink:href="#DejaVuSans-50" transform="translate(1753.466797 0.796875)"/>
     <use xlink:href="#DejaVuSans-56" transform="translate(1813.769531 0.796875)"/>
     <use xlink:href="#DejaVuSans-49" transform="translate(1882.177734 0.796875)"/>
     <use xlink:href="#DejaVuSans-3a" transform="translate(1911.669922 0.796875)"/>
     <use xlink:href="#DejaVuSans-20" transform="translate(1945.361328 0.796875)"/>
     <use xlink:href="#DejaVuSans-49" transform="translate(1977.148438 0.796875)"/>
     <use xlink:href="#DejaVuSans-28" transform="translate(2006.640625 0.796875)"/>
     <use xlink:href="#DejaVuSans-30" transform="translate(2045.654297 0.796875)"/>
     <use xlink:href="#DejaVuSans-29" transform="translate(2109.277344 0.796875)"/>
     <use xlink:href="#DejaVuSans-3d" transform="translate(2148.291016 0.796875)"/>
     <use xlink:href="#DejaVuSans-30" transform="translate(2232.080078 0.796875)"/>
     <path d="M 284.375 19.59375 
L 284.375 25.84375 
L 387.060547 25.84375 
L 387.060547 19.59375 
L 284.375 19.59375 
z
"/>
    </g>
   </g>
   <g id="legend_1">
    <g id="patch_7">
     <path d="M 466.709375 75.522812 
L 584.403125 75.522812 
Q 586.403125 75.522812 586.403125 73.522812 
L 586.403125 29.44 
Q 586.403125 27.44 584.403125 27.44 
L 466.709375 27.44 
Q 464.709375 27.44 464.709375 29.44 
L 464.709375 73.522812 
Q 464.709375 75.522812 466.709375 75.522812 
z
" style="fill: #ffffff; opacity: 0.8; stroke: #cccccc; stroke-linejoin: miter"/>
    </g>
    <g id="line2d_26">
     <path d="M 468.709375 35.786875 
L 478.709375 35.786875 
L 488.709375 35.786875 
" style="fill: none; stroke: #0000ff; stroke-width: 1.5; stroke-linecap: square"/>
    </g>
    <g id="text_15">
     <!-- Solução Analítica -->
     <g transform="translate(496.709375 39.286875) scale(0.1 -0.1)">
      <defs>
       <path id="DejaVuSans-53" d="M 3425 4513 
L 3425 3897 
Q 3066 4069 2747 4153 
Q 2428 4238 2131 4238 
Q 1616 4238 1336 4038 
Q 1056 3838 1056 3469 
Q 1056 3159 1242 3001 
Q 1428 2844 1947 2747 
L 2328 2669 
Q 3034 2534 3370 2195 
Q 3706 1856 3706 1288 
Q 3706 609 3251 259 
Q 2797 -91 1919 -91 
Q 1588 -91 1214 -16 
Q 841 59 441 206 
L 441 856 
Q 825 641 1194 531 
Q 1563 422 1919 422 
Q 2459 422 2753 634 
Q 3047 847 3047 1241 
Q 3047 1584 2836 1778 
Q 2625 1972 2144 2069 
L 1759 2144 
Q 1053 2284 737 2584 
Q 422 2884 422 3419 
Q 422 4038 858 4394 
Q 1294 4750 2059 4750 
Q 2388 4750 2728 4690 
Q 3069 4631 3425 4513 
z
" transform="scale(0.015625)"/>
       <path id="DejaVuSans-6f" d="M 1959 3097 
Q 1497 3097 1228 2736 
Q 959 2375 959 1747 
Q 959 1119 1226 758 
Q 1494 397 1959 397 
Q 2419 397 2687 759 
Q 2956 1122 2956 1747 
Q 2956 2369 2687 2733 
Q 2419 3097 1959 3097 
z
M 1959 3584 
Q 2709 3584 3137 3096 
Q 3566 2609 3566 1747 
Q 3566 888 3137 398 
Q 2709 -91 1959 -91 
Q 1206 -91 779 398 
Q 353 888 353 1747 
Q 353 2609 779 3096 
Q 1206 3584 1959 3584 
z
" transform="scale(0.015625)"/>
       <path id="DejaVuSans-6c" d="M 603 4863 
L 1178 4863 
L 1178 0 
L 603 0 
L 603 4863 
z
" transform="scale(0.015625)"/>
       <path id="DejaVuSans-75" d="M 544 1381 
L 544 3500 
L 1119 3500 
L 1119 1403 
Q 1119 906 1312 657 
Q 1506 409 1894 409 
Q 2359 409 2629 706 
Q 2900 1003 2900 1516 
L 2900 3500 
L 3475 3500 
L 3475 0 
L 2900 0 
L 2900 538 
Q 2691 219 2414 64 
Q 2138 -91 1772 -91 
Q 1169 -91 856 284 
Q 544 659 544 1381 
z
M 1991 3584 
L 1991 3584 
z
" transform="scale(0.015625)"/>
       <path id="DejaVuSans-e7" d="M 3122 3366 
L 3122 2828 
Q 2878 2963 2633 3030 
Q 2388 3097 2138 3097 
Q 1578 3097 1268 2742 
Q 959 2388 959 1747 
Q 959 1106 1268 751 
Q 1578 397 2138 397 
Q 2388 397 2633 464 
Q 2878 531 3122 666 
L 3122 134 
Q 2881 22 2623 -34 
Q 2366 -91 2075 -91 
Q 1284 -91 818 406 
Q 353 903 353 1747 
Q 353 2603 823 3093 
Q 1294 3584 2113 3584 
Q 2378 3584 2631 3529 
Q 2884 3475 3122 3366 
z
M 2311 0 
Q 2482 -194 2566 -358 
Q 2651 -522 2651 -672 
Q 2651 -950 2463 -1092 
Q 2276 -1234 1907 -1234 
Q 1764 -1234 1628 -1215 
Q 1492 -1197 1357 -1159 
L 1357 -750 
Q 1464 -803 1579 -826 
Q 1695 -850 1842 -850 
Q 2026 -850 2120 -775 
Q 2214 -700 2214 -556 
Q 2214 -463 2146 -327 
Q 2079 -191 1939 0 
L 2311 0 
z
" transform="scale(0.015625)"/>
       <path id="DejaVuSans-e3" d="M 2194 1759 
Q 1497 1759 1228 1600 
Q 959 1441 959 1056 
Q 959 750 1161 570 
Q 1363 391 1709 391 
Q 2188 391 2477 730 
Q 2766 1069 2766 1631 
L 2766 1759 
L 2194 1759 
z
M 3341 1997 
L 3341 0 
L 2766 0 
L 2766 531 
Q 2569 213 2275 61 
Q 1981 -91 1556 -91 
Q 1019 -91 701 211 
Q 384 513 384 1019 
Q 384 1609 779 1909 
Q 1175 2209 1959 2209 
L 2766 2209 
L 2766 2266 
Q 2766 2663 2505 2880 
Q 2244 3097 1772 3097 
Q 1472 3097 1187 3025 
Q 903 2953 641 2809 
L 641 3341 
Q 956 3463 1253 3523 
Q 1550 3584 1831 3584 
Q 2591 3584 2966 3190 
Q 3341 2797 3341 1997 
z
M 1844 4281 
L 1665 4453 
Q 1597 4516 1545 4545 
Q 1494 4575 1453 4575 
Q 1334 4575 1278 4461 
Q 1222 4347 1215 4091 
L 825 4091 
Q 831 4513 990 4742 
Q 1150 4972 1434 4972 
Q 1553 4972 1653 4928 
Q 1753 4884 1869 4781 
L 2047 4609 
Q 2115 4547 2167 4517 
Q 2219 4488 2259 4488 
Q 2378 4488 2434 4602 
Q 2490 4716 2497 4972 
L 2887 4972 
Q 2881 4550 2721 4320 
Q 2562 4091 2278 4091 
Q 2159 4091 2059 4134 
Q 1959 4178 1844 4281 
z
" transform="scale(0.015625)"/>
       <path id="DejaVuSans-41" d="M 2188 4044 
L 1331 1722 
L 3047 1722 
L 2188 4044 
z
M 1831 4666 
L 2547 4666 
L 4325 0 
L 3669 0 
L 3244 1197 
L 1141 1197 
L 716 0 
L 50 0 
L 1831 4666 
z
" transform="scale(0.015625)"/>
       <path id="DejaVuSans-6e" d="M 3513 2113 
L 3513 0 
L 2938 0 
L 2938 2094 
Q 2938 2591 2744 2837 
Q 2550 3084 2163 3084 
Q 1697 3084 1428 2787 
Q 1159 2491 1159 1978 
L 1159 0 
L 581 0 
L 581 3500 
L 1159 3500 
L 1159 2956 
Q 1366 3272 1645 3428 
Q 1925 3584 2291 3584 
Q 2894 3584 3203 3211 
Q 3513 2838 3513 2113 
z
" transform="scale(0.015625)"/>
       <path id="DejaVuSans-61" d="M 2194 1759 
Q 1497 1759 1228 1600 
Q 959 1441 959 1056 
Q 959 750 1161 570 
Q 1363 391 1709 391 
Q 2188 391 2477 730 
Q 2766 1069 2766 1631 
L 2766 1759 
L 2194 1759 
z
M 3341 1997 
L 3341 0 
L 2766 0 
L 2766 531 
Q 2569 213 2275 61 
Q 1981 -91 1556 -91 
Q 1019 -91 701 211 
Q 384 513 384 1019 
Q 384 1609 779 1909 
Q 1175 2209 1959 2209 
L 2766 2209 
L 2766 2266 
Q 2766 2663 2505 2880 
Q 2244 3097 1772 3097 
Q 1472 3097 1187 3025 
Q 903 2953 641 2809 
L 641 3341 
Q 956 3463 1253 3523 
Q 1550 3584 1831 3584 
Q 2591 3584 2966 3190 
Q 3341 2797 3341 1997 
z
" transform="scale(0.015625)"/>
       <path id="DejaVuSans-ed" d="M 1322 5119 
L 1944 5119 
L 926 3944 
L 447 3944 
L 1322 5119 
z
M 603 3500 
L 1178 3500 
L 1178 0 
L 603 0 
L 603 3500 
z
M 891 3584 
L 891 3584 
z
" transform="scale(0.015625)"/>
       <path id="DejaVuSans-74" d="M 1172 4494 
L 1172 3500 
L 2356 3500 
L 2356 3053 
L 1172 3053 
L 1172 1153 
Q 1172 725 1289 603 
Q 1406 481 1766 481 
L 2356 481 
L 2356 0 
L 1766 0 
Q 1100 0 847 248 
Q 594 497 594 1153 
L 594 3053 
L 172 3053 
L 172 3500 
L 594 3500 
L 594 4494 
L 1172 4494 
z
" transform="scale(0.015625)"/>
       <path id="DejaVuSans-69" d="M 603 3500 
L 1178 3500 
L 1178 0 
L 603 0 
L 603 3500 
z
M 603 4863 
L 1178 4863 
L 1178 4134 
L 603 4134 
L 603 4863 
z
" transform="scale(0.015625)"/>
       <path id="DejaVuSans-63" d="M 3122 3366 
L 3122 2828 
Q 2878 2963 2633 3030 
Q 2388 3097 2138 3097 
Q 1578 3097 1268 2742 
Q 959 2388 959 1747 
Q 959 1106 1268 751 
Q 1578 397 2138 397 
Q 2388 397 2633 464 
Q 2878 531 3122 666 
L 3122 134 
Q 2881 22 2623 -34 
Q 2366 -91 2075 -91 
Q 1284 -91 818 406 
Q 353 903 353 1747 
Q 353 2603 823 3093 
Q 1294 3584 2113 3584 
Q 2378 3584 2631 3529 
Q 2884 3475 3122 3366 
z
" transform="scale(0.015625)"/>
      </defs>
      <use xlink:href="#DejaVuSans-53"/>
      <use xlink:href="#DejaVuSans-6f" transform="translate(63.476562 0)"/>
      <use xlink:href="#DejaVuSans-6c" transform="translate(124.658203 0)"/>
      <use xlink:href="#DejaVuSans-75" transform="translate(152.441406 0)"/>
      <use xlink:href="#DejaVuSans-e7" transform="translate(215.820312 0)"/>
      <use xlink:href="#DejaVuSans-e3" transform="translate(270.800781 0)"/>
      <use xlink:href="#DejaVuSans-6f" transform="translate(332.080078 0)"/>
      <use xlink:href="#DejaVuSans-20" transform="translate(393.261719 0)"/>
      <use xlink:href="#DejaVuSans-41" transform="translate(425.048828 0)"/>
      <use xlink:href="#DejaVuSans-6e" transform="translate(493.457031 0)"/>
      <use xlink:href="#DejaVuSans-61" transform="translate(556.835938 0)"/>
      <use xlink:href="#DejaVuSans-6c" transform="translate(618.115234 0)"/>
      <use xlink:href="#DejaVuSans-ed" transform="translate(645.898438 0)"/>
      <use xlink:href="#DejaVuSans-74" transform="translate(673.681641 0)"/>
      <use xlink:href="#DejaVuSans-69" transform="translate(712.890625 0)"/>
      <use xlink:href="#DejaVuSans-63" transform="translate(740.673828 0)"/>
      <use xlink:href="#DejaVuSans-61" transform="translate(795.654297 0)"/>
     </g>
    </g>
    <g id="line2d_27">
     <path d="M 468.709375 50.865 
L 478.709375 50.865 
L 488.709375 50.865 
" style="fill: none; stroke: #ff0000; stroke-width: 1.5; stroke-linecap: square"/>
    </g>
    <g id="text_16">
     <!-- Euler Explícito -->
     <g transform="translate(496.709375 54.365) scale(0.1 -0.1)">
      <defs>
       <path id="DejaVuSans-65" d="M 3597 1894 
L 3597 1613 
L 953 1613 
Q 991 1019 1311 708 
Q 1631 397 2203 397 
Q 2534 397 2845 478 
Q 3156 559 3463 722 
L 3463 178 
Q 3153 47 2828 -22 
Q 2503 -91 2169 -91 
Q 1331 -91 842 396 
Q 353 884 353 1716 
Q 353 2575 817 3079 
Q 1281 3584 2069 3584 
Q 2775 3584 3186 3129 
Q 3597 2675 3597 1894 
z
M 3022 2063 
Q 3016 2534 2758 2815 
Q 2500 3097 2075 3097 
Q 1594 3097 1305 2825 
Q 1016 2553 972 2059 
L 3022 2063 
z
" transform="scale(0.015625)"/>
       <path id="DejaVuSans-72" d="M 2631 2963 
Q 2534 3019 2420 3045 
Q 2306 3072 2169 3072 
Q 1681 3072 1420 2755 
Q 1159 2438 1159 1844 
L 1159 0 
L 581 0 
L 581 3500 
L 1159 3500 
L 1159 2956 
Q 1341 3275 1631 3429 
Q 1922 3584 2338 3584 
Q 2397 3584 2469 3576 
Q 2541 3569 2628 3553 
L 2631 2963 
z
" transform="scale(0.015625)"/>
       <path id="DejaVuSans-70" d="M 1159 525 
L 1159 -1331 
L 581 -1331 
L 581 3500 
L 1159 3500 
L 1159 2969 
Q 1341 3281 1617 3432 
Q 1894 3584 2278 3584 
Q 2916 3584 3314 3078 
Q 3713 2572 3713 1747 
Q 3713 922 3314 415 
Q 2916 -91 2278 -91 
Q 1894 -91 1617 61 
Q 1341 213 1159 525 
z
M 3116 1747 
Q 3116 2381 2855 2742 
Q 2594 3103 2138 3103 
Q 1681 3103 1420 2742 
Q 1159 2381 1159 1747 
Q 1159 1113 1420 752 
Q 1681 391 2138 391 
Q 2594 391 2855 752 
Q 3116 1113 3116 1747 
z
" transform="scale(0.015625)"/>
      </defs>
      <use xlink:href="#DejaVuSans-45"/>
      <use xlink:href="#DejaVuSans-75" transform="translate(63.183594 0)"/>
      <use xlink:href="#DejaVuSans-6c" transform="translate(126.5625 0)"/>
      <use xlink:href="#DejaVuSans-65" transform="translate(154.345703 0)"/>
      <use xlink:href="#DejaVuSans-72" transform="translate(215.869141 0)"/>
      <use xlink:href="#DejaVuSans-20" transform="translate(256.982422 0)"/>
      <use xlink:href="#DejaVuSans-45" transform="translate(288.769531 0)"/>
      <use xlink:href="#DejaVuSans-78" transform="translate(351.953125 0)"/>
      <use xlink:href="#DejaVuSans-70" transform="translate(411.132812 0)"/>
      <use xlink:href="#DejaVuSans-6c" transform="translate(474.609375 0)"/>
      <use xlink:href="#DejaVuSans-ed" transform="translate(502.392578 0)"/>
      <use xlink:href="#DejaVuSans-63" transform="translate(530.175781 0)"/>
      <use xlink:href="#DejaVuSans-69" transform="translate(585.15625 0)"/>
      <use xlink:href="#DejaVuSans-74" transform="translate(612.939453 0)"/>
      <use xlink:href="#DejaVuSans-6f" transform="translate(652.148438 0)"/>
     </g>
    </g>
    <g id="line2d_28">
     <path d="M 468.709375 65.943125 
L 478.709375 65.943125 
L 488.709375 65.943125 
" style="fill: none; stroke: #008000; stroke-width: 1.5; stroke-linecap: square"/>
    </g>
    <g id="text_17">
     <!-- Euler Implícito -->
     <g transform="translate(496.709375 69.443125) scale(0.1 -0.1)">
      <defs>
       <path id="DejaVuSans-6d" d="M 3328 2828 
Q 3544 3216 3844 3400 
Q 4144 3584 4550 3584 
Q 5097 3584 5394 3201 
Q 5691 2819 5691 2113 
L 5691 0 
L 5113 0 
L 5113 2094 
Q 5113 2597 4934 2840 
Q 4756 3084 4391 3084 
Q 3944 3084 3684 2787 
Q 3425 2491 3425 1978 
L 3425 0 
L 2847 0 
L 2847 2094 
Q 2847 2600 2669 2842 
Q 2491 3084 2119 3084 
Q 1678 3084 1418 2786 
Q 1159 2488 1159 1978 
L 1159 0 
L 581 0 
L 581 3500 
L 1159 3500 
L 1159 2956 
Q 1356 3278 1631 3431 
Q 1906 3584 2284 3584 
Q 2666 3584 2933 3390 
Q 3200 3197 3328 2828 
z
" transform="scale(0.015625)"/>
      </defs>
      <use xlink:href="#DejaVuSans-45"/>
      <use xlink:href="#DejaVuSans-75" transform="translate(63.183594 0)"/>
      <use xlink:href="#DejaVuSans-6c" transform="translate(126.5625 0)"/>
      <use xlink:href="#DejaVuSans-65" transform="translate(154.345703 0)"/>
      <use xlink:href="#DejaVuSans-72" transform="translate(215.869141 0)"/>
      <use xlink:href="#DejaVuSans-20" transform="translate(256.982422 0)"/>
      <use xlink:href="#DejaVuSans-49" transform="translate(288.769531 0)"/>
      <use xlink:href="#DejaVuSans-6d" transform="translate(318.261719 0)"/>
      <use xlink:href="#DejaVuSans-70" transform="translate(415.673828 0)"/>
      <use xlink:href="#DejaVuSans-6c" transform="translate(479.150391 0)"/>
      <use xlink:href="#DejaVuSans-ed" transform="translate(506.933594 0)"/>
      <use xlink:href="#DejaVuSans-63" transform="translate(534.716797 0)"/>
      <use xlink:href="#DejaVuSans-69" transform="translate(589.697266 0)"/>
      <use xlink:href="#DejaVuSans-74" transform="translate(617.480469 0)"/>
      <use xlink:href="#DejaVuSans-6f" transform="translate(656.689453 0)"/>
     </g>
    </g>
   </g>
  </g>
 </g>
 <defs>
  <clipPath id="p663570e028">
   <rect x="33.403125" y="22.44" width="558" height="332.64"/>
  </clipPath>
 </defs>
</svg>
