<?xml version="1.0" encoding="utf-8" standalone="no"?>
<!DOCTYPE svg PUBLIC "-//W3C//DTD SVG 1.1//EN"
  "http://www.w3.org/Graphics/SVG/1.1/DTD/svg11.dtd">
<svg xmlns:xlink="http://www.w3.org/1999/xlink" width="602.960938pt" height="385.43625pt" viewBox="0 0 602.960938 385.43625" xmlns="http://www.w3.org/2000/svg" version="1.1">
 <metadata>
  <rdf:RDF xmlns:dc="http://purl.org/dc/elements/1.1/" xmlns:cc="http://creativecommons.org/ns#" xmlns:rdf="http://www.w3.org/1999/02/22-rdf-syntax-ns#">
   <cc:Work>
    <dc:type rdf:resource="http://purl.org/dc/dcmitype/StillImage"/>
    <dc:date>2025-02-16T00:59:09.593591</dc:date>
    <dc:format>image/svg+xml</dc:format>
    <dc:creator>
     <cc:Agent>
      <dc:title>Matplotlib v3.10.0, https://matplotlib.org/</dc:title>
     </cc:Agent>
    </dc:creator>
   </cc:Work>
  </rdf:RDF>
 </metadata>
 <defs>
  <style type="text/css">*{stroke-linejoin: round; stroke-linecap: butt}</style>
 </defs>
 <g id="figure_1">
  <g id="patch_1">
   <path d="M 0 385.43625 
L 602.960938 385.43625 
L 602.960938 0 
L 0 0 
z
" style="fill: #ffffff"/>
  </g>
  <g id="axes_1">
   <g id="patch_2">
    <path d="M 44.960938 355.08 
L 602.960938 355.08 
L 602.960938 22.44 
L 44.960938 22.44 
z
" style="fill: #ffffff"/>
   </g>
   <g id="matplotlib.axis_1">
    <g id="xtick_1">
     <g id="line2d_1">
      <path d="M 70.324574 355.08 
L 70.324574 22.44 
" clip-path="url(#p4e8b299314)" style="fill: none; stroke: #b0b0b0; stroke-width: 0.8; stroke-linecap: square"/>
     </g>
     <g id="line2d_2">
      <defs>
       <path id="mb0d78ac643" d="M 0 0 
L 0 3.5 
" style="stroke: #000000; stroke-width: 0.8"/>
      </defs>
      <g>
       <use xlink:href="#mb0d78ac643" x="70.324574" y="355.08" style="stroke: #000000; stroke-width: 0.8"/>
      </g>
     </g>
     <g id="text_1">
      <!-- 0.0 -->
      <g transform="translate(62.373011 369.678438) scale(0.1 -0.1)">
       <defs>
        <path id="DejaVuSans-30" d="M 2034 4250 
Q 1547 4250 1301 3770 
Q 1056 3291 1056 2328 
Q 1056 1369 1301 889 
Q 1547 409 2034 409 
Q 2525 409 2770 889 
Q 3016 1369 3016 2328 
Q 3016 3291 2770 3770 
Q 2525 4250 2034 4250 
z
M 2034 4750 
Q 2819 4750 3233 4129 
Q 3647 3509 3647 2328 
Q 3647 1150 3233 529 
Q 2819 -91 2034 -91 
Q 1250 -91 836 529 
Q 422 1150 422 2328 
Q 422 3509 836 4129 
Q 1250 4750 2034 4750 
z
" transform="scale(0.015625)"/>
        <path id="DejaVuSans-2e" d="M 684 794 
L 1344 794 
L 1344 0 
L 684 0 
L 684 794 
z
" transform="scale(0.015625)"/>
       </defs>
       <use xlink:href="#DejaVuSans-30"/>
       <use xlink:href="#DejaVuSans-2e" transform="translate(63.623047 0)"/>
       <use xlink:href="#DejaVuSans-30" transform="translate(95.410156 0)"/>
      </g>
     </g>
    </g>
    <g id="xtick_2">
     <g id="line2d_3">
      <path d="M 171.779119 355.08 
L 171.779119 22.44 
" clip-path="url(#p4e8b299314)" style="fill: none; stroke: #b0b0b0; stroke-width: 0.8; stroke-linecap: square"/>
     </g>
     <g id="line2d_4">
      <g>
       <use xlink:href="#mb0d78ac643" x="171.779119" y="355.08" style="stroke: #000000; stroke-width: 0.8"/>
      </g>
     </g>
     <g id="text_2">
      <!-- 0.2 -->
      <g transform="translate(163.827557 369.678438) scale(0.1 -0.1)">
       <defs>
        <path id="DejaVuSans-32" d="M 1228 531 
L 3431 531 
L 3431 0 
L 469 0 
L 469 531 
Q 828 903 1448 1529 
Q 2069 2156 2228 2338 
Q 2531 2678 2651 2914 
Q 2772 3150 2772 3378 
Q 2772 3750 2511 3984 
Q 2250 4219 1831 4219 
Q 1534 4219 1204 4116 
Q 875 4013 500 3803 
L 500 4441 
Q 881 4594 1212 4672 
Q 1544 4750 1819 4750 
Q 2544 4750 2975 4387 
Q 3406 4025 3406 3419 
Q 3406 3131 3298 2873 
Q 3191 2616 2906 2266 
Q 2828 2175 2409 1742 
Q 1991 1309 1228 531 
z
" transform="scale(0.015625)"/>
       </defs>
       <use xlink:href="#DejaVuSans-30"/>
       <use xlink:href="#DejaVuSans-2e" transform="translate(63.623047 0)"/>
       <use xlink:href="#DejaVuSans-32" transform="translate(95.410156 0)"/>
      </g>
     </g>
    </g>
    <g id="xtick_3">
     <g id="line2d_5">
      <path d="M 273.233665 355.08 
L 273.233665 22.44 
" clip-path="url(#p4e8b299314)" style="fill: none; stroke: #b0b0b0; stroke-width: 0.8; stroke-linecap: square"/>
     </g>
     <g id="line2d_6">
      <g>
       <use xlink:href="#mb0d78ac643" x="273.233665" y="355.08" style="stroke: #000000; stroke-width: 0.8"/>
      </g>
     </g>
     <g id="text_3">
      <!-- 0.4 -->
      <g transform="translate(265.282102 369.678438) scale(0.1 -0.1)">
       <defs>
        <path id="DejaVuSans-34" d="M 2419 4116 
L 825 1625 
L 2419 1625 
L 2419 4116 
z
M 2253 4666 
L 3047 4666 
L 3047 1625 
L 3713 1625 
L 3713 1100 
L 3047 1100 
L 3047 0 
L 2419 0 
L 2419 1100 
L 313 1100 
L 313 1709 
L 2253 4666 
z
" transform="scale(0.015625)"/>
       </defs>
       <use xlink:href="#DejaVuSans-30"/>
       <use xlink:href="#DejaVuSans-2e" transform="translate(63.623047 0)"/>
       <use xlink:href="#DejaVuSans-34" transform="translate(95.410156 0)"/>
      </g>
     </g>
    </g>
    <g id="xtick_4">
     <g id="line2d_7">
      <path d="M 374.68821 355.08 
L 374.68821 22.44 
" clip-path="url(#p4e8b299314)" style="fill: none; stroke: #b0b0b0; stroke-width: 0.8; stroke-linecap: square"/>
     </g>
     <g id="line2d_8">
      <g>
       <use xlink:href="#mb0d78ac643" x="374.68821" y="355.08" style="stroke: #000000; stroke-width: 0.8"/>
      </g>
     </g>
     <g id="text_4">
      <!-- 0.6 -->
      <g transform="translate(366.736648 369.678438) scale(0.1 -0.1)">
       <defs>
        <path id="DejaVuSans-36" d="M 2113 2584 
Q 1688 2584 1439 2293 
Q 1191 2003 1191 1497 
Q 1191 994 1439 701 
Q 1688 409 2113 409 
Q 2538 409 2786 701 
Q 3034 994 3034 1497 
Q 3034 2003 2786 2293 
Q 2538 2584 2113 2584 
z
M 3366 4563 
L 3366 3988 
Q 3128 4100 2886 4159 
Q 2644 4219 2406 4219 
Q 1781 4219 1451 3797 
Q 1122 3375 1075 2522 
Q 1259 2794 1537 2939 
Q 1816 3084 2150 3084 
Q 2853 3084 3261 2657 
Q 3669 2231 3669 1497 
Q 3669 778 3244 343 
Q 2819 -91 2113 -91 
Q 1303 -91 875 529 
Q 447 1150 447 2328 
Q 447 3434 972 4092 
Q 1497 4750 2381 4750 
Q 2619 4750 2861 4703 
Q 3103 4656 3366 4563 
z
" transform="scale(0.015625)"/>
       </defs>
       <use xlink:href="#DejaVuSans-30"/>
       <use xlink:href="#DejaVuSans-2e" transform="translate(63.623047 0)"/>
       <use xlink:href="#DejaVuSans-36" transform="translate(95.410156 0)"/>
      </g>
     </g>
    </g>
    <g id="xtick_5">
     <g id="line2d_9">
      <path d="M 476.142756 355.08 
L 476.142756 22.44 
" clip-path="url(#p4e8b299314)" style="fill: none; stroke: #b0b0b0; stroke-width: 0.8; stroke-linecap: square"/>
     </g>
     <g id="line2d_10">
      <g>
       <use xlink:href="#mb0d78ac643" x="476.142756" y="355.08" style="stroke: #000000; stroke-width: 0.8"/>
      </g>
     </g>
     <g id="text_5">
      <!-- 0.8 -->
      <g transform="translate(468.191193 369.678438) scale(0.1 -0.1)">
       <defs>
        <path id="DejaVuSans-38" d="M 2034 2216 
Q 1584 2216 1326 1975 
Q 1069 1734 1069 1313 
Q 1069 891 1326 650 
Q 1584 409 2034 409 
Q 2484 409 2743 651 
Q 3003 894 3003 1313 
Q 3003 1734 2745 1975 
Q 2488 2216 2034 2216 
z
M 1403 2484 
Q 997 2584 770 2862 
Q 544 3141 544 3541 
Q 544 4100 942 4425 
Q 1341 4750 2034 4750 
Q 2731 4750 3128 4425 
Q 3525 4100 3525 3541 
Q 3525 3141 3298 2862 
Q 3072 2584 2669 2484 
Q 3125 2378 3379 2068 
Q 3634 1759 3634 1313 
Q 3634 634 3220 271 
Q 2806 -91 2034 -91 
Q 1263 -91 848 271 
Q 434 634 434 1313 
Q 434 1759 690 2068 
Q 947 2378 1403 2484 
z
M 1172 3481 
Q 1172 3119 1398 2916 
Q 1625 2713 2034 2713 
Q 2441 2713 2670 2916 
Q 2900 3119 2900 3481 
Q 2900 3844 2670 4047 
Q 2441 4250 2034 4250 
Q 1625 4250 1398 4047 
Q 1172 3844 1172 3481 
z
" transform="scale(0.015625)"/>
       </defs>
       <use xlink:href="#DejaVuSans-30"/>
       <use xlink:href="#DejaVuSans-2e" transform="translate(63.623047 0)"/>
       <use xlink:href="#DejaVuSans-38" transform="translate(95.410156 0)"/>
      </g>
     </g>
    </g>
    <g id="xtick_6">
     <g id="line2d_11">
      <path d="M 577.597301 355.08 
L 577.597301 22.44 
" clip-path="url(#p4e8b299314)" style="fill: none; stroke: #b0b0b0; stroke-width: 0.8; stroke-linecap: square"/>
     </g>
     <g id="line2d_12">
      <g>
       <use xlink:href="#mb0d78ac643" x="577.597301" y="355.08" style="stroke: #000000; stroke-width: 0.8"/>
      </g>
     </g>
     <g id="text_6">
      <!-- 1.0 -->
      <g transform="translate(569.645739 369.678438) scale(0.1 -0.1)">
       <defs>
        <path id="DejaVuSans-31" d="M 794 531 
L 1825 531 
L 1825 4091 
L 703 3866 
L 703 4441 
L 1819 4666 
L 2450 4666 
L 2450 531 
L 3481 531 
L 3481 0 
L 794 0 
L 794 531 
z
" transform="scale(0.015625)"/>
       </defs>
       <use xlink:href="#DejaVuSans-31"/>
       <use xlink:href="#DejaVuSans-2e" transform="translate(63.623047 0)"/>
       <use xlink:href="#DejaVuSans-30" transform="translate(95.410156 0)"/>
      </g>
     </g>
    </g>
    <g id="text_7">
     <!-- x -->
     <g transform="translate(321.001562 383.356563) scale(0.1 -0.1)">
      <defs>
       <path id="DejaVuSans-78" d="M 3513 3500 
L 2247 1797 
L 3578 0 
L 2900 0 
L 1881 1375 
L 863 0 
L 184 0 
L 1544 1831 
L 300 3500 
L 978 3500 
L 1906 2253 
L 2834 3500 
L 3513 3500 
z
" transform="scale(0.015625)"/>
      </defs>
      <use xlink:href="#DejaVuSans-78"/>
     </g>
    </g>
   </g>
   <g id="matplotlib.axis_2">
    <g id="ytick_1">
     <g id="line2d_13">
      <path d="M 44.960938 324.672917 
L 602.960938 324.672917 
" clip-path="url(#p4e8b299314)" style="fill: none; stroke: #b0b0b0; stroke-width: 0.8; stroke-linecap: square"/>
     </g>
     <g id="line2d_14">
      <defs>
       <path id="m8c2e439915" d="M 0 0 
L -3.5 0 
" style="stroke: #000000; stroke-width: 0.8"/>
      </defs>
      <g>
       <use xlink:href="#m8c2e439915" x="44.960938" y="324.672917" style="stroke: #000000; stroke-width: 0.8"/>
      </g>
     </g>
     <g id="text_8">
      <!-- −0.4 -->
      <g transform="translate(13.678125 328.472135) scale(0.1 -0.1)">
       <defs>
        <path id="DejaVuSans-2212" d="M 678 2272 
L 4684 2272 
L 4684 1741 
L 678 1741 
L 678 2272 
z
" transform="scale(0.015625)"/>
       </defs>
       <use xlink:href="#DejaVuSans-2212"/>
       <use xlink:href="#DejaVuSans-30" transform="translate(83.789062 0)"/>
       <use xlink:href="#DejaVuSans-2e" transform="translate(147.412109 0)"/>
       <use xlink:href="#DejaVuSans-34" transform="translate(179.199219 0)"/>
      </g>
     </g>
    </g>
    <g id="ytick_2">
     <g id="line2d_15">
      <path d="M 44.960938 279.497496 
L 602.960938 279.497496 
" clip-path="url(#p4e8b299314)" style="fill: none; stroke: #b0b0b0; stroke-width: 0.8; stroke-linecap: square"/>
     </g>
     <g id="line2d_16">
      <g>
       <use xlink:href="#m8c2e439915" x="44.960938" y="279.497496" style="stroke: #000000; stroke-width: 0.8"/>
      </g>
     </g>
     <g id="text_9">
      <!-- −0.2 -->
      <g transform="translate(13.678125 283.296714) scale(0.1 -0.1)">
       <use xlink:href="#DejaVuSans-2212"/>
       <use xlink:href="#DejaVuSans-30" transform="translate(83.789062 0)"/>
       <use xlink:href="#DejaVuSans-2e" transform="translate(147.412109 0)"/>
       <use xlink:href="#DejaVuSans-32" transform="translate(179.199219 0)"/>
      </g>
     </g>
    </g>
    <g id="ytick_3">
     <g id="line2d_17">
      <path d="M 44.960938 234.322075 
L 602.960938 234.322075 
" clip-path="url(#p4e8b299314)" style="fill: none; stroke: #b0b0b0; stroke-width: 0.8; stroke-linecap: square"/>
     </g>
     <g id="line2d_18">
      <g>
       <use xlink:href="#m8c2e439915" x="44.960938" y="234.322075" style="stroke: #000000; stroke-width: 0.8"/>
      </g>
     </g>
     <g id="text_10">
      <!-- 0.0 -->
      <g transform="translate(22.057813 238.121293) scale(0.1 -0.1)">
       <use xlink:href="#DejaVuSans-30"/>
       <use xlink:href="#DejaVuSans-2e" transform="translate(63.623047 0)"/>
       <use xlink:href="#DejaVuSans-30" transform="translate(95.410156 0)"/>
      </g>
     </g>
    </g>
    <g id="ytick_4">
     <g id="line2d_19">
      <path d="M 44.960938 189.146654 
L 602.960938 189.146654 
" clip-path="url(#p4e8b299314)" style="fill: none; stroke: #b0b0b0; stroke-width: 0.8; stroke-linecap: square"/>
     </g>
     <g id="line2d_20">
      <g>
       <use xlink:href="#m8c2e439915" x="44.960938" y="189.146654" style="stroke: #000000; stroke-width: 0.8"/>
      </g>
     </g>
     <g id="text_11">
      <!-- 0.2 -->
      <g transform="translate(22.057813 192.945872) scale(0.1 -0.1)">
       <use xlink:href="#DejaVuSans-30"/>
       <use xlink:href="#DejaVuSans-2e" transform="translate(63.623047 0)"/>
       <use xlink:href="#DejaVuSans-32" transform="translate(95.410156 0)"/>
      </g>
     </g>
    </g>
    <g id="ytick_5">
     <g id="line2d_21">
      <path d="M 44.960938 143.971233 
L 602.960938 143.971233 
" clip-path="url(#p4e8b299314)" style="fill: none; stroke: #b0b0b0; stroke-width: 0.8; stroke-linecap: square"/>
     </g>
     <g id="line2d_22">
      <g>
       <use xlink:href="#m8c2e439915" x="44.960938" y="143.971233" style="stroke: #000000; stroke-width: 0.8"/>
      </g>
     </g>
     <g id="text_12">
      <!-- 0.4 -->
      <g transform="translate(22.057813 147.770451) scale(0.1 -0.1)">
       <use xlink:href="#DejaVuSans-30"/>
       <use xlink:href="#DejaVuSans-2e" transform="translate(63.623047 0)"/>
       <use xlink:href="#DejaVuSans-34" transform="translate(95.410156 0)"/>
      </g>
     </g>
    </g>
    <g id="ytick_6">
     <g id="line2d_23">
      <path d="M 44.960938 98.795812 
L 602.960938 98.795812 
" clip-path="url(#p4e8b299314)" style="fill: none; stroke: #b0b0b0; stroke-width: 0.8; stroke-linecap: square"/>
     </g>
     <g id="line2d_24">
      <g>
       <use xlink:href="#m8c2e439915" x="44.960938" y="98.795812" style="stroke: #000000; stroke-width: 0.8"/>
      </g>
     </g>
     <g id="text_13">
      <!-- 0.6 -->
      <g transform="translate(22.057813 102.59503) scale(0.1 -0.1)">
       <use xlink:href="#DejaVuSans-30"/>
       <use xlink:href="#DejaVuSans-2e" transform="translate(63.623047 0)"/>
       <use xlink:href="#DejaVuSans-36" transform="translate(95.410156 0)"/>
      </g>
     </g>
    </g>
    <g id="ytick_7">
     <g id="line2d_25">
      <path d="M 44.960938 53.620391 
L 602.960938 53.620391 
" clip-path="url(#p4e8b299314)" style="fill: none; stroke: #b0b0b0; stroke-width: 0.8; stroke-linecap: square"/>
     </g>
     <g id="line2d_26">
      <g>
       <use xlink:href="#m8c2e439915" x="44.960938" y="53.620391" style="stroke: #000000; stroke-width: 0.8"/>
      </g>
     </g>
     <g id="text_14">
      <!-- 0.8 -->
      <g transform="translate(22.057813 57.419609) scale(0.1 -0.1)">
       <use xlink:href="#DejaVuSans-30"/>
       <use xlink:href="#DejaVuSans-2e" transform="translate(63.623047 0)"/>
       <use xlink:href="#DejaVuSans-38" transform="translate(95.410156 0)"/>
      </g>
     </g>
    </g>
    <g id="text_15">
     <!-- y -->
     <g transform="translate(7.598438 191.719375) rotate(-90) scale(0.1 -0.1)">
      <defs>
       <path id="DejaVuSans-79" d="M 2059 -325 
Q 1816 -950 1584 -1140 
Q 1353 -1331 966 -1331 
L 506 -1331 
L 506 -850 
L 844 -850 
Q 1081 -850 1212 -737 
Q 1344 -625 1503 -206 
L 1606 56 
L 191 3500 
L 800 3500 
L 1894 763 
L 2988 3500 
L 3597 3500 
L 2059 -325 
z
" transform="scale(0.015625)"/>
      </defs>
      <use xlink:href="#DejaVuSans-79"/>
     </g>
    </g>
   </g>
   <g id="line2d_27">
    <path d="M 70.324574 234.322075 
L 71.340135 234.118846 
L 72.355696 233.511518 
L 73.371257 232.504703 
L 74.386818 231.104443 
L 75.402379 229.318181 
L 76.41794 227.154741 
L 77.941281 223.224973 
L 79.464623 218.509536 
L 80.987965 213.05453 
L 83.019087 204.721472 
L 85.050209 195.30509 
L 87.589111 182.246679 
L 90.635794 165.125032 
L 95.205819 137.763809 
L 100.791404 104.451707 
L 103.838087 87.662031 
L 106.37699 74.983018 
L 108.408112 65.92885 
L 110.439234 58.002082 
L 111.962576 52.875589 
L 113.485917 48.504679 
L 115.009259 44.931226 
L 116.02482 43.009689 
L 117.040381 41.46723 
L 118.055942 40.311273 
L 119.071503 39.547834 
L 120.087064 39.181508 
L 121.102625 39.215442 
L 122.118186 39.651332 
L 123.133747 40.489411 
L 124.149308 41.728453 
L 125.164869 43.365774 
L 126.18043 45.397244 
L 127.195991 47.817299 
L 128.719332 52.160345 
L 130.242674 57.332337 
L 131.766015 63.29714 
L 133.797137 72.40893 
L 135.828259 82.735896 
L 137.859381 94.142562 
L 140.398284 109.687567 
L 143.444967 129.796653 
L 148.014992 161.656727 
L 154.108358 203.906695 
L 157.155041 223.483724 
L 159.693943 238.418044 
L 161.725065 249.234391 
L 163.756187 258.887841 
L 165.279529 265.287218 
L 166.80287 270.913022 
L 168.326212 275.724308 
L 169.849553 279.686698 
L 170.865114 281.842795 
L 171.880675 283.602799 
L 172.896236 284.961709 
L 173.911797 285.915962 
L 174.927358 286.463448 
L 175.942919 286.603512 
L 176.95848 286.336964 
L 177.974042 285.66607 
L 178.989603 284.594549 
L 180.005164 283.127555 
L 181.020725 281.271659 
L 182.036286 279.03483 
L 183.559627 274.986119 
L 185.082969 270.138702 
L 186.60631 264.5361 
L 188.637432 255.977804 
L 190.668554 246.298914 
L 193.207457 232.853029 
L 196.25414 215.169843 
L 200.316384 189.96569 
L 206.91753 148.716959 
L 209.964214 131.093358 
L 212.503116 117.713138 
L 214.534238 108.094811 
L 216.56536 99.601916 
L 218.088702 94.050088 
L 219.612043 89.253684 
L 221.135385 85.255036 
L 222.150946 83.050439 
L 223.166507 81.225413 
L 224.182068 79.787534 
L 225.197629 78.742974 
L 226.21319 78.096483 
L 227.228751 77.851367 
L 228.244312 78.00948 
L 229.259873 78.571216 
L 230.275434 79.535508 
L 231.290995 80.899832 
L 232.306556 82.660214 
L 233.322117 84.811248 
L 234.845458 88.754968 
L 236.3688 93.533127 
L 237.892141 99.110076 
L 239.415483 105.443659 
L 241.446605 114.981066 
L 243.477727 125.646733 
L 246.01663 140.340641 
L 249.063313 159.548102 
L 253.125557 186.83816 
L 260.234484 234.932118 
L 263.281167 254.000156 
L 265.820069 268.534837 
L 267.851191 279.046413 
L 269.882313 288.407354 
L 271.405655 294.594762 
L 272.928996 300.014415 
L 274.452338 304.624857 
L 275.97568 308.391173 
L 276.991241 310.418932 
L 278.006802 312.052303 
L 279.022363 313.286115 
L 280.037924 314.116634 
L 281.053485 314.541573 
L 282.069046 314.560107 
L 283.084607 314.172869 
L 284.100168 313.381953 
L 285.115729 312.190905 
L 286.13129 310.604708 
L 287.146851 308.629767 
L 288.162412 306.273884 
L 289.685753 302.046225 
L 291.209095 297.018953 
L 292.732436 291.235088 
L 294.763558 282.432103 
L 296.79468 272.504156 
L 299.333583 258.739431 
L 302.380266 240.660687 
L 306.44251 214.904168 
L 313.551437 169.582042 
L 316.59812 151.734992 
L 319.137023 138.230499 
L 321.168145 128.549799 
L 323.199267 120.024214 
L 324.722608 114.465315 
L 326.24595 109.675069 
L 327.769291 105.694153 
L 328.784852 103.506955 
L 329.800413 101.703174 
L 330.815974 100.289843 
L 331.831535 99.272586 
L 332.847096 98.655592 
L 333.862657 98.441607 
L 334.878218 98.631917 
L 335.893779 99.226351 
L 336.90934 100.223275 
L 337.924901 101.6196 
L 338.940462 103.410796 
L 339.956023 105.590904 
L 341.479365 109.57379 
L 343.002707 114.3842 
L 344.526048 119.984771 
L 346.04939 126.331717 
L 348.080512 135.868343 
L 350.111634 146.508941 
L 352.650536 161.132913 
L 355.697219 180.193666 
L 360.267244 210.603556 
L 366.36061 251.152134 
L 369.407293 269.974646 
L 371.946195 284.325695 
L 373.977318 294.703033 
L 376.00844 303.94001 
L 377.531781 310.040573 
L 379.055123 315.378111 
L 380.578464 319.910668 
L 382.101806 323.602805 
L 383.117367 325.582901 
L 384.132928 327.169852 
L 385.148489 328.358317 
L 386.16405 329.144393 
L 387.179611 329.525623 
L 388.195172 329.50101 
L 389.210733 329.071016 
L 390.226294 328.237564 
L 391.241855 327.004031 
L 392.257416 325.375231 
L 393.272977 323.357404 
L 394.288538 320.95819 
L 395.811879 316.664352 
L 397.335221 311.569022 
L 398.858562 305.714726 
L 400.889684 296.813342 
L 402.920806 286.780938 
L 405.459709 272.875772 
L 408.506392 254.612129 
L 412.568636 228.578386 
L 419.677563 182.682116 
L 422.724246 164.555512 
L 425.263149 150.804339 
L 427.294271 140.918327 
L 429.325393 132.181293 
L 430.848734 126.46037 
L 432.372076 121.505661 
L 433.895417 117.358323 
L 434.910978 115.059339 
L 435.926539 113.143282 
L 436.9421 111.617344 
L 437.957661 110.487307 
L 438.973223 109.757527 
L 439.988784 109.430913 
L 441.004345 109.508916 
L 442.019906 109.991531 
L 443.035467 110.87729 
L 444.051028 112.163268 
L 445.066589 113.845098 
L 446.08215 115.916982 
L 447.097711 118.371714 
L 448.621052 122.752497 
L 450.144394 127.940404 
L 451.667735 133.894233 
L 453.698857 142.941297 
L 455.729979 153.136681 
L 458.268882 167.273551 
L 461.315565 185.861386 
L 465.377809 212.413628 
L 472.994517 262.68378 
L 476.0412 281.149193 
L 478.580102 295.148771 
L 480.611224 305.2131 
L 482.642346 314.111978 
L 484.165688 319.94451 
L 485.689029 325.003333 
L 487.212371 329.248126 
L 488.735712 332.645164 
L 489.751273 334.425332 
L 490.766834 335.810424 
L 491.782395 336.795651 
L 492.797956 337.377662 
L 493.813517 337.55456 
L 494.829078 337.325909 
L 495.844639 336.692731 
L 496.8602 335.657508 
L 497.875761 334.224171 
L 498.891322 332.398083 
L 499.906883 330.186025 
L 501.430225 326.162488 
L 502.953566 321.322501 
L 504.476908 315.705962 
L 506.00025 309.359061 
L 508.031372 299.851271 
L 510.062494 289.276829 
L 512.601396 274.794469 
L 515.648079 255.9989 
L 520.725884 222.847328 
L 525.803689 190.018258 
L 528.850372 171.715932 
L 531.389275 157.803137 
L 533.420397 147.778901 
L 535.451519 138.896653 
L 536.974861 133.062829 
L 538.498202 127.992301 
L 540.021544 123.726716 
L 541.544885 120.301186 
L 542.560446 118.498457 
L 543.576007 117.088457 
L 544.591568 116.07642 
L 545.607129 115.466145 
L 546.62269 115.259979 
L 547.638251 115.458813 
L 548.653812 116.062075 
L 549.669373 117.067736 
L 550.684934 118.472312 
L 551.700495 120.270882 
L 552.716056 122.457102 
L 554.239398 126.445965 
L 555.762739 131.257421 
L 557.286081 136.852914 
L 558.809422 143.187528 
L 560.840544 152.694603 
L 562.871666 163.288576 
L 565.410569 177.82721 
L 568.457252 196.741671 
L 573.027277 226.834511 
L 577.597301 257.051522 
L 577.597301 257.051522 
" clip-path="url(#p4e8b299314)" style="fill: none; stroke: #0000ff; stroke-width: 1.5; stroke-linecap: square"/>
   </g>
   <g id="line2d_28">
    <path d="M 70.324574 234.322075 
L 75.397301 234.322075 
L 80.470028 224.309387 
L 85.542756 205.478797 
L 90.615483 179.803753 
L 95.68821 149.860359 
L 100.760937 118.597519 
L 105.833665 89.073773 
L 110.906392 64.184337 
L 115.979119 46.402719 
L 121.051847 37.56 
L 126.124574 38.681495 
L 131.197301 49.895384 
L 136.270028 70.42147 
L 141.342756 98.641083 
L 146.415483 132.241864 
L 151.48821 168.424521 
L 156.560937 204.153065 
L 161.633665 236.426186 
L 166.706392 262.545534 
L 171.779119 280.356918 
L 176.851847 288.442907 
L 181.924574 286.249601 
L 186.997301 274.136266 
L 192.070028 253.343396 
L 197.142756 225.882046 
L 202.215483 194.354339 
L 207.28821 161.721159 
L 212.360937 131.037801 
L 217.433665 105.18118 
L 222.506392 86.592971 
L 227.579119 77.061625 
L 232.651847 77.562728 
L 237.724574 88.171972 
L 242.797301 108.058508 
L 247.870028 135.559265 
L 252.942756 168.327619 
L 258.015483 203.543108 
L 263.08821 238.163476 
L 268.160937 269.196524 
L 273.233665 293.967487 
L 278.306392 310.358056 
L 283.379119 316.995682 
L 288.451847 313.376272 
L 293.524574 299.909299 
L 298.597301 277.881305 
L 303.670028 249.341053 
L 308.742756 216.916597 
L 313.815483 183.580594 
L 318.88821 152.384841 
L 323.960938 126.187731 
L 329.033665 107.398991 
L 334.106392 97.764492 
L 339.179119 98.210357 
L 344.251847 108.760296 
L 349.324574 128.533546 
L 354.397301 155.823604 
L 359.470028 188.250719 
L 364.542756 222.974523 
L 369.615483 256.947803 
L 374.68821 287.188754 
L 379.760938 311.047377 
L 384.833665 326.442251 
L 389.906392 332.0465 
L 394.979119 327.406368 
L 400.051847 312.981791 
L 405.124574 290.105361 
L 410.197301 260.863322 
L 415.270028 227.909259 
L 420.342756 194.227094 
L 425.415483 162.864585 
L 430.48821 136.661106 
L 435.560938 117.99406 
L 440.633665 108.566537 
L 445.706392 109.255221 
L 450.779119 120.032109 
L 455.851847 139.967043 
L 460.924574 167.310829 
L 465.997301 199.651516 
L 471.070028 234.129877 
L 476.142756 267.694844 
L 481.215483 297.376073 
L 486.28821 320.54931 
L 491.360938 335.170825 
L 496.433665 339.96 
L 501.506392 334.513748 
L 506.579119 319.342538 
L 511.651847 295.824825 
L 516.724574 266.083931 
L 521.797301 232.798402 
L 526.870028 198.962759 
L 531.942756 167.620024 
L 537.015483 141.589921 
L 542.08821 123.217011 
L 547.160938 114.161279 
L 552.233665 115.249874 
L 557.306392 126.403231 
L 562.379119 146.642204 
L 567.451847 174.175538 
L 572.524574 206.559897 
L 577.597301 240.918134 
" clip-path="url(#p4e8b299314)" style="fill: none; stroke: #ff0000; stroke-width: 1.5; stroke-linecap: square"/>
   </g>
   <g id="line2d_29">
    <path d="M 70.324574 234.322075 
L 75.397301 224.601019 
L 80.470028 206.310398 
L 85.542756 181.35895 
L 90.615483 152.242397 
L 95.68821 121.820744 
L 100.760937 93.063033 
L 105.833665 68.78234 
L 110.906392 51.384711 
L 115.979119 42.654441 
L 121.051847 43.594889 
L 126.124574 54.339051 
L 131.197301 74.137863 
L 136.270028 101.427301 
L 141.342756 133.968267 
L 146.415483 169.046776 
L 151.48821 203.716559 
L 156.560937 235.0624 
L 161.633665 260.460712 
L 166.706392 277.814041 
L 171.779119 285.73858 
L 176.851847 283.687924 
L 181.924574 272.002016 
L 186.997301 251.876926 
L 192.070028 225.258134 
L 197.142756 194.666882 
L 202.215483 162.97508 
L 207.28821 133.14889 
L 212.360937 107.983887 
L 217.433665 89.85545 
L 222.506392 80.506692 
L 227.579119 80.892857 
L 232.651847 91.096101 
L 237.724574 110.318248 
L 242.797301 136.952195 
L 247.870028 168.72556 
L 252.942756 202.903765 
L 258.015483 236.534394 
L 263.08821 266.711016 
L 268.160937 290.832888 
L 273.233665 306.83736 
L 278.306392 313.384202 
L 283.379119 309.9754 
L 288.451847 296.999724 
L 293.524574 275.698067 
L 298.597301 248.052674 
L 303.670028 216.610145 
L 308.742756 184.25402 
L 313.815483 153.947267 
L 318.88821 128.467672 
L 323.960938 110.159771 
L 329.033665 100.725477 
L 334.106392 101.072113 
L 339.179119 111.23142 
L 344.251847 130.356776 
L 349.324574 156.798874 
L 354.397301 188.253104 
L 359.470028 221.965465 
L 364.542756 254.978623 
L 369.615483 284.396124 
L 374.68821 307.641174 
L 379.760938 322.686864 
L 384.833665 328.237262 
L 389.906392 323.843228 
L 394.979119 309.942566 
L 400.051847 287.820961 
L 405.124574 259.497168 
L 410.197301 227.542722 
L 415.270028 194.852267 
L 420.342756 164.38502 
L 425.415483 138.900465 
L 430.48821 120.711895 
L 435.560938 111.4798 
L 440.633665 112.063573 
L 445.706392 122.444774 
L 450.779119 141.728808 
L 455.851847 168.224859 
L 460.924574 199.596962 
L 465.997301 233.072688 
L 471.070028 265.690826 
L 476.142756 294.565923 
L 481.215483 317.14606 
L 486.28821 331.44083 
L 491.360938 336.199155 
L 496.433665 331.02107 
L 501.506392 316.393469 
L 506.579119 293.646633 
L 511.651847 264.835421 
L 516.724574 232.555738 
L 521.797301 199.712667 
L 526.870028 169.260985 
L 531.942756 143.941246 
L 537.015483 126.034983 
L 542.08821 117.160934 
L 547.160938 118.130453 
L 552.233665 128.875055 
L 557.306392 148.452548 
L 562.379119 175.131212 
L 567.451847 206.544503 
L 572.524574 239.902463 
L 577.597301 272.240955 
" clip-path="url(#p4e8b299314)" style="fill: none; stroke: #008000; stroke-width: 1.5; stroke-linecap: square"/>
   </g>
   <g id="patch_3">
    <path d="M 44.960938 355.08 
L 44.960938 22.44 
" style="fill: none; stroke: #000000; stroke-width: 0.8; stroke-linejoin: miter; stroke-linecap: square"/>
   </g>
   <g id="patch_4">
    <path d="M 602.960938 355.08 
L 602.960938 22.44 
" style="fill: none; stroke: #000000; stroke-width: 0.8; stroke-linejoin: miter; stroke-linecap: square"/>
   </g>
   <g id="patch_5">
    <path d="M 44.960938 355.08 
L 602.960938 355.08 
" style="fill: none; stroke: #000000; stroke-width: 0.8; stroke-linejoin: miter; stroke-linecap: square"/>
   </g>
   <g id="patch_6">
    <path d="M 44.960938 22.44 
L 602.960938 22.44 
" style="fill: none; stroke: #000000; stroke-width: 0.8; stroke-linejoin: miter; stroke-linecap: square"/>
   </g>
   <g id="text_16">
    <!-- EDO: $\dfrac{dI}{dt} = 15\cdot sen(30\cdot t) - 3\cdot I$	 PVI: I(0)=0 -->
    <g transform="translate(186.200938 14.64) scale(0.12 -0.12)">
     <defs>
      <path id="DejaVuSans-45" d="M 628 4666 
L 3578 4666 
L 3578 4134 
L 1259 4134 
L 1259 2753 
L 3481 2753 
L 3481 2222 
L 1259 2222 
L 1259 531 
L 3634 531 
L 3634 0 
L 628 0 
L 628 4666 
z
" transform="scale(0.015625)"/>
      <path id="DejaVuSans-44" d="M 1259 4147 
L 1259 519 
L 2022 519 
Q 2988 519 3436 956 
Q 3884 1394 3884 2338 
Q 3884 3275 3436 3711 
Q 2988 4147 2022 4147 
L 1259 4147 
z
M 628 4666 
L 1925 4666 
Q 3281 4666 3915 4102 
Q 4550 3538 4550 2338 
Q 4550 1131 3912 565 
Q 3275 0 1925 0 
L 628 0 
L 628 4666 
z
" transform="scale(0.015625)"/>
      <path id="DejaVuSans-4f" d="M 2522 4238 
Q 1834 4238 1429 3725 
Q 1025 3213 1025 2328 
Q 1025 1447 1429 934 
Q 1834 422 2522 422 
Q 3209 422 3611 934 
Q 4013 1447 4013 2328 
Q 4013 3213 3611 3725 
Q 3209 4238 2522 4238 
z
M 2522 4750 
Q 3503 4750 4090 4092 
Q 4678 3434 4678 2328 
Q 4678 1225 4090 567 
Q 3503 -91 2522 -91 
Q 1538 -91 948 565 
Q 359 1222 359 2328 
Q 359 3434 948 4092 
Q 1538 4750 2522 4750 
z
" transform="scale(0.015625)"/>
      <path id="DejaVuSans-3a" d="M 750 794 
L 1409 794 
L 1409 0 
L 750 0 
L 750 794 
z
M 750 3309 
L 1409 3309 
L 1409 2516 
L 750 2516 
L 750 3309 
z
" transform="scale(0.015625)"/>
      <path id="DejaVuSans-20" transform="scale(0.015625)"/>
      <path id="DejaVuSans-Oblique-64" d="M 2675 525 
Q 2444 222 2128 65 
Q 1813 -91 1428 -91 
Q 903 -91 598 267 
Q 294 625 294 1247 
Q 294 1766 478 2236 
Q 663 2706 1013 3078 
Q 1244 3325 1534 3454 
Q 1825 3584 2144 3584 
Q 2481 3584 2739 3421 
Q 2997 3259 3138 2956 
L 3513 4863 
L 4091 4863 
L 3144 0 
L 2566 0 
L 2675 525 
z
M 891 1350 
Q 891 897 1095 644 
Q 1300 391 1663 391 
Q 1931 391 2161 520 
Q 2391 650 2566 903 
Q 2750 1166 2856 1509 
Q 2963 1853 2963 2188 
Q 2963 2622 2758 2865 
Q 2553 3109 2194 3109 
Q 1922 3109 1687 2981 
Q 1453 2853 1288 2613 
Q 1106 2353 998 2009 
Q 891 1666 891 1350 
z
" transform="scale(0.015625)"/>
      <path id="DejaVuSans-Oblique-49" d="M 1081 4666 
L 1716 4666 
L 806 0 
L 172 0 
L 1081 4666 
z
" transform="scale(0.015625)"/>
      <path id="DejaVuSans-Oblique-74" d="M 2706 3500 
L 2619 3053 
L 1472 3053 
L 1100 1153 
Q 1081 1047 1072 975 
Q 1063 903 1063 863 
Q 1063 663 1183 572 
Q 1303 481 1569 481 
L 2150 481 
L 2053 0 
L 1503 0 
Q 991 0 739 200 
Q 488 400 488 806 
Q 488 878 497 964 
Q 506 1050 525 1153 
L 897 3053 
L 409 3053 
L 500 3500 
L 978 3500 
L 1172 4494 
L 1747 4494 
L 1556 3500 
L 2706 3500 
z
" transform="scale(0.015625)"/>
      <path id="DejaVuSans-3d" d="M 678 2906 
L 4684 2906 
L 4684 2381 
L 678 2381 
L 678 2906 
z
M 678 1631 
L 4684 1631 
L 4684 1100 
L 678 1100 
L 678 1631 
z
" transform="scale(0.015625)"/>
      <path id="DejaVuSans-35" d="M 691 4666 
L 3169 4666 
L 3169 4134 
L 1269 4134 
L 1269 2991 
Q 1406 3038 1543 3061 
Q 1681 3084 1819 3084 
Q 2600 3084 3056 2656 
Q 3513 2228 3513 1497 
Q 3513 744 3044 326 
Q 2575 -91 1722 -91 
Q 1428 -91 1123 -41 
Q 819 9 494 109 
L 494 744 
Q 775 591 1075 516 
Q 1375 441 1709 441 
Q 2250 441 2565 725 
Q 2881 1009 2881 1497 
Q 2881 1984 2565 2268 
Q 2250 2553 1709 2553 
Q 1456 2553 1204 2497 
Q 953 2441 691 2322 
L 691 4666 
z
" transform="scale(0.015625)"/>
      <path id="DejaVuSans-22c5" d="M 684 2619 
L 1344 2619 
L 1344 1825 
L 684 1825 
L 684 2619 
z
" transform="scale(0.015625)"/>
      <path id="DejaVuSans-Oblique-73" d="M 3200 3397 
L 3091 2853 
Q 2863 2978 2609 3040 
Q 2356 3103 2088 3103 
Q 1634 3103 1373 2948 
Q 1113 2794 1113 2528 
Q 1113 2219 1719 2053 
Q 1766 2041 1788 2034 
L 1972 1978 
Q 2547 1819 2739 1644 
Q 2931 1469 2931 1166 
Q 2931 609 2489 259 
Q 2047 -91 1331 -91 
Q 1053 -91 747 -37 
Q 441 16 72 128 
L 184 722 
Q 500 559 806 475 
Q 1113 391 1394 391 
Q 1816 391 2080 572 
Q 2344 753 2344 1031 
Q 2344 1331 1650 1516 
L 1591 1531 
L 1394 1581 
Q 956 1697 753 1886 
Q 550 2075 550 2369 
Q 550 2928 970 3256 
Q 1391 3584 2113 3584 
Q 2397 3584 2667 3537 
Q 2938 3491 3200 3397 
z
" transform="scale(0.015625)"/>
      <path id="DejaVuSans-Oblique-65" d="M 3078 2063 
Q 3088 2113 3092 2166 
Q 3097 2219 3097 2272 
Q 3097 2653 2873 2875 
Q 2650 3097 2266 3097 
Q 1838 3097 1509 2826 
Q 1181 2556 1013 2059 
L 3078 2063 
z
M 3578 1613 
L 903 1613 
Q 884 1494 878 1425 
Q 872 1356 872 1306 
Q 872 872 1139 634 
Q 1406 397 1894 397 
Q 2269 397 2603 481 
Q 2938 566 3225 728 
L 3116 159 
Q 2806 34 2476 -28 
Q 2147 -91 1806 -91 
Q 1078 -91 686 257 
Q 294 606 294 1247 
Q 294 1794 489 2264 
Q 684 2734 1063 3103 
Q 1306 3334 1642 3459 
Q 1978 3584 2356 3584 
Q 2950 3584 3301 3228 
Q 3653 2872 3653 2272 
Q 3653 2128 3634 1964 
Q 3616 1800 3578 1613 
z
" transform="scale(0.015625)"/>
      <path id="DejaVuSans-Oblique-6e" d="M 3566 2113 
L 3156 0 
L 2578 0 
L 2988 2091 
Q 3016 2238 3031 2350 
Q 3047 2463 3047 2528 
Q 3047 2791 2881 2937 
Q 2716 3084 2419 3084 
Q 1956 3084 1622 2776 
Q 1288 2469 1184 1941 
L 800 0 
L 225 0 
L 903 3500 
L 1478 3500 
L 1363 2950 
Q 1603 3253 1940 3418 
Q 2278 3584 2650 3584 
Q 3113 3584 3367 3334 
Q 3622 3084 3622 2631 
Q 3622 2519 3608 2391 
Q 3594 2263 3566 2113 
z
" transform="scale(0.015625)"/>
      <path id="DejaVuSans-28" d="M 1984 4856 
Q 1566 4138 1362 3434 
Q 1159 2731 1159 2009 
Q 1159 1288 1364 580 
Q 1569 -128 1984 -844 
L 1484 -844 
Q 1016 -109 783 600 
Q 550 1309 550 2009 
Q 550 2706 781 3412 
Q 1013 4119 1484 4856 
L 1984 4856 
z
" transform="scale(0.015625)"/>
      <path id="DejaVuSans-33" d="M 2597 2516 
Q 3050 2419 3304 2112 
Q 3559 1806 3559 1356 
Q 3559 666 3084 287 
Q 2609 -91 1734 -91 
Q 1441 -91 1130 -33 
Q 819 25 488 141 
L 488 750 
Q 750 597 1062 519 
Q 1375 441 1716 441 
Q 2309 441 2620 675 
Q 2931 909 2931 1356 
Q 2931 1769 2642 2001 
Q 2353 2234 1838 2234 
L 1294 2234 
L 1294 2753 
L 1863 2753 
Q 2328 2753 2575 2939 
Q 2822 3125 2822 3475 
Q 2822 3834 2567 4026 
Q 2313 4219 1838 4219 
Q 1578 4219 1281 4162 
Q 984 4106 628 3988 
L 628 4550 
Q 988 4650 1302 4700 
Q 1616 4750 1894 4750 
Q 2613 4750 3031 4423 
Q 3450 4097 3450 3541 
Q 3450 3153 3228 2886 
Q 3006 2619 2597 2516 
z
" transform="scale(0.015625)"/>
      <path id="DejaVuSans-29" d="M 513 4856 
L 1013 4856 
Q 1481 4119 1714 3412 
Q 1947 2706 1947 2009 
Q 1947 1309 1714 600 
Q 1481 -109 1013 -844 
L 513 -844 
Q 928 -128 1133 580 
Q 1338 1288 1338 2009 
Q 1338 2731 1133 3434 
Q 928 4138 513 4856 
z
" transform="scale(0.015625)"/>
      <path id="DejaVuSans-50" d="M 1259 4147 
L 1259 2394 
L 2053 2394 
Q 2494 2394 2734 2622 
Q 2975 2850 2975 3272 
Q 2975 3691 2734 3919 
Q 2494 4147 2053 4147 
L 1259 4147 
z
M 628 4666 
L 2053 4666 
Q 2838 4666 3239 4311 
Q 3641 3956 3641 3272 
Q 3641 2581 3239 2228 
Q 2838 1875 2053 1875 
L 1259 1875 
L 1259 0 
L 628 0 
L 628 4666 
z
" transform="scale(0.015625)"/>
      <path id="DejaVuSans-56" d="M 1831 0 
L 50 4666 
L 709 4666 
L 2188 738 
L 3669 4666 
L 4325 4666 
L 2547 0 
L 1831 0 
z
" transform="scale(0.015625)"/>
      <path id="DejaVuSans-49" d="M 628 4666 
L 1259 4666 
L 1259 0 
L 628 0 
L 628 4666 
z
" transform="scale(0.015625)"/>
     </defs>
     <use xlink:href="#DejaVuSans-45" transform="translate(0 0.796875)"/>
     <use xlink:href="#DejaVuSans-44" transform="translate(63.183594 0.796875)"/>
     <use xlink:href="#DejaVuSans-4f" transform="translate(140.185547 0.796875)"/>
     <use xlink:href="#DejaVuSans-3a" transform="translate(218.896484 0.796875)"/>
     <use xlink:href="#DejaVuSans-20" transform="translate(252.587891 0.796875)"/>
     <use xlink:href="#DejaVuSans-Oblique-64" transform="translate(289.375 46.015625)"/>
     <use xlink:href="#DejaVuSans-Oblique-49" transform="translate(352.851562 46.015625)"/>
     <use xlink:href="#DejaVuSans-Oblique-64" transform="translate(284.375 -62.640625)"/>
     <use xlink:href="#DejaVuSans-Oblique-74" transform="translate(347.851562 -62.640625)"/>
     <use xlink:href="#DejaVuSans-3d" transform="translate(419.042969 0.796875)"/>
     <use xlink:href="#DejaVuSans-31" transform="translate(522.314453 0.796875)"/>
     <use xlink:href="#DejaVuSans-35" transform="translate(585.9375 0.796875)"/>
     <use xlink:href="#DejaVuSans-22c5" transform="translate(669.042969 0.796875)"/>
     <use xlink:href="#DejaVuSans-Oblique-73" transform="translate(720.3125 0.796875)"/>
     <use xlink:href="#DejaVuSans-Oblique-65" transform="translate(772.412109 0.796875)"/>
     <use xlink:href="#DejaVuSans-Oblique-6e" transform="translate(833.935547 0.796875)"/>
     <use xlink:href="#DejaVuSans-28" transform="translate(897.314453 0.796875)"/>
     <use xlink:href="#DejaVuSans-33" transform="translate(936.328125 0.796875)"/>
     <use xlink:href="#DejaVuSans-30" transform="translate(999.951172 0.796875)"/>
     <use xlink:href="#DejaVuSans-22c5" transform="translate(1083.056641 0.796875)"/>
     <use xlink:href="#DejaVuSans-Oblique-74" transform="translate(1134.326172 0.796875)"/>
     <use xlink:href="#DejaVuSans-29" transform="translate(1173.535156 0.796875)"/>
     <use xlink:href="#DejaVuSans-2212" transform="translate(1232.03125 0.796875)"/>
     <use xlink:href="#DejaVuSans-33" transform="translate(1335.302734 0.796875)"/>
     <use xlink:href="#DejaVuSans-22c5" transform="translate(1418.408203 0.796875)"/>
     <use xlink:href="#DejaVuSans-Oblique-49" transform="translate(1469.677734 0.796875)"/>
     <use xlink:href="#DejaVuSans-20" transform="translate(1499.169922 0.796875)"/>
     <use xlink:href="#DejaVuSans-20" transform="translate(1530.957031 0.796875)"/>
     <use xlink:href="#DejaVuSans-20" transform="translate(1562.744141 0.796875)"/>
     <use xlink:href="#DejaVuSans-20" transform="translate(1594.53125 0.796875)"/>
     <use xlink:href="#DejaVuSans-20" transform="translate(1626.318359 0.796875)"/>
     <use xlink:href="#DejaVuSans-20" transform="translate(1658.105469 0.796875)"/>
     <use xlink:href="#DejaVuSans-20" transform="translate(1689.892578 0.796875)"/>
     <use xlink:href="#DejaVuSans-20" transform="translate(1721.679688 0.796875)"/>
     <use xlink:href="#DejaVuSans-50" transform="translate(1753.466797 0.796875)"/>
     <use xlink:href="#DejaVuSans-56" transform="translate(1813.769531 0.796875)"/>
     <use xlink:href="#DejaVuSans-49" transform="translate(1882.177734 0.796875)"/>
     <use xlink:href="#DejaVuSans-3a" transform="translate(1911.669922 0.796875)"/>
     <use xlink:href="#DejaVuSans-20" transform="translate(1945.361328 0.796875)"/>
     <use xlink:href="#DejaVuSans-49" transform="translate(1977.148438 0.796875)"/>
     <use xlink:href="#DejaVuSans-28" transform="translate(2006.640625 0.796875)"/>
     <use xlink:href="#DejaVuSans-30" transform="translate(2045.654297 0.796875)"/>
     <use xlink:href="#DejaVuSans-29" transform="translate(2109.277344 0.796875)"/>
     <use xlink:href="#DejaVuSans-3d" transform="translate(2148.291016 0.796875)"/>
     <use xlink:href="#DejaVuSans-30" transform="translate(2232.080078 0.796875)"/>
     <path d="M 284.375 19.59375 
L 284.375 25.84375 
L 387.060547 25.84375 
L 387.060547 19.59375 
L 284.375 19.59375 
z
"/>
    </g>
   </g>
   <g id="legend_1">
    <g id="patch_7">
     <path d="M 478.267187 75.522812 
L 595.960938 75.522812 
Q 597.960938 75.522812 597.960938 73.522812 
L 597.960938 29.44 
Q 597.960938 27.44 595.960938 27.44 
L 478.267187 27.44 
Q 476.267187 27.44 476.267187 29.44 
L 476.267187 73.522812 
Q 476.267187 75.522812 478.267187 75.522812 
z
" style="fill: #ffffff; opacity: 0.8; stroke: #cccccc; stroke-linejoin: miter"/>
    </g>
    <g id="line2d_30">
     <path d="M 480.267187 35.786875 
L 490.267187 35.786875 
L 500.267187 35.786875 
" style="fill: none; stroke: #0000ff; stroke-width: 1.5; stroke-linecap: square"/>
    </g>
    <g id="text_17">
     <!-- Solução Analítica -->
     <g transform="translate(508.267187 39.286875) scale(0.1 -0.1)">
      <defs>
       <path id="DejaVuSans-53" d="M 3425 4513 
L 3425 3897 
Q 3066 4069 2747 4153 
Q 2428 4238 2131 4238 
Q 1616 4238 1336 4038 
Q 1056 3838 1056 3469 
Q 1056 3159 1242 3001 
Q 1428 2844 1947 2747 
L 2328 2669 
Q 3034 2534 3370 2195 
Q 3706 1856 3706 1288 
Q 3706 609 3251 259 
Q 2797 -91 1919 -91 
Q 1588 -91 1214 -16 
Q 841 59 441 206 
L 441 856 
Q 825 641 1194 531 
Q 1563 422 1919 422 
Q 2459 422 2753 634 
Q 3047 847 3047 1241 
Q 3047 1584 2836 1778 
Q 2625 1972 2144 2069 
L 1759 2144 
Q 1053 2284 737 2584 
Q 422 2884 422 3419 
Q 422 4038 858 4394 
Q 1294 4750 2059 4750 
Q 2388 4750 2728 4690 
Q 3069 4631 3425 4513 
z
" transform="scale(0.015625)"/>
       <path id="DejaVuSans-6f" d="M 1959 3097 
Q 1497 3097 1228 2736 
Q 959 2375 959 1747 
Q 959 1119 1226 758 
Q 1494 397 1959 397 
Q 2419 397 2687 759 
Q 2956 1122 2956 1747 
Q 2956 2369 2687 2733 
Q 2419 3097 1959 3097 
z
M 1959 3584 
Q 2709 3584 3137 3096 
Q 3566 2609 3566 1747 
Q 3566 888 3137 398 
Q 2709 -91 1959 -91 
Q 1206 -91 779 398 
Q 353 888 353 1747 
Q 353 2609 779 3096 
Q 1206 3584 1959 3584 
z
" transform="scale(0.015625)"/>
       <path id="DejaVuSans-6c" d="M 603 4863 
L 1178 4863 
L 1178 0 
L 603 0 
L 603 4863 
z
" transform="scale(0.015625)"/>
       <path id="DejaVuSans-75" d="M 544 1381 
L 544 3500 
L 1119 3500 
L 1119 1403 
Q 1119 906 1312 657 
Q 1506 409 1894 409 
Q 2359 409 2629 706 
Q 2900 1003 2900 1516 
L 2900 3500 
L 3475 3500 
L 3475 0 
L 2900 0 
L 2900 538 
Q 2691 219 2414 64 
Q 2138 -91 1772 -91 
Q 1169 -91 856 284 
Q 544 659 544 1381 
z
M 1991 3584 
L 1991 3584 
z
" transform="scale(0.015625)"/>
       <path id="DejaVuSans-e7" d="M 3122 3366 
L 3122 2828 
Q 2878 2963 2633 3030 
Q 2388 3097 2138 3097 
Q 1578 3097 1268 2742 
Q 959 2388 959 1747 
Q 959 1106 1268 751 
Q 1578 397 2138 397 
Q 2388 397 2633 464 
Q 2878 531 3122 666 
L 3122 134 
Q 2881 22 2623 -34 
Q 2366 -91 2075 -91 
Q 1284 -91 818 406 
Q 353 903 353 1747 
Q 353 2603 823 3093 
Q 1294 3584 2113 3584 
Q 2378 3584 2631 3529 
Q 2884 3475 3122 3366 
z
M 2311 0 
Q 2482 -194 2566 -358 
Q 2651 -522 2651 -672 
Q 2651 -950 2463 -1092 
Q 2276 -1234 1907 -1234 
Q 1764 -1234 1628 -1215 
Q 1492 -1197 1357 -1159 
L 1357 -750 
Q 1464 -803 1579 -826 
Q 1695 -850 1842 -850 
Q 2026 -850 2120 -775 
Q 2214 -700 2214 -556 
Q 2214 -463 2146 -327 
Q 2079 -191 1939 0 
L 2311 0 
z
" transform="scale(0.015625)"/>
       <path id="DejaVuSans-e3" d="M 2194 1759 
Q 1497 1759 1228 1600 
Q 959 1441 959 1056 
Q 959 750 1161 570 
Q 1363 391 1709 391 
Q 2188 391 2477 730 
Q 2766 1069 2766 1631 
L 2766 1759 
L 2194 1759 
z
M 3341 1997 
L 3341 0 
L 2766 0 
L 2766 531 
Q 2569 213 2275 61 
Q 1981 -91 1556 -91 
Q 1019 -91 701 211 
Q 384 513 384 1019 
Q 384 1609 779 1909 
Q 1175 2209 1959 2209 
L 2766 2209 
L 2766 2266 
Q 2766 2663 2505 2880 
Q 2244 3097 1772 3097 
Q 1472 3097 1187 3025 
Q 903 2953 641 2809 
L 641 3341 
Q 956 3463 1253 3523 
Q 1550 3584 1831 3584 
Q 2591 3584 2966 3190 
Q 3341 2797 3341 1997 
z
M 1844 4281 
L 1665 4453 
Q 1597 4516 1545 4545 
Q 1494 4575 1453 4575 
Q 1334 4575 1278 4461 
Q 1222 4347 1215 4091 
L 825 4091 
Q 831 4513 990 4742 
Q 1150 4972 1434 4972 
Q 1553 4972 1653 4928 
Q 1753 4884 1869 4781 
L 2047 4609 
Q 2115 4547 2167 4517 
Q 2219 4488 2259 4488 
Q 2378 4488 2434 4602 
Q 2490 4716 2497 4972 
L 2887 4972 
Q 2881 4550 2721 4320 
Q 2562 4091 2278 4091 
Q 2159 4091 2059 4134 
Q 1959 4178 1844 4281 
z
" transform="scale(0.015625)"/>
       <path id="DejaVuSans-41" d="M 2188 4044 
L 1331 1722 
L 3047 1722 
L 2188 4044 
z
M 1831 4666 
L 2547 4666 
L 4325 0 
L 3669 0 
L 3244 1197 
L 1141 1197 
L 716 0 
L 50 0 
L 1831 4666 
z
" transform="scale(0.015625)"/>
       <path id="DejaVuSans-6e" d="M 3513 2113 
L 3513 0 
L 2938 0 
L 2938 2094 
Q 2938 2591 2744 2837 
Q 2550 3084 2163 3084 
Q 1697 3084 1428 2787 
Q 1159 2491 1159 1978 
L 1159 0 
L 581 0 
L 581 3500 
L 1159 3500 
L 1159 2956 
Q 1366 3272 1645 3428 
Q 1925 3584 2291 3584 
Q 2894 3584 3203 3211 
Q 3513 2838 3513 2113 
z
" transform="scale(0.015625)"/>
       <path id="DejaVuSans-61" d="M 2194 1759 
Q 1497 1759 1228 1600 
Q 959 1441 959 1056 
Q 959 750 1161 570 
Q 1363 391 1709 391 
Q 2188 391 2477 730 
Q 2766 1069 2766 1631 
L 2766 1759 
L 2194 1759 
z
M 3341 1997 
L 3341 0 
L 2766 0 
L 2766 531 
Q 2569 213 2275 61 
Q 1981 -91 1556 -91 
Q 1019 -91 701 211 
Q 384 513 384 1019 
Q 384 1609 779 1909 
Q 1175 2209 1959 2209 
L 2766 2209 
L 2766 2266 
Q 2766 2663 2505 2880 
Q 2244 3097 1772 3097 
Q 1472 3097 1187 3025 
Q 903 2953 641 2809 
L 641 3341 
Q 956 3463 1253 3523 
Q 1550 3584 1831 3584 
Q 2591 3584 2966 3190 
Q 3341 2797 3341 1997 
z
" transform="scale(0.015625)"/>
       <path id="DejaVuSans-ed" d="M 1322 5119 
L 1944 5119 
L 926 3944 
L 447 3944 
L 1322 5119 
z
M 603 3500 
L 1178 3500 
L 1178 0 
L 603 0 
L 603 3500 
z
M 891 3584 
L 891 3584 
z
" transform="scale(0.015625)"/>
       <path id="DejaVuSans-74" d="M 1172 4494 
L 1172 3500 
L 2356 3500 
L 2356 3053 
L 1172 3053 
L 1172 1153 
Q 1172 725 1289 603 
Q 1406 481 1766 481 
L 2356 481 
L 2356 0 
L 1766 0 
Q 1100 0 847 248 
Q 594 497 594 1153 
L 594 3053 
L 172 3053 
L 172 3500 
L 594 3500 
L 594 4494 
L 1172 4494 
z
" transform="scale(0.015625)"/>
       <path id="DejaVuSans-69" d="M 603 3500 
L 1178 3500 
L 1178 0 
L 603 0 
L 603 3500 
z
M 603 4863 
L 1178 4863 
L 1178 4134 
L 603 4134 
L 603 4863 
z
" transform="scale(0.015625)"/>
       <path id="DejaVuSans-63" d="M 3122 3366 
L 3122 2828 
Q 2878 2963 2633 3030 
Q 2388 3097 2138 3097 
Q 1578 3097 1268 2742 
Q 959 2388 959 1747 
Q 959 1106 1268 751 
Q 1578 397 2138 397 
Q 2388 397 2633 464 
Q 2878 531 3122 666 
L 3122 134 
Q 2881 22 2623 -34 
Q 2366 -91 2075 -91 
Q 1284 -91 818 406 
Q 353 903 353 1747 
Q 353 2603 823 3093 
Q 1294 3584 2113 3584 
Q 2378 3584 2631 3529 
Q 2884 3475 3122 3366 
z
" transform="scale(0.015625)"/>
      </defs>
      <use xlink:href="#DejaVuSans-53"/>
      <use xlink:href="#DejaVuSans-6f" transform="translate(63.476562 0)"/>
      <use xlink:href="#DejaVuSans-6c" transform="translate(124.658203 0)"/>
      <use xlink:href="#DejaVuSans-75" transform="translate(152.441406 0)"/>
      <use xlink:href="#DejaVuSans-e7" transform="translate(215.820312 0)"/>
      <use xlink:href="#DejaVuSans-e3" transform="translate(270.800781 0)"/>
      <use xlink:href="#DejaVuSans-6f" transform="translate(332.080078 0)"/>
      <use xlink:href="#DejaVuSans-20" transform="translate(393.261719 0)"/>
      <use xlink:href="#DejaVuSans-41" transform="translate(425.048828 0)"/>
      <use xlink:href="#DejaVuSans-6e" transform="translate(493.457031 0)"/>
      <use xlink:href="#DejaVuSans-61" transform="translate(556.835938 0)"/>
      <use xlink:href="#DejaVuSans-6c" transform="translate(618.115234 0)"/>
      <use xlink:href="#DejaVuSans-ed" transform="translate(645.898438 0)"/>
      <use xlink:href="#DejaVuSans-74" transform="translate(673.681641 0)"/>
      <use xlink:href="#DejaVuSans-69" transform="translate(712.890625 0)"/>
      <use xlink:href="#DejaVuSans-63" transform="translate(740.673828 0)"/>
      <use xlink:href="#DejaVuSans-61" transform="translate(795.654297 0)"/>
     </g>
    </g>
    <g id="line2d_31">
     <path d="M 480.267187 50.865 
L 490.267187 50.865 
L 500.267187 50.865 
" style="fill: none; stroke: #ff0000; stroke-width: 1.5; stroke-linecap: square"/>
    </g>
    <g id="text_18">
     <!-- Euler Explícito -->
     <g transform="translate(508.267187 54.365) scale(0.1 -0.1)">
      <defs>
       <path id="DejaVuSans-65" d="M 3597 1894 
L 3597 1613 
L 953 1613 
Q 991 1019 1311 708 
Q 1631 397 2203 397 
Q 2534 397 2845 478 
Q 3156 559 3463 722 
L 3463 178 
Q 3153 47 2828 -22 
Q 2503 -91 2169 -91 
Q 1331 -91 842 396 
Q 353 884 353 1716 
Q 353 2575 817 3079 
Q 1281 3584 2069 3584 
Q 2775 3584 3186 3129 
Q 3597 2675 3597 1894 
z
M 3022 2063 
Q 3016 2534 2758 2815 
Q 2500 3097 2075 3097 
Q 1594 3097 1305 2825 
Q 1016 2553 972 2059 
L 3022 2063 
z
" transform="scale(0.015625)"/>
       <path id="DejaVuSans-72" d="M 2631 2963 
Q 2534 3019 2420 3045 
Q 2306 3072 2169 3072 
Q 1681 3072 1420 2755 
Q 1159 2438 1159 1844 
L 1159 0 
L 581 0 
L 581 3500 
L 1159 3500 
L 1159 2956 
Q 1341 3275 1631 3429 
Q 1922 3584 2338 3584 
Q 2397 3584 2469 3576 
Q 2541 3569 2628 3553 
L 2631 2963 
z
" transform="scale(0.015625)"/>
       <path id="DejaVuSans-70" d="M 1159 525 
L 1159 -1331 
L 581 -1331 
L 581 3500 
L 1159 3500 
L 1159 2969 
Q 1341 3281 1617 3432 
Q 1894 3584 2278 3584 
Q 2916 3584 3314 3078 
Q 3713 2572 3713 1747 
Q 3713 922 3314 415 
Q 2916 -91 2278 -91 
Q 1894 -91 1617 61 
Q 1341 213 1159 525 
z
M 3116 1747 
Q 3116 2381 2855 2742 
Q 2594 3103 2138 3103 
Q 1681 3103 1420 2742 
Q 1159 2381 1159 1747 
Q 1159 1113 1420 752 
Q 1681 391 2138 391 
Q 2594 391 2855 752 
Q 3116 1113 3116 1747 
z
" transform="scale(0.015625)"/>
      </defs>
      <use xlink:href="#DejaVuSans-45"/>
      <use xlink:href="#DejaVuSans-75" transform="translate(63.183594 0)"/>
      <use xlink:href="#DejaVuSans-6c" transform="translate(126.5625 0)"/>
      <use xlink:href="#DejaVuSans-65" transform="translate(154.345703 0)"/>
      <use xlink:href="#DejaVuSans-72" transform="translate(215.869141 0)"/>
      <use xlink:href="#DejaVuSans-20" transform="translate(256.982422 0)"/>
      <use xlink:href="#DejaVuSans-45" transform="translate(288.769531 0)"/>
      <use xlink:href="#DejaVuSans-78" transform="translate(351.953125 0)"/>
      <use xlink:href="#DejaVuSans-70" transform="translate(411.132812 0)"/>
      <use xlink:href="#DejaVuSans-6c" transform="translate(474.609375 0)"/>
      <use xlink:href="#DejaVuSans-ed" transform="translate(502.392578 0)"/>
      <use xlink:href="#DejaVuSans-63" transform="translate(530.175781 0)"/>
      <use xlink:href="#DejaVuSans-69" transform="translate(585.15625 0)"/>
      <use xlink:href="#DejaVuSans-74" transform="translate(612.939453 0)"/>
      <use xlink:href="#DejaVuSans-6f" transform="translate(652.148438 0)"/>
     </g>
    </g>
    <g id="line2d_32">
     <path d="M 480.267187 65.943125 
L 490.267187 65.943125 
L 500.267187 65.943125 
" style="fill: none; stroke: #008000; stroke-width: 1.5; stroke-linecap: square"/>
    </g>
    <g id="text_19">
     <!-- Euler Implícito -->
     <g transform="translate(508.267187 69.443125) scale(0.1 -0.1)">
      <defs>
       <path id="DejaVuSans-6d" d="M 3328 2828 
Q 3544 3216 3844 3400 
Q 4144 3584 4550 3584 
Q 5097 3584 5394 3201 
Q 5691 2819 5691 2113 
L 5691 0 
L 5113 0 
L 5113 2094 
Q 5113 2597 4934 2840 
Q 4756 3084 4391 3084 
Q 3944 3084 3684 2787 
Q 3425 2491 3425 1978 
L 3425 0 
L 2847 0 
L 2847 2094 
Q 2847 2600 2669 2842 
Q 2491 3084 2119 3084 
Q 1678 3084 1418 2786 
Q 1159 2488 1159 1978 
L 1159 0 
L 581 0 
L 581 3500 
L 1159 3500 
L 1159 2956 
Q 1356 3278 1631 3431 
Q 1906 3584 2284 3584 
Q 2666 3584 2933 3390 
Q 3200 3197 3328 2828 
z
" transform="scale(0.015625)"/>
      </defs>
      <use xlink:href="#DejaVuSans-45"/>
      <use xlink:href="#DejaVuSans-75" transform="translate(63.183594 0)"/>
      <use xlink:href="#DejaVuSans-6c" transform="translate(126.5625 0)"/>
      <use xlink:href="#DejaVuSans-65" transform="translate(154.345703 0)"/>
      <use xlink:href="#DejaVuSans-72" transform="translate(215.869141 0)"/>
      <use xlink:href="#DejaVuSans-20" transform="translate(256.982422 0)"/>
      <use xlink:href="#DejaVuSans-49" transform="translate(288.769531 0)"/>
      <use xlink:href="#DejaVuSans-6d" transform="translate(318.261719 0)"/>
      <use xlink:href="#DejaVuSans-70" transform="translate(415.673828 0)"/>
      <use xlink:href="#DejaVuSans-6c" transform="translate(479.150391 0)"/>
      <use xlink:href="#DejaVuSans-ed" transform="translate(506.933594 0)"/>
      <use xlink:href="#DejaVuSans-63" transform="translate(534.716797 0)"/>
      <use xlink:href="#DejaVuSans-69" transform="translate(589.697266 0)"/>
      <use xlink:href="#DejaVuSans-74" transform="translate(617.480469 0)"/>
      <use xlink:href="#DejaVuSans-6f" transform="translate(656.689453 0)"/>
     </g>
    </g>
   </g>
  </g>
 </g>
 <defs>
  <clipPath id="p4e8b299314">
   <rect x="44.960938" y="22.44" width="558" height="332.64"/>
  </clipPath>
 </defs>
</svg>
