<?xml version="1.0" encoding="utf-8" standalone="no"?>
<!DOCTYPE svg PUBLIC "-//W3C//DTD SVG 1.1//EN"
  "http://www.w3.org/Graphics/SVG/1.1/DTD/svg11.dtd">
<svg xmlns:xlink="http://www.w3.org/1999/xlink" width="591.403125pt" height="385.43625pt" viewBox="0 0 591.403125 385.43625" xmlns="http://www.w3.org/2000/svg" version="1.1">
 <metadata>
  <rdf:RDF xmlns:dc="http://purl.org/dc/elements/1.1/" xmlns:cc="http://creativecommons.org/ns#" xmlns:rdf="http://www.w3.org/1999/02/22-rdf-syntax-ns#">
   <cc:Work>
    <dc:type rdf:resource="http://purl.org/dc/dcmitype/StillImage"/>
    <dc:date>2025-02-13T22:05:57.745684</dc:date>
    <dc:format>image/svg+xml</dc:format>
    <dc:creator>
     <cc:Agent>
      <dc:title>Matplotlib v3.10.0, https://matplotlib.org/</dc:title>
     </cc:Agent>
    </dc:creator>
   </cc:Work>
  </rdf:RDF>
 </metadata>
 <defs>
  <style type="text/css">*{stroke-linejoin: round; stroke-linecap: butt}</style>
 </defs>
 <g id="figure_1">
  <g id="patch_1">
   <path d="M 0 385.43625 
L 591.403125 385.43625 
L 591.403125 0 
L 0 0 
z
" style="fill: #ffffff"/>
  </g>
  <g id="axes_1">
   <g id="patch_2">
    <path d="M 33.403125 355.08 
L 591.403125 355.08 
L 591.403125 22.44 
L 33.403125 22.44 
z
" style="fill: #ffffff"/>
   </g>
   <g id="matplotlib.axis_1">
    <g id="xtick_1">
     <g id="line2d_1">
      <path d="M 58.766761 355.08 
L 58.766761 22.44 
" clip-path="url(#p29794fcb8a)" style="fill: none; stroke: #b0b0b0; stroke-width: 0.8; stroke-linecap: square"/>
     </g>
     <g id="line2d_2">
      <defs>
       <path id="m4a6c862c99" d="M 0 0 
L 0 3.5 
" style="stroke: #000000; stroke-width: 0.8"/>
      </defs>
      <g>
       <use xlink:href="#m4a6c862c99" x="58.766761" y="355.08" style="stroke: #000000; stroke-width: 0.8"/>
      </g>
     </g>
     <g id="text_1">
      <!-- −1.00 -->
      <g transform="translate(43.444105 369.678438) scale(0.1 -0.1)">
       <defs>
        <path id="DejaVuSans-2212" d="M 678 2272 
L 4684 2272 
L 4684 1741 
L 678 1741 
L 678 2272 
z
" transform="scale(0.015625)"/>
        <path id="DejaVuSans-31" d="M 794 531 
L 1825 531 
L 1825 4091 
L 703 3866 
L 703 4441 
L 1819 4666 
L 2450 4666 
L 2450 531 
L 3481 531 
L 3481 0 
L 794 0 
L 794 531 
z
" transform="scale(0.015625)"/>
        <path id="DejaVuSans-2e" d="M 684 794 
L 1344 794 
L 1344 0 
L 684 0 
L 684 794 
z
" transform="scale(0.015625)"/>
        <path id="DejaVuSans-30" d="M 2034 4250 
Q 1547 4250 1301 3770 
Q 1056 3291 1056 2328 
Q 1056 1369 1301 889 
Q 1547 409 2034 409 
Q 2525 409 2770 889 
Q 3016 1369 3016 2328 
Q 3016 3291 2770 3770 
Q 2525 4250 2034 4250 
z
M 2034 4750 
Q 2819 4750 3233 4129 
Q 3647 3509 3647 2328 
Q 3647 1150 3233 529 
Q 2819 -91 2034 -91 
Q 1250 -91 836 529 
Q 422 1150 422 2328 
Q 422 3509 836 4129 
Q 1250 4750 2034 4750 
z
" transform="scale(0.015625)"/>
       </defs>
       <use xlink:href="#DejaVuSans-2212"/>
       <use xlink:href="#DejaVuSans-31" transform="translate(83.789062 0)"/>
       <use xlink:href="#DejaVuSans-2e" transform="translate(147.412109 0)"/>
       <use xlink:href="#DejaVuSans-30" transform="translate(179.199219 0)"/>
       <use xlink:href="#DejaVuSans-30" transform="translate(242.822266 0)"/>
      </g>
     </g>
    </g>
    <g id="xtick_2">
     <g id="line2d_3">
      <path d="M 122.175852 355.08 
L 122.175852 22.44 
" clip-path="url(#p29794fcb8a)" style="fill: none; stroke: #b0b0b0; stroke-width: 0.8; stroke-linecap: square"/>
     </g>
     <g id="line2d_4">
      <g>
       <use xlink:href="#m4a6c862c99" x="122.175852" y="355.08" style="stroke: #000000; stroke-width: 0.8"/>
      </g>
     </g>
     <g id="text_2">
      <!-- −0.75 -->
      <g transform="translate(106.853196 369.678438) scale(0.1 -0.1)">
       <defs>
        <path id="DejaVuSans-37" d="M 525 4666 
L 3525 4666 
L 3525 4397 
L 1831 0 
L 1172 0 
L 2766 4134 
L 525 4134 
L 525 4666 
z
" transform="scale(0.015625)"/>
        <path id="DejaVuSans-35" d="M 691 4666 
L 3169 4666 
L 3169 4134 
L 1269 4134 
L 1269 2991 
Q 1406 3038 1543 3061 
Q 1681 3084 1819 3084 
Q 2600 3084 3056 2656 
Q 3513 2228 3513 1497 
Q 3513 744 3044 326 
Q 2575 -91 1722 -91 
Q 1428 -91 1123 -41 
Q 819 9 494 109 
L 494 744 
Q 775 591 1075 516 
Q 1375 441 1709 441 
Q 2250 441 2565 725 
Q 2881 1009 2881 1497 
Q 2881 1984 2565 2268 
Q 2250 2553 1709 2553 
Q 1456 2553 1204 2497 
Q 953 2441 691 2322 
L 691 4666 
z
" transform="scale(0.015625)"/>
       </defs>
       <use xlink:href="#DejaVuSans-2212"/>
       <use xlink:href="#DejaVuSans-30" transform="translate(83.789062 0)"/>
       <use xlink:href="#DejaVuSans-2e" transform="translate(147.412109 0)"/>
       <use xlink:href="#DejaVuSans-37" transform="translate(179.199219 0)"/>
       <use xlink:href="#DejaVuSans-35" transform="translate(242.822266 0)"/>
      </g>
     </g>
    </g>
    <g id="xtick_3">
     <g id="line2d_5">
      <path d="M 185.584943 355.08 
L 185.584943 22.44 
" clip-path="url(#p29794fcb8a)" style="fill: none; stroke: #b0b0b0; stroke-width: 0.8; stroke-linecap: square"/>
     </g>
     <g id="line2d_6">
      <g>
       <use xlink:href="#m4a6c862c99" x="185.584943" y="355.08" style="stroke: #000000; stroke-width: 0.8"/>
      </g>
     </g>
     <g id="text_3">
      <!-- −0.50 -->
      <g transform="translate(170.262287 369.678438) scale(0.1 -0.1)">
       <use xlink:href="#DejaVuSans-2212"/>
       <use xlink:href="#DejaVuSans-30" transform="translate(83.789062 0)"/>
       <use xlink:href="#DejaVuSans-2e" transform="translate(147.412109 0)"/>
       <use xlink:href="#DejaVuSans-35" transform="translate(179.199219 0)"/>
       <use xlink:href="#DejaVuSans-30" transform="translate(242.822266 0)"/>
      </g>
     </g>
    </g>
    <g id="xtick_4">
     <g id="line2d_7">
      <path d="M 248.994034 355.08 
L 248.994034 22.44 
" clip-path="url(#p29794fcb8a)" style="fill: none; stroke: #b0b0b0; stroke-width: 0.8; stroke-linecap: square"/>
     </g>
     <g id="line2d_8">
      <g>
       <use xlink:href="#m4a6c862c99" x="248.994034" y="355.08" style="stroke: #000000; stroke-width: 0.8"/>
      </g>
     </g>
     <g id="text_4">
      <!-- −0.25 -->
      <g transform="translate(233.671378 369.678438) scale(0.1 -0.1)">
       <defs>
        <path id="DejaVuSans-32" d="M 1228 531 
L 3431 531 
L 3431 0 
L 469 0 
L 469 531 
Q 828 903 1448 1529 
Q 2069 2156 2228 2338 
Q 2531 2678 2651 2914 
Q 2772 3150 2772 3378 
Q 2772 3750 2511 3984 
Q 2250 4219 1831 4219 
Q 1534 4219 1204 4116 
Q 875 4013 500 3803 
L 500 4441 
Q 881 4594 1212 4672 
Q 1544 4750 1819 4750 
Q 2544 4750 2975 4387 
Q 3406 4025 3406 3419 
Q 3406 3131 3298 2873 
Q 3191 2616 2906 2266 
Q 2828 2175 2409 1742 
Q 1991 1309 1228 531 
z
" transform="scale(0.015625)"/>
       </defs>
       <use xlink:href="#DejaVuSans-2212"/>
       <use xlink:href="#DejaVuSans-30" transform="translate(83.789062 0)"/>
       <use xlink:href="#DejaVuSans-2e" transform="translate(147.412109 0)"/>
       <use xlink:href="#DejaVuSans-32" transform="translate(179.199219 0)"/>
       <use xlink:href="#DejaVuSans-35" transform="translate(242.822266 0)"/>
      </g>
     </g>
    </g>
    <g id="xtick_5">
     <g id="line2d_9">
      <path d="M 312.403125 355.08 
L 312.403125 22.44 
" clip-path="url(#p29794fcb8a)" style="fill: none; stroke: #b0b0b0; stroke-width: 0.8; stroke-linecap: square"/>
     </g>
     <g id="line2d_10">
      <g>
       <use xlink:href="#m4a6c862c99" x="312.403125" y="355.08" style="stroke: #000000; stroke-width: 0.8"/>
      </g>
     </g>
     <g id="text_5">
      <!-- 0.00 -->
      <g transform="translate(301.270312 369.678438) scale(0.1 -0.1)">
       <use xlink:href="#DejaVuSans-30"/>
       <use xlink:href="#DejaVuSans-2e" transform="translate(63.623047 0)"/>
       <use xlink:href="#DejaVuSans-30" transform="translate(95.410156 0)"/>
       <use xlink:href="#DejaVuSans-30" transform="translate(159.033203 0)"/>
      </g>
     </g>
    </g>
    <g id="xtick_6">
     <g id="line2d_11">
      <path d="M 375.812216 355.08 
L 375.812216 22.44 
" clip-path="url(#p29794fcb8a)" style="fill: none; stroke: #b0b0b0; stroke-width: 0.8; stroke-linecap: square"/>
     </g>
     <g id="line2d_12">
      <g>
       <use xlink:href="#m4a6c862c99" x="375.812216" y="355.08" style="stroke: #000000; stroke-width: 0.8"/>
      </g>
     </g>
     <g id="text_6">
      <!-- 0.25 -->
      <g transform="translate(364.679403 369.678438) scale(0.1 -0.1)">
       <use xlink:href="#DejaVuSans-30"/>
       <use xlink:href="#DejaVuSans-2e" transform="translate(63.623047 0)"/>
       <use xlink:href="#DejaVuSans-32" transform="translate(95.410156 0)"/>
       <use xlink:href="#DejaVuSans-35" transform="translate(159.033203 0)"/>
      </g>
     </g>
    </g>
    <g id="xtick_7">
     <g id="line2d_13">
      <path d="M 439.221307 355.08 
L 439.221307 22.44 
" clip-path="url(#p29794fcb8a)" style="fill: none; stroke: #b0b0b0; stroke-width: 0.8; stroke-linecap: square"/>
     </g>
     <g id="line2d_14">
      <g>
       <use xlink:href="#m4a6c862c99" x="439.221307" y="355.08" style="stroke: #000000; stroke-width: 0.8"/>
      </g>
     </g>
     <g id="text_7">
      <!-- 0.50 -->
      <g transform="translate(428.088494 369.678438) scale(0.1 -0.1)">
       <use xlink:href="#DejaVuSans-30"/>
       <use xlink:href="#DejaVuSans-2e" transform="translate(63.623047 0)"/>
       <use xlink:href="#DejaVuSans-35" transform="translate(95.410156 0)"/>
       <use xlink:href="#DejaVuSans-30" transform="translate(159.033203 0)"/>
      </g>
     </g>
    </g>
    <g id="xtick_8">
     <g id="line2d_15">
      <path d="M 502.630398 355.08 
L 502.630398 22.44 
" clip-path="url(#p29794fcb8a)" style="fill: none; stroke: #b0b0b0; stroke-width: 0.8; stroke-linecap: square"/>
     </g>
     <g id="line2d_16">
      <g>
       <use xlink:href="#m4a6c862c99" x="502.630398" y="355.08" style="stroke: #000000; stroke-width: 0.8"/>
      </g>
     </g>
     <g id="text_8">
      <!-- 0.75 -->
      <g transform="translate(491.497585 369.678438) scale(0.1 -0.1)">
       <use xlink:href="#DejaVuSans-30"/>
       <use xlink:href="#DejaVuSans-2e" transform="translate(63.623047 0)"/>
       <use xlink:href="#DejaVuSans-37" transform="translate(95.410156 0)"/>
       <use xlink:href="#DejaVuSans-35" transform="translate(159.033203 0)"/>
      </g>
     </g>
    </g>
    <g id="xtick_9">
     <g id="line2d_17">
      <path d="M 566.039489 355.08 
L 566.039489 22.44 
" clip-path="url(#p29794fcb8a)" style="fill: none; stroke: #b0b0b0; stroke-width: 0.8; stroke-linecap: square"/>
     </g>
     <g id="line2d_18">
      <g>
       <use xlink:href="#m4a6c862c99" x="566.039489" y="355.08" style="stroke: #000000; stroke-width: 0.8"/>
      </g>
     </g>
     <g id="text_9">
      <!-- 1.00 -->
      <g transform="translate(554.906676 369.678438) scale(0.1 -0.1)">
       <use xlink:href="#DejaVuSans-31"/>
       <use xlink:href="#DejaVuSans-2e" transform="translate(63.623047 0)"/>
       <use xlink:href="#DejaVuSans-30" transform="translate(95.410156 0)"/>
       <use xlink:href="#DejaVuSans-30" transform="translate(159.033203 0)"/>
      </g>
     </g>
    </g>
    <g id="text_10">
     <!-- x -->
     <g transform="translate(309.44375 383.356563) scale(0.1 -0.1)">
      <defs>
       <path id="DejaVuSans-78" d="M 3513 3500 
L 2247 1797 
L 3578 0 
L 2900 0 
L 1881 1375 
L 863 0 
L 184 0 
L 1544 1831 
L 300 3500 
L 978 3500 
L 1906 2253 
L 2834 3500 
L 3513 3500 
z
" transform="scale(0.015625)"/>
      </defs>
      <use xlink:href="#DejaVuSans-78"/>
     </g>
    </g>
   </g>
   <g id="matplotlib.axis_2">
    <g id="ytick_1">
     <g id="line2d_19">
      <path d="M 33.403125 326.339816 
L 591.403125 326.339816 
" clip-path="url(#p29794fcb8a)" style="fill: none; stroke: #b0b0b0; stroke-width: 0.8; stroke-linecap: square"/>
     </g>
     <g id="line2d_20">
      <defs>
       <path id="m54ef357b01" d="M 0 0 
L -3.5 0 
" style="stroke: #000000; stroke-width: 0.8"/>
      </defs>
      <g>
       <use xlink:href="#m54ef357b01" x="33.403125" y="326.339816" style="stroke: #000000; stroke-width: 0.8"/>
      </g>
     </g>
     <g id="text_11">
      <!-- 0 -->
      <g transform="translate(20.040625 330.139034) scale(0.1 -0.1)">
       <use xlink:href="#DejaVuSans-30"/>
      </g>
     </g>
    </g>
    <g id="ytick_2">
     <g id="line2d_21">
      <path d="M 33.403125 268.09392 
L 591.403125 268.09392 
" clip-path="url(#p29794fcb8a)" style="fill: none; stroke: #b0b0b0; stroke-width: 0.8; stroke-linecap: square"/>
     </g>
     <g id="line2d_22">
      <g>
       <use xlink:href="#m54ef357b01" x="33.403125" y="268.09392" style="stroke: #000000; stroke-width: 0.8"/>
      </g>
     </g>
     <g id="text_12">
      <!-- 2 -->
      <g transform="translate(20.040625 271.893139) scale(0.1 -0.1)">
       <use xlink:href="#DejaVuSans-32"/>
      </g>
     </g>
    </g>
    <g id="ytick_3">
     <g id="line2d_23">
      <path d="M 33.403125 209.848024 
L 591.403125 209.848024 
" clip-path="url(#p29794fcb8a)" style="fill: none; stroke: #b0b0b0; stroke-width: 0.8; stroke-linecap: square"/>
     </g>
     <g id="line2d_24">
      <g>
       <use xlink:href="#m54ef357b01" x="33.403125" y="209.848024" style="stroke: #000000; stroke-width: 0.8"/>
      </g>
     </g>
     <g id="text_13">
      <!-- 4 -->
      <g transform="translate(20.040625 213.647243) scale(0.1 -0.1)">
       <defs>
        <path id="DejaVuSans-34" d="M 2419 4116 
L 825 1625 
L 2419 1625 
L 2419 4116 
z
M 2253 4666 
L 3047 4666 
L 3047 1625 
L 3713 1625 
L 3713 1100 
L 3047 1100 
L 3047 0 
L 2419 0 
L 2419 1100 
L 313 1100 
L 313 1709 
L 2253 4666 
z
" transform="scale(0.015625)"/>
       </defs>
       <use xlink:href="#DejaVuSans-34"/>
      </g>
     </g>
    </g>
    <g id="ytick_4">
     <g id="line2d_25">
      <path d="M 33.403125 151.602128 
L 591.403125 151.602128 
" clip-path="url(#p29794fcb8a)" style="fill: none; stroke: #b0b0b0; stroke-width: 0.8; stroke-linecap: square"/>
     </g>
     <g id="line2d_26">
      <g>
       <use xlink:href="#m54ef357b01" x="33.403125" y="151.602128" style="stroke: #000000; stroke-width: 0.8"/>
      </g>
     </g>
     <g id="text_14">
      <!-- 6 -->
      <g transform="translate(20.040625 155.401347) scale(0.1 -0.1)">
       <defs>
        <path id="DejaVuSans-36" d="M 2113 2584 
Q 1688 2584 1439 2293 
Q 1191 2003 1191 1497 
Q 1191 994 1439 701 
Q 1688 409 2113 409 
Q 2538 409 2786 701 
Q 3034 994 3034 1497 
Q 3034 2003 2786 2293 
Q 2538 2584 2113 2584 
z
M 3366 4563 
L 3366 3988 
Q 3128 4100 2886 4159 
Q 2644 4219 2406 4219 
Q 1781 4219 1451 3797 
Q 1122 3375 1075 2522 
Q 1259 2794 1537 2939 
Q 1816 3084 2150 3084 
Q 2853 3084 3261 2657 
Q 3669 2231 3669 1497 
Q 3669 778 3244 343 
Q 2819 -91 2113 -91 
Q 1303 -91 875 529 
Q 447 1150 447 2328 
Q 447 3434 972 4092 
Q 1497 4750 2381 4750 
Q 2619 4750 2861 4703 
Q 3103 4656 3366 4563 
z
" transform="scale(0.015625)"/>
       </defs>
       <use xlink:href="#DejaVuSans-36"/>
      </g>
     </g>
    </g>
    <g id="ytick_5">
     <g id="line2d_27">
      <path d="M 33.403125 93.356233 
L 591.403125 93.356233 
" clip-path="url(#p29794fcb8a)" style="fill: none; stroke: #b0b0b0; stroke-width: 0.8; stroke-linecap: square"/>
     </g>
     <g id="line2d_28">
      <g>
       <use xlink:href="#m54ef357b01" x="33.403125" y="93.356233" style="stroke: #000000; stroke-width: 0.8"/>
      </g>
     </g>
     <g id="text_15">
      <!-- 8 -->
      <g transform="translate(20.040625 97.155451) scale(0.1 -0.1)">
       <defs>
        <path id="DejaVuSans-38" d="M 2034 2216 
Q 1584 2216 1326 1975 
Q 1069 1734 1069 1313 
Q 1069 891 1326 650 
Q 1584 409 2034 409 
Q 2484 409 2743 651 
Q 3003 894 3003 1313 
Q 3003 1734 2745 1975 
Q 2488 2216 2034 2216 
z
M 1403 2484 
Q 997 2584 770 2862 
Q 544 3141 544 3541 
Q 544 4100 942 4425 
Q 1341 4750 2034 4750 
Q 2731 4750 3128 4425 
Q 3525 4100 3525 3541 
Q 3525 3141 3298 2862 
Q 3072 2584 2669 2484 
Q 3125 2378 3379 2068 
Q 3634 1759 3634 1313 
Q 3634 634 3220 271 
Q 2806 -91 2034 -91 
Q 1263 -91 848 271 
Q 434 634 434 1313 
Q 434 1759 690 2068 
Q 947 2378 1403 2484 
z
M 1172 3481 
Q 1172 3119 1398 2916 
Q 1625 2713 2034 2713 
Q 2441 2713 2670 2916 
Q 2900 3119 2900 3481 
Q 2900 3844 2670 4047 
Q 2441 4250 2034 4250 
Q 1625 4250 1398 4047 
Q 1172 3844 1172 3481 
z
" transform="scale(0.015625)"/>
       </defs>
       <use xlink:href="#DejaVuSans-38"/>
      </g>
     </g>
    </g>
    <g id="ytick_6">
     <g id="line2d_29">
      <path d="M 33.403125 35.110337 
L 591.403125 35.110337 
" clip-path="url(#p29794fcb8a)" style="fill: none; stroke: #b0b0b0; stroke-width: 0.8; stroke-linecap: square"/>
     </g>
     <g id="line2d_30">
      <g>
       <use xlink:href="#m54ef357b01" x="33.403125" y="35.110337" style="stroke: #000000; stroke-width: 0.8"/>
      </g>
     </g>
     <g id="text_16">
      <!-- 10 -->
      <g transform="translate(13.678125 38.909555) scale(0.1 -0.1)">
       <use xlink:href="#DejaVuSans-31"/>
       <use xlink:href="#DejaVuSans-30" transform="translate(63.623047 0)"/>
      </g>
     </g>
    </g>
    <g id="text_17">
     <!-- y -->
     <g transform="translate(7.598437 191.719375) rotate(-90) scale(0.1 -0.1)">
      <defs>
       <path id="DejaVuSans-79" d="M 2059 -325 
Q 1816 -950 1584 -1140 
Q 1353 -1331 966 -1331 
L 506 -1331 
L 506 -850 
L 844 -850 
Q 1081 -850 1212 -737 
Q 1344 -625 1503 -206 
L 1606 56 
L 191 3500 
L 800 3500 
L 1894 763 
L 2988 3500 
L 3597 3500 
L 2059 -325 
z
" transform="scale(0.015625)"/>
      </defs>
      <use xlink:href="#DejaVuSans-79"/>
     </g>
    </g>
   </g>
   <g id="line2d_31">
    <path d="M 58.766761 37.56 
L 65.875688 49.866115 
L 67.906811 54.042861 
L 69.937933 58.781298 
L 71.969055 64.16719 
L 74.000177 70.240614 
L 76.031299 76.993865 
L 78.570201 86.303624 
L 81.616884 98.469466 
L 90.756933 136.011316 
L 93.295836 145.088774 
L 95.326958 151.512453 
L 97.35808 157.075866 
L 98.881421 160.645583 
L 100.404763 163.687806 
L 101.928105 166.209253 
L 103.451446 168.231621 
L 104.974788 169.790923 
L 106.498129 170.936353 
L 108.021471 171.728723 
L 109.544812 172.238529 
L 111.575934 172.614179 
L 116.653739 173.265895 
L 118.177081 173.719432 
L 119.700422 174.424528 
L 121.223764 175.4421 
L 122.747105 176.821452 
L 124.270447 178.598704 
L 125.793788 180.795655 
L 127.31713 183.419093 
L 128.840471 186.460611 
L 130.871593 191.123965 
L 132.902715 196.393739 
L 135.441618 203.628439 
L 144.073887 229.066706 
L 146.105009 234.159916 
L 148.136131 238.568202 
L 149.659472 241.356458 
L 151.182814 243.664465 
L 152.706155 245.475207 
L 153.721716 246.40452 
L 154.737277 247.114823 
L 155.752838 247.612248 
L 156.768399 247.905801 
L 157.78396 248.007233 
L 158.799521 247.930873 
L 160.322863 247.5201 
L 161.846204 246.81247 
L 163.877326 245.535668 
L 170.478473 241.004144 
L 172.001815 240.359257 
L 173.525156 240.01692 
L 174.540717 239.984625 
L 175.556278 240.125088 
L 176.571839 240.44908 
L 177.5874 240.964578 
L 178.602961 241.676644 
L 179.618522 242.587362 
L 181.141864 244.323057 
L 182.665205 246.487219 
L 184.188547 249.049545 
L 186.219669 253.007677 
L 188.758571 258.627457 
L 193.328596 269.585758 
L 196.375279 276.580537 
L 198.406401 280.729818 
L 199.929743 283.454728 
L 201.453084 285.784891 
L 202.976426 287.676705 
L 204.499767 289.100193 
L 205.515328 289.780793 
L 206.530889 290.245273 
L 207.54645 290.495812 
L 208.562011 290.537564 
L 209.577572 290.378588 
L 210.593133 290.029733 
L 211.608694 289.504481 
L 213.132036 288.421306 
L 214.655377 287.04039 
L 216.686499 284.861407 
L 223.287646 277.341509 
L 224.810987 275.996497 
L 226.334329 274.952839 
L 227.34989 274.453366 
L 228.365451 274.127773 
L 229.381012 273.987604 
L 230.396573 274.04165 
L 231.412134 274.295821 
L 232.427695 274.753064 
L 233.443256 275.41332 
L 234.458817 276.273527 
L 235.982159 277.924786 
L 237.5055 279.979416 
L 239.028842 282.391683 
L 241.059964 286.063167 
L 243.598866 291.149268 
L 249.184452 302.528633 
L 251.215574 306.124761 
L 252.738915 308.459848 
L 254.262257 310.418976 
L 255.785598 311.955766 
L 256.801159 312.728773 
L 257.81672 313.292859 
L 258.832281 313.644732 
L 259.847842 313.784099 
L 260.863403 313.713674 
L 261.878964 313.439137 
L 262.894525 312.969055 
L 263.910087 312.314756 
L 265.433428 311.019037 
L 266.95677 309.397629 
L 268.987892 306.846433 
L 272.034575 302.55901 
L 275.081258 298.310782 
L 277.11238 295.825562 
L 278.635721 294.27008 
L 280.159063 293.049995 
L 281.174624 292.449151 
L 282.190185 292.0331 
L 283.205746 291.811462 
L 284.221307 291.791014 
L 285.236868 291.97559 
L 286.252429 292.366026 
L 287.26799 292.96015 
L 288.283551 293.752816 
L 289.806892 295.295703 
L 291.330234 297.227784 
L 292.853575 299.497502 
L 294.884697 302.939309 
L 297.931381 308.63343 
L 301.993625 316.194986 
L 304.024747 319.525368 
L 305.548088 321.682115 
L 307.07143 323.478374 
L 308.594771 324.865116 
L 309.610332 325.543781 
L 310.625893 326.017014 
L 311.641454 326.280586 
L 312.657015 326.333257 
L 313.672576 326.176797 
L 314.688137 325.815958 
L 315.703698 325.258409 
L 317.22704 324.076898 
L 318.750381 322.52333 
L 320.273723 320.655956 
L 322.304845 317.797152 
L 326.367089 311.51603 
L 328.905992 307.77767 
L 330.937114 305.195071 
L 332.460455 303.606401 
L 333.983797 302.381875 
L 334.999358 301.791223 
L 336.014919 301.393715 
L 337.03048 301.196999 
L 338.046041 301.205804 
L 339.061602 301.421876 
L 340.077163 301.843951 
L 341.092724 302.467775 
L 342.108285 303.286164 
L 343.631626 304.855921 
L 345.154968 306.795398 
L 347.18609 309.856498 
L 349.724992 314.213423 
L 355.310578 324.123695 
L 357.3417 327.229638 
L 358.865041 329.210982 
L 360.388383 330.827227 
L 361.911725 332.030905 
L 362.927286 332.58668 
L 363.942847 332.936981 
L 364.958408 333.078138 
L 365.973969 333.009478 
L 366.98953 332.733335 
L 368.005091 332.255021 
L 369.020652 331.582741 
L 370.543993 330.235392 
L 372.067335 328.524888 
L 374.098457 325.783793 
L 376.637359 321.857107 
L 381.715164 313.766425 
L 383.746286 310.982479 
L 385.269628 309.22917 
L 386.792969 307.830717 
L 387.80853 307.120198 
L 388.824091 306.600648 
L 389.839652 306.28058 
L 390.855213 306.165623 
L 391.870774 306.258435 
L 392.886335 306.55867 
L 393.901896 307.062979 
L 394.917458 307.765063 
L 396.440799 309.16822 
L 397.964141 310.952856 
L 399.487482 313.064303 
L 401.518604 316.273801 
L 405.073068 322.463877 
L 408.119751 327.672156 
L 410.150873 330.75096 
L 411.674214 332.729347 
L 413.197556 334.35514 
L 414.720897 335.578301 
L 415.736458 336.15119 
L 416.752019 336.520864 
L 417.76758 336.682733 
L 418.783141 336.635195 
L 419.798702 336.379655 
L 420.814263 335.920508 
L 421.829824 335.265074 
L 423.353166 333.936805 
L 424.876507 332.235648 
L 426.399849 330.218948 
L 428.430971 327.15707 
L 432.493215 320.452152 
L 435.032118 316.436208 
L 437.06324 313.625447 
L 438.586581 311.86299 
L 440.109923 310.46326 
L 441.125484 309.755469 
L 442.141045 309.240901 
L 443.156606 308.927519 
L 444.172167 308.820378 
L 445.187728 308.921558 
L 446.203289 309.230126 
L 447.21885 309.742157 
L 448.234411 310.450786 
L 449.757752 311.860383 
L 451.281094 313.645909 
L 452.804435 315.751213 
L 454.835557 318.939489 
L 458.390021 325.051423 
L 461.436704 330.149444 
L 463.467826 333.134199 
L 464.991168 335.032846 
L 466.514509 336.572478 
L 468.037851 337.704629 
L 469.053412 338.21501 
L 470.068973 338.521348 
L 471.084534 338.619622 
L 472.100095 338.508804 
L 473.115656 338.190873 
L 474.131217 337.670792 
L 475.146778 336.956429 
L 476.670119 335.544664 
L 478.193461 333.767319 
L 480.224583 330.93186 
L 482.763485 326.87666 
L 488.349071 317.719983 
L 490.380193 314.916935 
L 491.903535 313.170528 
L 493.426876 311.794089 
L 494.442437 311.105048 
L 495.457998 310.611195 
L 496.473559 310.319938 
L 497.48912 310.235763 
L 498.504681 310.360165 
L 499.520242 310.691633 
L 500.535803 311.225668 
L 501.551364 311.954847 
L 503.074706 313.391382 
L 504.598047 315.197717 
L 506.629169 318.080354 
L 509.168072 322.211091 
L 514.753657 331.606607 
L 516.784779 334.519883 
L 518.308121 336.355524 
L 519.831462 337.825602 
L 520.847023 338.578889 
L 521.862584 339.137961 
L 522.878145 339.494974 
L 523.893706 339.644993 
L 524.909268 339.586065 
L 525.924829 339.319243 
L 526.94039 338.848577 
L 527.955951 338.181049 
L 529.479292 336.832861 
L 531.002634 335.108766 
L 532.525975 333.06523 
L 534.557097 329.960285 
L 538.111561 323.997985 
L 541.158244 319.032537 
L 543.189366 316.138099 
L 544.712707 314.307906 
L 546.236049 312.837065 
L 547.25161 312.080456 
L 548.267171 311.516298 
L 549.282732 311.152876 
L 550.298293 310.995583 
L 551.313854 311.046837 
L 552.329415 311.30605 
L 553.344976 311.769634 
L 554.360537 312.431056 
L 555.883878 313.772852 
L 557.40722 315.495062 
L 558.930562 317.542398 
L 560.961684 320.662907 
L 564.516147 326.68537 
L 566.039489 329.270385 
L 566.039489 329.270385 
" clip-path="url(#p29794fcb8a)" style="fill: none; stroke: #0000ff; stroke-width: 1.5; stroke-linecap: square"/>
   </g>
   <g id="line2d_32">
    <path d="M 312.403125 326.339816 
L 314.939489 326.339816 
L 317.475852 325.048853 
L 320.012216 322.620974 
L 322.54858 319.310621 
L 325.084943 315.449938 
L 327.621307 311.419135 
L 330.15767 307.612558 
L 332.694034 304.403496 
L 335.230398 302.110863 
L 337.766761 300.970748 
L 340.303125 301.115345 
L 342.839489 302.561182 
L 345.375852 305.207666 
L 347.912216 308.846097 
L 350.44858 313.178337 
L 352.984943 317.843465 
L 355.521307 322.450043 
L 358.05767 326.611105 
L 360.594034 329.978743 
L 363.130398 332.275213 
L 365.666761 333.317762 
L 368.203125 333.034973 
L 370.739489 331.473167 
L 373.275852 328.792286 
L 375.812216 325.25162 
L 378.34858 321.186667 
L 380.884943 316.979183 
L 383.421307 313.023094 
L 385.95767 309.68933 
L 388.494034 307.292702 
L 391.030398 306.063799 
L 393.566761 306.128408 
L 396.103125 307.496287 
L 398.639489 310.060312 
L 401.175852 313.606059 
L 403.712216 317.830972 
L 406.24858 322.3714 
L 408.784943 326.835098 
L 411.321307 330.836273 
L 413.85767 334.030061 
L 416.394034 336.143341 
L 418.930398 336.999148 
L 421.466761 336.532488 
L 424.003125 334.796154 
L 426.539489 331.956025 
L 429.075852 328.276253 
L 431.612216 324.09568 
L 434.14858 319.797579 
L 436.684943 315.775426 
L 439.221307 312.397761 
L 441.75767 309.975278 
L 444.294034 308.733076 
L 446.830398 308.790563 
L 449.366761 310.150795 
L 451.903125 312.700214 
L 454.439489 316.218795 
L 456.975852 320.399711 
L 459.512216 324.876745 
L 462.04858 329.257012 
L 464.584943 333.15606 
L 467.121307 336.232217 
L 469.65767 338.21712 
L 472.194034 338.939691 
L 474.730398 338.341426 
L 477.266761 336.481626 
L 479.803125 333.532106 
L 482.339489 329.761851 
L 484.875852 325.512994 
L 487.412216 321.170261 
L 489.94858 317.126608 
L 492.484943 313.748122 
L 495.021307 311.341329 
L 497.55767 310.125813 
L 500.094034 310.214607 
L 502.630398 311.6041 
L 505.166761 314.174366 
L 507.703125 317.699874 
L 510.239489 321.869647 
L 512.775852 326.315035 
L 515.312216 330.642657 
L 517.84858 334.469539 
L 520.384943 337.457327 
L 522.921307 339.342519 
L 525.45767 339.96 
L 527.994034 339.2578 
L 530.530398 337.301735 
L 533.066761 334.269532 
L 535.603125 330.434958 
L 538.139489 326.143364 
L 540.675852 321.780843 
L 543.212216 317.739739 
L 545.74858 314.383608 
L 548.284943 312.014738 
L 550.821307 310.847158 
L 553.35767 310.987514 
L 555.894034 312.425546 
L 558.430398 315.035012 
L 560.966761 318.58496 
L 563.503125 322.760363 
L 566.039489 327.190264 
" clip-path="url(#p29794fcb8a)" style="fill: none; stroke: #ff0000; stroke-width: 1.5; stroke-linecap: square"/>
   </g>
   <g id="line2d_33">
    <path d="M 312.403125 326.339816 
L 314.939489 325.086454 
L 317.475852 322.728194 
L 320.012216 319.511136 
L 322.54858 315.75706 
L 325.084943 311.834714 
L 327.621307 308.126904 
L 330.15767 304.996329 
L 332.694034 302.753205 
L 335.230398 301.627588 
L 337.766761 301.748842 
L 340.303125 303.134116 
L 342.839489 305.686831 
L 345.375852 309.205332 
L 347.912216 313.400927 
L 350.44858 317.923694 
L 352.984943 322.393764 
L 355.521307 326.435268 
L 358.05767 329.709941 
L 360.594034 331.947353 
L 363.130398 332.969085 
L 365.666761 332.704689 
L 368.203125 331.197993 
L 370.739489 328.60321 
L 373.275852 325.171177 
L 375.812216 321.226964 
L 378.34858 317.140854 
L 380.884943 313.295283 
L 383.421307 310.05069 
L 385.95767 307.713342 
L 388.494034 306.507981 
L 391.030398 306.557771 
L 393.566761 307.873302 
L 396.103125 310.351666 
L 398.639489 313.785653 
L 401.175852 317.882279 
L 403.712216 322.288968 
L 406.24858 326.625056 
L 408.784943 330.51581 
L 411.321307 333.625908 
L 413.85767 335.689408 
L 416.394034 336.53351 
L 418.930398 336.094004 
L 421.466761 334.421015 
L 424.003125 331.674535 
L 426.539489 328.110139 
L 429.075852 324.056169 
L 431.612216 319.884406 
L 434.14858 315.976874 
L 436.684943 312.69172 
L 439.221307 310.331233 
L 441.75767 309.114844 
L 444.294034 309.159537 
L 446.830398 310.469404 
L 449.366761 312.935288 
L 451.903125 316.344539 
L 454.439489 320.400018 
L 456.975852 324.746645 
L 459.512216 329.003121 
L 462.04858 332.795999 
L 464.584943 335.793046 
L 467.121307 337.732928 
L 469.65767 338.448556 
L 472.194034 337.882021 
L 474.730398 336.089771 
L 477.266761 333.237572 
L 479.803125 329.585709 
L 482.339489 325.465735 
L 484.875852 321.250866 
L 487.412216 317.322642 
L 489.94858 314.036849 
L 492.484943 311.691747 
L 495.021307 310.501428 
L 497.55767 310.576695 
L 500.094034 311.915172 
L 502.630398 314.401515 
L 505.166761 317.817722 
L 507.703125 321.862613 
L 510.239489 326.178729 
L 512.775852 330.384274 
L 515.312216 334.107219 
L 517.84858 337.018537 
L 520.384943 338.8616 
L 522.921307 339.475104 
L 525.45767 338.80748 
L 527.994034 336.921503 
L 530.530398 333.988692 
L 533.066761 330.273984 
L 535.603125 326.112077 
L 538.139489 321.877531 
L 540.675852 317.951313 
L 543.212216 314.68677 
L 545.74858 312.378067 
L 548.284943 311.233912 
L 550.821307 311.358915 
L 553.35767 312.744245 
L 555.894034 315.268425 
L 558.430398 318.708177 
L 560.966761 322.758378 
L 563.503125 327.05931 
L 566.039489 331.2288 
" clip-path="url(#p29794fcb8a)" style="fill: none; stroke: #008000; stroke-width: 1.5; stroke-linecap: square"/>
   </g>
   <g id="patch_3">
    <path d="M 33.403125 355.08 
L 33.403125 22.44 
" style="fill: none; stroke: #000000; stroke-width: 0.8; stroke-linejoin: miter; stroke-linecap: square"/>
   </g>
   <g id="patch_4">
    <path d="M 591.403125 355.08 
L 591.403125 22.44 
" style="fill: none; stroke: #000000; stroke-width: 0.8; stroke-linejoin: miter; stroke-linecap: square"/>
   </g>
   <g id="patch_5">
    <path d="M 33.403125 355.08 
L 591.403125 355.08 
" style="fill: none; stroke: #000000; stroke-width: 0.8; stroke-linejoin: miter; stroke-linecap: square"/>
   </g>
   <g id="patch_6">
    <path d="M 33.403125 22.44 
L 591.403125 22.44 
" style="fill: none; stroke: #000000; stroke-width: 0.8; stroke-linejoin: miter; stroke-linecap: square"/>
   </g>
   <g id="text_18">
    <!-- EDO: $\dfrac{dI}{dt} = 15\cdot sen(30\cdot t) - 3\cdot I$	 PVI: I(0)=0 -->
    <g transform="translate(174.643125 14.64) scale(0.12 -0.12)">
     <defs>
      <path id="DejaVuSans-45" d="M 628 4666 
L 3578 4666 
L 3578 4134 
L 1259 4134 
L 1259 2753 
L 3481 2753 
L 3481 2222 
L 1259 2222 
L 1259 531 
L 3634 531 
L 3634 0 
L 628 0 
L 628 4666 
z
" transform="scale(0.015625)"/>
      <path id="DejaVuSans-44" d="M 1259 4147 
L 1259 519 
L 2022 519 
Q 2988 519 3436 956 
Q 3884 1394 3884 2338 
Q 3884 3275 3436 3711 
Q 2988 4147 2022 4147 
L 1259 4147 
z
M 628 4666 
L 1925 4666 
Q 3281 4666 3915 4102 
Q 4550 3538 4550 2338 
Q 4550 1131 3912 565 
Q 3275 0 1925 0 
L 628 0 
L 628 4666 
z
" transform="scale(0.015625)"/>
      <path id="DejaVuSans-4f" d="M 2522 4238 
Q 1834 4238 1429 3725 
Q 1025 3213 1025 2328 
Q 1025 1447 1429 934 
Q 1834 422 2522 422 
Q 3209 422 3611 934 
Q 4013 1447 4013 2328 
Q 4013 3213 3611 3725 
Q 3209 4238 2522 4238 
z
M 2522 4750 
Q 3503 4750 4090 4092 
Q 4678 3434 4678 2328 
Q 4678 1225 4090 567 
Q 3503 -91 2522 -91 
Q 1538 -91 948 565 
Q 359 1222 359 2328 
Q 359 3434 948 4092 
Q 1538 4750 2522 4750 
z
" transform="scale(0.015625)"/>
      <path id="DejaVuSans-3a" d="M 750 794 
L 1409 794 
L 1409 0 
L 750 0 
L 750 794 
z
M 750 3309 
L 1409 3309 
L 1409 2516 
L 750 2516 
L 750 3309 
z
" transform="scale(0.015625)"/>
      <path id="DejaVuSans-20" transform="scale(0.015625)"/>
      <path id="DejaVuSans-Oblique-64" d="M 2675 525 
Q 2444 222 2128 65 
Q 1813 -91 1428 -91 
Q 903 -91 598 267 
Q 294 625 294 1247 
Q 294 1766 478 2236 
Q 663 2706 1013 3078 
Q 1244 3325 1534 3454 
Q 1825 3584 2144 3584 
Q 2481 3584 2739 3421 
Q 2997 3259 3138 2956 
L 3513 4863 
L 4091 4863 
L 3144 0 
L 2566 0 
L 2675 525 
z
M 891 1350 
Q 891 897 1095 644 
Q 1300 391 1663 391 
Q 1931 391 2161 520 
Q 2391 650 2566 903 
Q 2750 1166 2856 1509 
Q 2963 1853 2963 2188 
Q 2963 2622 2758 2865 
Q 2553 3109 2194 3109 
Q 1922 3109 1687 2981 
Q 1453 2853 1288 2613 
Q 1106 2353 998 2009 
Q 891 1666 891 1350 
z
" transform="scale(0.015625)"/>
      <path id="DejaVuSans-Oblique-49" d="M 1081 4666 
L 1716 4666 
L 806 0 
L 172 0 
L 1081 4666 
z
" transform="scale(0.015625)"/>
      <path id="DejaVuSans-Oblique-74" d="M 2706 3500 
L 2619 3053 
L 1472 3053 
L 1100 1153 
Q 1081 1047 1072 975 
Q 1063 903 1063 863 
Q 1063 663 1183 572 
Q 1303 481 1569 481 
L 2150 481 
L 2053 0 
L 1503 0 
Q 991 0 739 200 
Q 488 400 488 806 
Q 488 878 497 964 
Q 506 1050 525 1153 
L 897 3053 
L 409 3053 
L 500 3500 
L 978 3500 
L 1172 4494 
L 1747 4494 
L 1556 3500 
L 2706 3500 
z
" transform="scale(0.015625)"/>
      <path id="DejaVuSans-3d" d="M 678 2906 
L 4684 2906 
L 4684 2381 
L 678 2381 
L 678 2906 
z
M 678 1631 
L 4684 1631 
L 4684 1100 
L 678 1100 
L 678 1631 
z
" transform="scale(0.015625)"/>
      <path id="DejaVuSans-22c5" d="M 684 2619 
L 1344 2619 
L 1344 1825 
L 684 1825 
L 684 2619 
z
" transform="scale(0.015625)"/>
      <path id="DejaVuSans-Oblique-73" d="M 3200 3397 
L 3091 2853 
Q 2863 2978 2609 3040 
Q 2356 3103 2088 3103 
Q 1634 3103 1373 2948 
Q 1113 2794 1113 2528 
Q 1113 2219 1719 2053 
Q 1766 2041 1788 2034 
L 1972 1978 
Q 2547 1819 2739 1644 
Q 2931 1469 2931 1166 
Q 2931 609 2489 259 
Q 2047 -91 1331 -91 
Q 1053 -91 747 -37 
Q 441 16 72 128 
L 184 722 
Q 500 559 806 475 
Q 1113 391 1394 391 
Q 1816 391 2080 572 
Q 2344 753 2344 1031 
Q 2344 1331 1650 1516 
L 1591 1531 
L 1394 1581 
Q 956 1697 753 1886 
Q 550 2075 550 2369 
Q 550 2928 970 3256 
Q 1391 3584 2113 3584 
Q 2397 3584 2667 3537 
Q 2938 3491 3200 3397 
z
" transform="scale(0.015625)"/>
      <path id="DejaVuSans-Oblique-65" d="M 3078 2063 
Q 3088 2113 3092 2166 
Q 3097 2219 3097 2272 
Q 3097 2653 2873 2875 
Q 2650 3097 2266 3097 
Q 1838 3097 1509 2826 
Q 1181 2556 1013 2059 
L 3078 2063 
z
M 3578 1613 
L 903 1613 
Q 884 1494 878 1425 
Q 872 1356 872 1306 
Q 872 872 1139 634 
Q 1406 397 1894 397 
Q 2269 397 2603 481 
Q 2938 566 3225 728 
L 3116 159 
Q 2806 34 2476 -28 
Q 2147 -91 1806 -91 
Q 1078 -91 686 257 
Q 294 606 294 1247 
Q 294 1794 489 2264 
Q 684 2734 1063 3103 
Q 1306 3334 1642 3459 
Q 1978 3584 2356 3584 
Q 2950 3584 3301 3228 
Q 3653 2872 3653 2272 
Q 3653 2128 3634 1964 
Q 3616 1800 3578 1613 
z
" transform="scale(0.015625)"/>
      <path id="DejaVuSans-Oblique-6e" d="M 3566 2113 
L 3156 0 
L 2578 0 
L 2988 2091 
Q 3016 2238 3031 2350 
Q 3047 2463 3047 2528 
Q 3047 2791 2881 2937 
Q 2716 3084 2419 3084 
Q 1956 3084 1622 2776 
Q 1288 2469 1184 1941 
L 800 0 
L 225 0 
L 903 3500 
L 1478 3500 
L 1363 2950 
Q 1603 3253 1940 3418 
Q 2278 3584 2650 3584 
Q 3113 3584 3367 3334 
Q 3622 3084 3622 2631 
Q 3622 2519 3608 2391 
Q 3594 2263 3566 2113 
z
" transform="scale(0.015625)"/>
      <path id="DejaVuSans-28" d="M 1984 4856 
Q 1566 4138 1362 3434 
Q 1159 2731 1159 2009 
Q 1159 1288 1364 580 
Q 1569 -128 1984 -844 
L 1484 -844 
Q 1016 -109 783 600 
Q 550 1309 550 2009 
Q 550 2706 781 3412 
Q 1013 4119 1484 4856 
L 1984 4856 
z
" transform="scale(0.015625)"/>
      <path id="DejaVuSans-33" d="M 2597 2516 
Q 3050 2419 3304 2112 
Q 3559 1806 3559 1356 
Q 3559 666 3084 287 
Q 2609 -91 1734 -91 
Q 1441 -91 1130 -33 
Q 819 25 488 141 
L 488 750 
Q 750 597 1062 519 
Q 1375 441 1716 441 
Q 2309 441 2620 675 
Q 2931 909 2931 1356 
Q 2931 1769 2642 2001 
Q 2353 2234 1838 2234 
L 1294 2234 
L 1294 2753 
L 1863 2753 
Q 2328 2753 2575 2939 
Q 2822 3125 2822 3475 
Q 2822 3834 2567 4026 
Q 2313 4219 1838 4219 
Q 1578 4219 1281 4162 
Q 984 4106 628 3988 
L 628 4550 
Q 988 4650 1302 4700 
Q 1616 4750 1894 4750 
Q 2613 4750 3031 4423 
Q 3450 4097 3450 3541 
Q 3450 3153 3228 2886 
Q 3006 2619 2597 2516 
z
" transform="scale(0.015625)"/>
      <path id="DejaVuSans-29" d="M 513 4856 
L 1013 4856 
Q 1481 4119 1714 3412 
Q 1947 2706 1947 2009 
Q 1947 1309 1714 600 
Q 1481 -109 1013 -844 
L 513 -844 
Q 928 -128 1133 580 
Q 1338 1288 1338 2009 
Q 1338 2731 1133 3434 
Q 928 4138 513 4856 
z
" transform="scale(0.015625)"/>
      <path id="DejaVuSans-50" d="M 1259 4147 
L 1259 2394 
L 2053 2394 
Q 2494 2394 2734 2622 
Q 2975 2850 2975 3272 
Q 2975 3691 2734 3919 
Q 2494 4147 2053 4147 
L 1259 4147 
z
M 628 4666 
L 2053 4666 
Q 2838 4666 3239 4311 
Q 3641 3956 3641 3272 
Q 3641 2581 3239 2228 
Q 2838 1875 2053 1875 
L 1259 1875 
L 1259 0 
L 628 0 
L 628 4666 
z
" transform="scale(0.015625)"/>
      <path id="DejaVuSans-56" d="M 1831 0 
L 50 4666 
L 709 4666 
L 2188 738 
L 3669 4666 
L 4325 4666 
L 2547 0 
L 1831 0 
z
" transform="scale(0.015625)"/>
      <path id="DejaVuSans-49" d="M 628 4666 
L 1259 4666 
L 1259 0 
L 628 0 
L 628 4666 
z
" transform="scale(0.015625)"/>
     </defs>
     <use xlink:href="#DejaVuSans-45" transform="translate(0 0.796875)"/>
     <use xlink:href="#DejaVuSans-44" transform="translate(63.183594 0.796875)"/>
     <use xlink:href="#DejaVuSans-4f" transform="translate(140.185547 0.796875)"/>
     <use xlink:href="#DejaVuSans-3a" transform="translate(218.896484 0.796875)"/>
     <use xlink:href="#DejaVuSans-20" transform="translate(252.587891 0.796875)"/>
     <use xlink:href="#DejaVuSans-Oblique-64" transform="translate(289.375 46.015625)"/>
     <use xlink:href="#DejaVuSans-Oblique-49" transform="translate(352.851562 46.015625)"/>
     <use xlink:href="#DejaVuSans-Oblique-64" transform="translate(284.375 -62.640625)"/>
     <use xlink:href="#DejaVuSans-Oblique-74" transform="translate(347.851562 -62.640625)"/>
     <use xlink:href="#DejaVuSans-3d" transform="translate(419.042969 0.796875)"/>
     <use xlink:href="#DejaVuSans-31" transform="translate(522.314453 0.796875)"/>
     <use xlink:href="#DejaVuSans-35" transform="translate(585.9375 0.796875)"/>
     <use xlink:href="#DejaVuSans-22c5" transform="translate(669.042969 0.796875)"/>
     <use xlink:href="#DejaVuSans-Oblique-73" transform="translate(720.3125 0.796875)"/>
     <use xlink:href="#DejaVuSans-Oblique-65" transform="translate(772.412109 0.796875)"/>
     <use xlink:href="#DejaVuSans-Oblique-6e" transform="translate(833.935547 0.796875)"/>
     <use xlink:href="#DejaVuSans-28" transform="translate(897.314453 0.796875)"/>
     <use xlink:href="#DejaVuSans-33" transform="translate(936.328125 0.796875)"/>
     <use xlink:href="#DejaVuSans-30" transform="translate(999.951172 0.796875)"/>
     <use xlink:href="#DejaVuSans-22c5" transform="translate(1083.056641 0.796875)"/>
     <use xlink:href="#DejaVuSans-Oblique-74" transform="translate(1134.326172 0.796875)"/>
     <use xlink:href="#DejaVuSans-29" transform="translate(1173.535156 0.796875)"/>
     <use xlink:href="#DejaVuSans-2212" transform="translate(1232.03125 0.796875)"/>
     <use xlink:href="#DejaVuSans-33" transform="translate(1335.302734 0.796875)"/>
     <use xlink:href="#DejaVuSans-22c5" transform="translate(1418.408203 0.796875)"/>
     <use xlink:href="#DejaVuSans-Oblique-49" transform="translate(1469.677734 0.796875)"/>
     <use xlink:href="#DejaVuSans-20" transform="translate(1499.169922 0.796875)"/>
     <use xlink:href="#DejaVuSans-20" transform="translate(1530.957031 0.796875)"/>
     <use xlink:href="#DejaVuSans-20" transform="translate(1562.744141 0.796875)"/>
     <use xlink:href="#DejaVuSans-20" transform="translate(1594.53125 0.796875)"/>
     <use xlink:href="#DejaVuSans-20" transform="translate(1626.318359 0.796875)"/>
     <use xlink:href="#DejaVuSans-20" transform="translate(1658.105469 0.796875)"/>
     <use xlink:href="#DejaVuSans-20" transform="translate(1689.892578 0.796875)"/>
     <use xlink:href="#DejaVuSans-20" transform="translate(1721.679688 0.796875)"/>
     <use xlink:href="#DejaVuSans-50" transform="translate(1753.466797 0.796875)"/>
     <use xlink:href="#DejaVuSans-56" transform="translate(1813.769531 0.796875)"/>
     <use xlink:href="#DejaVuSans-49" transform="translate(1882.177734 0.796875)"/>
     <use xlink:href="#DejaVuSans-3a" transform="translate(1911.669922 0.796875)"/>
     <use xlink:href="#DejaVuSans-20" transform="translate(1945.361328 0.796875)"/>
     <use xlink:href="#DejaVuSans-49" transform="translate(1977.148438 0.796875)"/>
     <use xlink:href="#DejaVuSans-28" transform="translate(2006.640625 0.796875)"/>
     <use xlink:href="#DejaVuSans-30" transform="translate(2045.654297 0.796875)"/>
     <use xlink:href="#DejaVuSans-29" transform="translate(2109.277344 0.796875)"/>
     <use xlink:href="#DejaVuSans-3d" transform="translate(2148.291016 0.796875)"/>
     <use xlink:href="#DejaVuSans-30" transform="translate(2232.080078 0.796875)"/>
     <path d="M 284.375 19.59375 
L 284.375 25.84375 
L 387.060547 25.84375 
L 387.060547 19.59375 
L 284.375 19.59375 
z
"/>
    </g>
   </g>
   <g id="legend_1">
    <g id="patch_7">
     <path d="M 466.709375 75.522812 
L 584.403125 75.522812 
Q 586.403125 75.522812 586.403125 73.522812 
L 586.403125 29.44 
Q 586.403125 27.44 584.403125 27.44 
L 466.709375 27.44 
Q 464.709375 27.44 464.709375 29.44 
L 464.709375 73.522812 
Q 464.709375 75.522812 466.709375 75.522812 
z
" style="fill: #ffffff; opacity: 0.8; stroke: #cccccc; stroke-linejoin: miter"/>
    </g>
    <g id="line2d_34">
     <path d="M 468.709375 35.786875 
L 478.709375 35.786875 
L 488.709375 35.786875 
" style="fill: none; stroke: #0000ff; stroke-width: 1.5; stroke-linecap: square"/>
    </g>
    <g id="text_19">
     <!-- Solução Analítica -->
     <g transform="translate(496.709375 39.286875) scale(0.1 -0.1)">
      <defs>
       <path id="DejaVuSans-53" d="M 3425 4513 
L 3425 3897 
Q 3066 4069 2747 4153 
Q 2428 4238 2131 4238 
Q 1616 4238 1336 4038 
Q 1056 3838 1056 3469 
Q 1056 3159 1242 3001 
Q 1428 2844 1947 2747 
L 2328 2669 
Q 3034 2534 3370 2195 
Q 3706 1856 3706 1288 
Q 3706 609 3251 259 
Q 2797 -91 1919 -91 
Q 1588 -91 1214 -16 
Q 841 59 441 206 
L 441 856 
Q 825 641 1194 531 
Q 1563 422 1919 422 
Q 2459 422 2753 634 
Q 3047 847 3047 1241 
Q 3047 1584 2836 1778 
Q 2625 1972 2144 2069 
L 1759 2144 
Q 1053 2284 737 2584 
Q 422 2884 422 3419 
Q 422 4038 858 4394 
Q 1294 4750 2059 4750 
Q 2388 4750 2728 4690 
Q 3069 4631 3425 4513 
z
" transform="scale(0.015625)"/>
       <path id="DejaVuSans-6f" d="M 1959 3097 
Q 1497 3097 1228 2736 
Q 959 2375 959 1747 
Q 959 1119 1226 758 
Q 1494 397 1959 397 
Q 2419 397 2687 759 
Q 2956 1122 2956 1747 
Q 2956 2369 2687 2733 
Q 2419 3097 1959 3097 
z
M 1959 3584 
Q 2709 3584 3137 3096 
Q 3566 2609 3566 1747 
Q 3566 888 3137 398 
Q 2709 -91 1959 -91 
Q 1206 -91 779 398 
Q 353 888 353 1747 
Q 353 2609 779 3096 
Q 1206 3584 1959 3584 
z
" transform="scale(0.015625)"/>
       <path id="DejaVuSans-6c" d="M 603 4863 
L 1178 4863 
L 1178 0 
L 603 0 
L 603 4863 
z
" transform="scale(0.015625)"/>
       <path id="DejaVuSans-75" d="M 544 1381 
L 544 3500 
L 1119 3500 
L 1119 1403 
Q 1119 906 1312 657 
Q 1506 409 1894 409 
Q 2359 409 2629 706 
Q 2900 1003 2900 1516 
L 2900 3500 
L 3475 3500 
L 3475 0 
L 2900 0 
L 2900 538 
Q 2691 219 2414 64 
Q 2138 -91 1772 -91 
Q 1169 -91 856 284 
Q 544 659 544 1381 
z
M 1991 3584 
L 1991 3584 
z
" transform="scale(0.015625)"/>
       <path id="DejaVuSans-e7" d="M 3122 3366 
L 3122 2828 
Q 2878 2963 2633 3030 
Q 2388 3097 2138 3097 
Q 1578 3097 1268 2742 
Q 959 2388 959 1747 
Q 959 1106 1268 751 
Q 1578 397 2138 397 
Q 2388 397 2633 464 
Q 2878 531 3122 666 
L 3122 134 
Q 2881 22 2623 -34 
Q 2366 -91 2075 -91 
Q 1284 -91 818 406 
Q 353 903 353 1747 
Q 353 2603 823 3093 
Q 1294 3584 2113 3584 
Q 2378 3584 2631 3529 
Q 2884 3475 3122 3366 
z
M 2311 0 
Q 2482 -194 2566 -358 
Q 2651 -522 2651 -672 
Q 2651 -950 2463 -1092 
Q 2276 -1234 1907 -1234 
Q 1764 -1234 1628 -1215 
Q 1492 -1197 1357 -1159 
L 1357 -750 
Q 1464 -803 1579 -826 
Q 1695 -850 1842 -850 
Q 2026 -850 2120 -775 
Q 2214 -700 2214 -556 
Q 2214 -463 2146 -327 
Q 2079 -191 1939 0 
L 2311 0 
z
" transform="scale(0.015625)"/>
       <path id="DejaVuSans-e3" d="M 2194 1759 
Q 1497 1759 1228 1600 
Q 959 1441 959 1056 
Q 959 750 1161 570 
Q 1363 391 1709 391 
Q 2188 391 2477 730 
Q 2766 1069 2766 1631 
L 2766 1759 
L 2194 1759 
z
M 3341 1997 
L 3341 0 
L 2766 0 
L 2766 531 
Q 2569 213 2275 61 
Q 1981 -91 1556 -91 
Q 1019 -91 701 211 
Q 384 513 384 1019 
Q 384 1609 779 1909 
Q 1175 2209 1959 2209 
L 2766 2209 
L 2766 2266 
Q 2766 2663 2505 2880 
Q 2244 3097 1772 3097 
Q 1472 3097 1187 3025 
Q 903 2953 641 2809 
L 641 3341 
Q 956 3463 1253 3523 
Q 1550 3584 1831 3584 
Q 2591 3584 2966 3190 
Q 3341 2797 3341 1997 
z
M 1844 4281 
L 1665 4453 
Q 1597 4516 1545 4545 
Q 1494 4575 1453 4575 
Q 1334 4575 1278 4461 
Q 1222 4347 1215 4091 
L 825 4091 
Q 831 4513 990 4742 
Q 1150 4972 1434 4972 
Q 1553 4972 1653 4928 
Q 1753 4884 1869 4781 
L 2047 4609 
Q 2115 4547 2167 4517 
Q 2219 4488 2259 4488 
Q 2378 4488 2434 4602 
Q 2490 4716 2497 4972 
L 2887 4972 
Q 2881 4550 2721 4320 
Q 2562 4091 2278 4091 
Q 2159 4091 2059 4134 
Q 1959 4178 1844 4281 
z
" transform="scale(0.015625)"/>
       <path id="DejaVuSans-41" d="M 2188 4044 
L 1331 1722 
L 3047 1722 
L 2188 4044 
z
M 1831 4666 
L 2547 4666 
L 4325 0 
L 3669 0 
L 3244 1197 
L 1141 1197 
L 716 0 
L 50 0 
L 1831 4666 
z
" transform="scale(0.015625)"/>
       <path id="DejaVuSans-6e" d="M 3513 2113 
L 3513 0 
L 2938 0 
L 2938 2094 
Q 2938 2591 2744 2837 
Q 2550 3084 2163 3084 
Q 1697 3084 1428 2787 
Q 1159 2491 1159 1978 
L 1159 0 
L 581 0 
L 581 3500 
L 1159 3500 
L 1159 2956 
Q 1366 3272 1645 3428 
Q 1925 3584 2291 3584 
Q 2894 3584 3203 3211 
Q 3513 2838 3513 2113 
z
" transform="scale(0.015625)"/>
       <path id="DejaVuSans-61" d="M 2194 1759 
Q 1497 1759 1228 1600 
Q 959 1441 959 1056 
Q 959 750 1161 570 
Q 1363 391 1709 391 
Q 2188 391 2477 730 
Q 2766 1069 2766 1631 
L 2766 1759 
L 2194 1759 
z
M 3341 1997 
L 3341 0 
L 2766 0 
L 2766 531 
Q 2569 213 2275 61 
Q 1981 -91 1556 -91 
Q 1019 -91 701 211 
Q 384 513 384 1019 
Q 384 1609 779 1909 
Q 1175 2209 1959 2209 
L 2766 2209 
L 2766 2266 
Q 2766 2663 2505 2880 
Q 2244 3097 1772 3097 
Q 1472 3097 1187 3025 
Q 903 2953 641 2809 
L 641 3341 
Q 956 3463 1253 3523 
Q 1550 3584 1831 3584 
Q 2591 3584 2966 3190 
Q 3341 2797 3341 1997 
z
" transform="scale(0.015625)"/>
       <path id="DejaVuSans-ed" d="M 1322 5119 
L 1944 5119 
L 926 3944 
L 447 3944 
L 1322 5119 
z
M 603 3500 
L 1178 3500 
L 1178 0 
L 603 0 
L 603 3500 
z
M 891 3584 
L 891 3584 
z
" transform="scale(0.015625)"/>
       <path id="DejaVuSans-74" d="M 1172 4494 
L 1172 3500 
L 2356 3500 
L 2356 3053 
L 1172 3053 
L 1172 1153 
Q 1172 725 1289 603 
Q 1406 481 1766 481 
L 2356 481 
L 2356 0 
L 1766 0 
Q 1100 0 847 248 
Q 594 497 594 1153 
L 594 3053 
L 172 3053 
L 172 3500 
L 594 3500 
L 594 4494 
L 1172 4494 
z
" transform="scale(0.015625)"/>
       <path id="DejaVuSans-69" d="M 603 3500 
L 1178 3500 
L 1178 0 
L 603 0 
L 603 3500 
z
M 603 4863 
L 1178 4863 
L 1178 4134 
L 603 4134 
L 603 4863 
z
" transform="scale(0.015625)"/>
       <path id="DejaVuSans-63" d="M 3122 3366 
L 3122 2828 
Q 2878 2963 2633 3030 
Q 2388 3097 2138 3097 
Q 1578 3097 1268 2742 
Q 959 2388 959 1747 
Q 959 1106 1268 751 
Q 1578 397 2138 397 
Q 2388 397 2633 464 
Q 2878 531 3122 666 
L 3122 134 
Q 2881 22 2623 -34 
Q 2366 -91 2075 -91 
Q 1284 -91 818 406 
Q 353 903 353 1747 
Q 353 2603 823 3093 
Q 1294 3584 2113 3584 
Q 2378 3584 2631 3529 
Q 2884 3475 3122 3366 
z
" transform="scale(0.015625)"/>
      </defs>
      <use xlink:href="#DejaVuSans-53"/>
      <use xlink:href="#DejaVuSans-6f" transform="translate(63.476562 0)"/>
      <use xlink:href="#DejaVuSans-6c" transform="translate(124.658203 0)"/>
      <use xlink:href="#DejaVuSans-75" transform="translate(152.441406 0)"/>
      <use xlink:href="#DejaVuSans-e7" transform="translate(215.820312 0)"/>
      <use xlink:href="#DejaVuSans-e3" transform="translate(270.800781 0)"/>
      <use xlink:href="#DejaVuSans-6f" transform="translate(332.080078 0)"/>
      <use xlink:href="#DejaVuSans-20" transform="translate(393.261719 0)"/>
      <use xlink:href="#DejaVuSans-41" transform="translate(425.048828 0)"/>
      <use xlink:href="#DejaVuSans-6e" transform="translate(493.457031 0)"/>
      <use xlink:href="#DejaVuSans-61" transform="translate(556.835938 0)"/>
      <use xlink:href="#DejaVuSans-6c" transform="translate(618.115234 0)"/>
      <use xlink:href="#DejaVuSans-ed" transform="translate(645.898438 0)"/>
      <use xlink:href="#DejaVuSans-74" transform="translate(673.681641 0)"/>
      <use xlink:href="#DejaVuSans-69" transform="translate(712.890625 0)"/>
      <use xlink:href="#DejaVuSans-63" transform="translate(740.673828 0)"/>
      <use xlink:href="#DejaVuSans-61" transform="translate(795.654297 0)"/>
     </g>
    </g>
    <g id="line2d_35">
     <path d="M 468.709375 50.865 
L 478.709375 50.865 
L 488.709375 50.865 
" style="fill: none; stroke: #ff0000; stroke-width: 1.5; stroke-linecap: square"/>
    </g>
    <g id="text_20">
     <!-- Euler Explícito -->
     <g transform="translate(496.709375 54.365) scale(0.1 -0.1)">
      <defs>
       <path id="DejaVuSans-65" d="M 3597 1894 
L 3597 1613 
L 953 1613 
Q 991 1019 1311 708 
Q 1631 397 2203 397 
Q 2534 397 2845 478 
Q 3156 559 3463 722 
L 3463 178 
Q 3153 47 2828 -22 
Q 2503 -91 2169 -91 
Q 1331 -91 842 396 
Q 353 884 353 1716 
Q 353 2575 817 3079 
Q 1281 3584 2069 3584 
Q 2775 3584 3186 3129 
Q 3597 2675 3597 1894 
z
M 3022 2063 
Q 3016 2534 2758 2815 
Q 2500 3097 2075 3097 
Q 1594 3097 1305 2825 
Q 1016 2553 972 2059 
L 3022 2063 
z
" transform="scale(0.015625)"/>
       <path id="DejaVuSans-72" d="M 2631 2963 
Q 2534 3019 2420 3045 
Q 2306 3072 2169 3072 
Q 1681 3072 1420 2755 
Q 1159 2438 1159 1844 
L 1159 0 
L 581 0 
L 581 3500 
L 1159 3500 
L 1159 2956 
Q 1341 3275 1631 3429 
Q 1922 3584 2338 3584 
Q 2397 3584 2469 3576 
Q 2541 3569 2628 3553 
L 2631 2963 
z
" transform="scale(0.015625)"/>
       <path id="DejaVuSans-70" d="M 1159 525 
L 1159 -1331 
L 581 -1331 
L 581 3500 
L 1159 3500 
L 1159 2969 
Q 1341 3281 1617 3432 
Q 1894 3584 2278 3584 
Q 2916 3584 3314 3078 
Q 3713 2572 3713 1747 
Q 3713 922 3314 415 
Q 2916 -91 2278 -91 
Q 1894 -91 1617 61 
Q 1341 213 1159 525 
z
M 3116 1747 
Q 3116 2381 2855 2742 
Q 2594 3103 2138 3103 
Q 1681 3103 1420 2742 
Q 1159 2381 1159 1747 
Q 1159 1113 1420 752 
Q 1681 391 2138 391 
Q 2594 391 2855 752 
Q 3116 1113 3116 1747 
z
" transform="scale(0.015625)"/>
      </defs>
      <use xlink:href="#DejaVuSans-45"/>
      <use xlink:href="#DejaVuSans-75" transform="translate(63.183594 0)"/>
      <use xlink:href="#DejaVuSans-6c" transform="translate(126.5625 0)"/>
      <use xlink:href="#DejaVuSans-65" transform="translate(154.345703 0)"/>
      <use xlink:href="#DejaVuSans-72" transform="translate(215.869141 0)"/>
      <use xlink:href="#DejaVuSans-20" transform="translate(256.982422 0)"/>
      <use xlink:href="#DejaVuSans-45" transform="translate(288.769531 0)"/>
      <use xlink:href="#DejaVuSans-78" transform="translate(351.953125 0)"/>
      <use xlink:href="#DejaVuSans-70" transform="translate(411.132812 0)"/>
      <use xlink:href="#DejaVuSans-6c" transform="translate(474.609375 0)"/>
      <use xlink:href="#DejaVuSans-ed" transform="translate(502.392578 0)"/>
      <use xlink:href="#DejaVuSans-63" transform="translate(530.175781 0)"/>
      <use xlink:href="#DejaVuSans-69" transform="translate(585.15625 0)"/>
      <use xlink:href="#DejaVuSans-74" transform="translate(612.939453 0)"/>
      <use xlink:href="#DejaVuSans-6f" transform="translate(652.148438 0)"/>
     </g>
    </g>
    <g id="line2d_36">
     <path d="M 468.709375 65.943125 
L 478.709375 65.943125 
L 488.709375 65.943125 
" style="fill: none; stroke: #008000; stroke-width: 1.5; stroke-linecap: square"/>
    </g>
    <g id="text_21">
     <!-- Euler Implícito -->
     <g transform="translate(496.709375 69.443125) scale(0.1 -0.1)">
      <defs>
       <path id="DejaVuSans-6d" d="M 3328 2828 
Q 3544 3216 3844 3400 
Q 4144 3584 4550 3584 
Q 5097 3584 5394 3201 
Q 5691 2819 5691 2113 
L 5691 0 
L 5113 0 
L 5113 2094 
Q 5113 2597 4934 2840 
Q 4756 3084 4391 3084 
Q 3944 3084 3684 2787 
Q 3425 2491 3425 1978 
L 3425 0 
L 2847 0 
L 2847 2094 
Q 2847 2600 2669 2842 
Q 2491 3084 2119 3084 
Q 1678 3084 1418 2786 
Q 1159 2488 1159 1978 
L 1159 0 
L 581 0 
L 581 3500 
L 1159 3500 
L 1159 2956 
Q 1356 3278 1631 3431 
Q 1906 3584 2284 3584 
Q 2666 3584 2933 3390 
Q 3200 3197 3328 2828 
z
" transform="scale(0.015625)"/>
      </defs>
      <use xlink:href="#DejaVuSans-45"/>
      <use xlink:href="#DejaVuSans-75" transform="translate(63.183594 0)"/>
      <use xlink:href="#DejaVuSans-6c" transform="translate(126.5625 0)"/>
      <use xlink:href="#DejaVuSans-65" transform="translate(154.345703 0)"/>
      <use xlink:href="#DejaVuSans-72" transform="translate(215.869141 0)"/>
      <use xlink:href="#DejaVuSans-20" transform="translate(256.982422 0)"/>
      <use xlink:href="#DejaVuSans-49" transform="translate(288.769531 0)"/>
      <use xlink:href="#DejaVuSans-6d" transform="translate(318.261719 0)"/>
      <use xlink:href="#DejaVuSans-70" transform="translate(415.673828 0)"/>
      <use xlink:href="#DejaVuSans-6c" transform="translate(479.150391 0)"/>
      <use xlink:href="#DejaVuSans-ed" transform="translate(506.933594 0)"/>
      <use xlink:href="#DejaVuSans-63" transform="translate(534.716797 0)"/>
      <use xlink:href="#DejaVuSans-69" transform="translate(589.697266 0)"/>
      <use xlink:href="#DejaVuSans-74" transform="translate(617.480469 0)"/>
      <use xlink:href="#DejaVuSans-6f" transform="translate(656.689453 0)"/>
     </g>
    </g>
   </g>
  </g>
 </g>
 <defs>
  <clipPath id="p29794fcb8a">
   <rect x="33.403125" y="22.44" width="558" height="332.64"/>
  </clipPath>
 </defs>
</svg>
