<?xml version="1.0" encoding="utf-8" standalone="no"?>
<!DOCTYPE svg PUBLIC "-//W3C//DTD SVG 1.1//EN"
  "http://www.w3.org/Graphics/SVG/1.1/DTD/svg11.dtd">
<svg xmlns:xlink="http://www.w3.org/1999/xlink" width="609.323437pt" height="280.91625pt" viewBox="0 0 609.323437 280.91625" xmlns="http://www.w3.org/2000/svg" version="1.1">
 <metadata>
  <rdf:RDF xmlns:dc="http://purl.org/dc/elements/1.1/" xmlns:cc="http://creativecommons.org/ns#" xmlns:rdf="http://www.w3.org/1999/02/22-rdf-syntax-ns#">
   <cc:Work>
    <dc:type rdf:resource="http://purl.org/dc/dcmitype/StillImage"/>
    <dc:date>2025-02-22T18:57:36.432267</dc:date>
    <dc:format>image/svg+xml</dc:format>
    <dc:creator>
     <cc:Agent>
      <dc:title>Matplotlib v3.10.0, https://matplotlib.org/</dc:title>
     </cc:Agent>
    </dc:creator>
   </cc:Work>
  </rdf:RDF>
 </metadata>
 <defs>
  <style type="text/css">*{stroke-linejoin: round; stroke-linecap: butt}</style>
 </defs>
 <g id="figure_1">
  <g id="patch_1">
   <path d="M 0 280.91625 
L 609.323437 280.91625 
L 609.323437 0 
L 0 0 
z
" style="fill: #ffffff"/>
  </g>
  <g id="axes_1">
   <g id="patch_2">
    <path d="M 51.323438 250.56 
L 304.959801 250.56 
L 304.959801 28.8 
L 51.323438 28.8 
z
" style="fill: #ffffff"/>
   </g>
   <g id="matplotlib.axis_1">
    <g id="xtick_1">
     <g id="line2d_1">
      <path d="M 62.852363 250.56 
L 62.852363 28.8 
" clip-path="url(#pcd04351a9a)" style="fill: none; stroke: #b0b0b0; stroke-width: 0.8; stroke-linecap: square"/>
     </g>
     <g id="line2d_2">
      <defs>
       <path id="mb8ed490b8a" d="M 0 0 
L 0 3.5 
" style="stroke: #000000; stroke-width: 0.8"/>
      </defs>
      <g>
       <use xlink:href="#mb8ed490b8a" x="62.852363" y="250.56" style="stroke: #000000; stroke-width: 0.8"/>
      </g>
     </g>
     <g id="text_1">
      <!-- 0.0 -->
      <g transform="translate(54.900801 265.158437) scale(0.1 -0.1)">
       <defs>
        <path id="DejaVuSans-30" d="M 2034 4250 
Q 1547 4250 1301 3770 
Q 1056 3291 1056 2328 
Q 1056 1369 1301 889 
Q 1547 409 2034 409 
Q 2525 409 2770 889 
Q 3016 1369 3016 2328 
Q 3016 3291 2770 3770 
Q 2525 4250 2034 4250 
z
M 2034 4750 
Q 2819 4750 3233 4129 
Q 3647 3509 3647 2328 
Q 3647 1150 3233 529 
Q 2819 -91 2034 -91 
Q 1250 -91 836 529 
Q 422 1150 422 2328 
Q 422 3509 836 4129 
Q 1250 4750 2034 4750 
z
" transform="scale(0.015625)"/>
        <path id="DejaVuSans-2e" d="M 684 794 
L 1344 794 
L 1344 0 
L 684 0 
L 684 794 
z
" transform="scale(0.015625)"/>
       </defs>
       <use xlink:href="#DejaVuSans-30"/>
       <use xlink:href="#DejaVuSans-2e" transform="translate(63.623047 0)"/>
       <use xlink:href="#DejaVuSans-30" transform="translate(95.410156 0)"/>
      </g>
     </g>
    </g>
    <g id="xtick_2">
     <g id="line2d_3">
      <path d="M 104.775729 250.56 
L 104.775729 28.8 
" clip-path="url(#pcd04351a9a)" style="fill: none; stroke: #b0b0b0; stroke-width: 0.8; stroke-linecap: square"/>
     </g>
     <g id="line2d_4">
      <g>
       <use xlink:href="#mb8ed490b8a" x="104.775729" y="250.56" style="stroke: #000000; stroke-width: 0.8"/>
      </g>
     </g>
     <g id="text_2">
      <!-- 0.2 -->
      <g transform="translate(96.824167 265.158437) scale(0.1 -0.1)">
       <defs>
        <path id="DejaVuSans-32" d="M 1228 531 
L 3431 531 
L 3431 0 
L 469 0 
L 469 531 
Q 828 903 1448 1529 
Q 2069 2156 2228 2338 
Q 2531 2678 2651 2914 
Q 2772 3150 2772 3378 
Q 2772 3750 2511 3984 
Q 2250 4219 1831 4219 
Q 1534 4219 1204 4116 
Q 875 4013 500 3803 
L 500 4441 
Q 881 4594 1212 4672 
Q 1544 4750 1819 4750 
Q 2544 4750 2975 4387 
Q 3406 4025 3406 3419 
Q 3406 3131 3298 2873 
Q 3191 2616 2906 2266 
Q 2828 2175 2409 1742 
Q 1991 1309 1228 531 
z
" transform="scale(0.015625)"/>
       </defs>
       <use xlink:href="#DejaVuSans-30"/>
       <use xlink:href="#DejaVuSans-2e" transform="translate(63.623047 0)"/>
       <use xlink:href="#DejaVuSans-32" transform="translate(95.410156 0)"/>
      </g>
     </g>
    </g>
    <g id="xtick_3">
     <g id="line2d_5">
      <path d="M 146.699095 250.56 
L 146.699095 28.8 
" clip-path="url(#pcd04351a9a)" style="fill: none; stroke: #b0b0b0; stroke-width: 0.8; stroke-linecap: square"/>
     </g>
     <g id="line2d_6">
      <g>
       <use xlink:href="#mb8ed490b8a" x="146.699095" y="250.56" style="stroke: #000000; stroke-width: 0.8"/>
      </g>
     </g>
     <g id="text_3">
      <!-- 0.4 -->
      <g transform="translate(138.747532 265.158437) scale(0.1 -0.1)">
       <defs>
        <path id="DejaVuSans-34" d="M 2419 4116 
L 825 1625 
L 2419 1625 
L 2419 4116 
z
M 2253 4666 
L 3047 4666 
L 3047 1625 
L 3713 1625 
L 3713 1100 
L 3047 1100 
L 3047 0 
L 2419 0 
L 2419 1100 
L 313 1100 
L 313 1709 
L 2253 4666 
z
" transform="scale(0.015625)"/>
       </defs>
       <use xlink:href="#DejaVuSans-30"/>
       <use xlink:href="#DejaVuSans-2e" transform="translate(63.623047 0)"/>
       <use xlink:href="#DejaVuSans-34" transform="translate(95.410156 0)"/>
      </g>
     </g>
    </g>
    <g id="xtick_4">
     <g id="line2d_7">
      <path d="M 188.622461 250.56 
L 188.622461 28.8 
" clip-path="url(#pcd04351a9a)" style="fill: none; stroke: #b0b0b0; stroke-width: 0.8; stroke-linecap: square"/>
     </g>
     <g id="line2d_8">
      <g>
       <use xlink:href="#mb8ed490b8a" x="188.622461" y="250.56" style="stroke: #000000; stroke-width: 0.8"/>
      </g>
     </g>
     <g id="text_4">
      <!-- 0.6 -->
      <g transform="translate(180.670898 265.158437) scale(0.1 -0.1)">
       <defs>
        <path id="DejaVuSans-36" d="M 2113 2584 
Q 1688 2584 1439 2293 
Q 1191 2003 1191 1497 
Q 1191 994 1439 701 
Q 1688 409 2113 409 
Q 2538 409 2786 701 
Q 3034 994 3034 1497 
Q 3034 2003 2786 2293 
Q 2538 2584 2113 2584 
z
M 3366 4563 
L 3366 3988 
Q 3128 4100 2886 4159 
Q 2644 4219 2406 4219 
Q 1781 4219 1451 3797 
Q 1122 3375 1075 2522 
Q 1259 2794 1537 2939 
Q 1816 3084 2150 3084 
Q 2853 3084 3261 2657 
Q 3669 2231 3669 1497 
Q 3669 778 3244 343 
Q 2819 -91 2113 -91 
Q 1303 -91 875 529 
Q 447 1150 447 2328 
Q 447 3434 972 4092 
Q 1497 4750 2381 4750 
Q 2619 4750 2861 4703 
Q 3103 4656 3366 4563 
z
" transform="scale(0.015625)"/>
       </defs>
       <use xlink:href="#DejaVuSans-30"/>
       <use xlink:href="#DejaVuSans-2e" transform="translate(63.623047 0)"/>
       <use xlink:href="#DejaVuSans-36" transform="translate(95.410156 0)"/>
      </g>
     </g>
    </g>
    <g id="xtick_5">
     <g id="line2d_9">
      <path d="M 230.545827 250.56 
L 230.545827 28.8 
" clip-path="url(#pcd04351a9a)" style="fill: none; stroke: #b0b0b0; stroke-width: 0.8; stroke-linecap: square"/>
     </g>
     <g id="line2d_10">
      <g>
       <use xlink:href="#mb8ed490b8a" x="230.545827" y="250.56" style="stroke: #000000; stroke-width: 0.8"/>
      </g>
     </g>
     <g id="text_5">
      <!-- 0.8 -->
      <g transform="translate(222.594264 265.158437) scale(0.1 -0.1)">
       <defs>
        <path id="DejaVuSans-38" d="M 2034 2216 
Q 1584 2216 1326 1975 
Q 1069 1734 1069 1313 
Q 1069 891 1326 650 
Q 1584 409 2034 409 
Q 2484 409 2743 651 
Q 3003 894 3003 1313 
Q 3003 1734 2745 1975 
Q 2488 2216 2034 2216 
z
M 1403 2484 
Q 997 2584 770 2862 
Q 544 3141 544 3541 
Q 544 4100 942 4425 
Q 1341 4750 2034 4750 
Q 2731 4750 3128 4425 
Q 3525 4100 3525 3541 
Q 3525 3141 3298 2862 
Q 3072 2584 2669 2484 
Q 3125 2378 3379 2068 
Q 3634 1759 3634 1313 
Q 3634 634 3220 271 
Q 2806 -91 2034 -91 
Q 1263 -91 848 271 
Q 434 634 434 1313 
Q 434 1759 690 2068 
Q 947 2378 1403 2484 
z
M 1172 3481 
Q 1172 3119 1398 2916 
Q 1625 2713 2034 2713 
Q 2441 2713 2670 2916 
Q 2900 3119 2900 3481 
Q 2900 3844 2670 4047 
Q 2441 4250 2034 4250 
Q 1625 4250 1398 4047 
Q 1172 3844 1172 3481 
z
" transform="scale(0.015625)"/>
       </defs>
       <use xlink:href="#DejaVuSans-30"/>
       <use xlink:href="#DejaVuSans-2e" transform="translate(63.623047 0)"/>
       <use xlink:href="#DejaVuSans-38" transform="translate(95.410156 0)"/>
      </g>
     </g>
    </g>
    <g id="xtick_6">
     <g id="line2d_11">
      <path d="M 272.469193 250.56 
L 272.469193 28.8 
" clip-path="url(#pcd04351a9a)" style="fill: none; stroke: #b0b0b0; stroke-width: 0.8; stroke-linecap: square"/>
     </g>
     <g id="line2d_12">
      <g>
       <use xlink:href="#mb8ed490b8a" x="272.469193" y="250.56" style="stroke: #000000; stroke-width: 0.8"/>
      </g>
     </g>
     <g id="text_6">
      <!-- 1.0 -->
      <g transform="translate(264.51763 265.158437) scale(0.1 -0.1)">
       <defs>
        <path id="DejaVuSans-31" d="M 794 531 
L 1825 531 
L 1825 4091 
L 703 3866 
L 703 4441 
L 1819 4666 
L 2450 4666 
L 2450 531 
L 3481 531 
L 3481 0 
L 794 0 
L 794 531 
z
" transform="scale(0.015625)"/>
       </defs>
       <use xlink:href="#DejaVuSans-31"/>
       <use xlink:href="#DejaVuSans-2e" transform="translate(63.623047 0)"/>
       <use xlink:href="#DejaVuSans-30" transform="translate(95.410156 0)"/>
      </g>
     </g>
    </g>
    <g id="text_7">
     <!-- x -->
     <g transform="translate(175.182244 278.836563) scale(0.1 -0.1)">
      <defs>
       <path id="DejaVuSans-78" d="M 3513 3500 
L 2247 1797 
L 3578 0 
L 2900 0 
L 1881 1375 
L 863 0 
L 184 0 
L 1544 1831 
L 300 3500 
L 978 3500 
L 1906 2253 
L 2834 3500 
L 3513 3500 
z
" transform="scale(0.015625)"/>
      </defs>
      <use xlink:href="#DejaVuSans-78"/>
     </g>
    </g>
   </g>
   <g id="matplotlib.axis_2">
    <g id="ytick_1">
     <g id="line2d_13">
      <path d="M 51.323438 225.56852 
L 304.959801 225.56852 
" clip-path="url(#pcd04351a9a)" style="fill: none; stroke: #b0b0b0; stroke-width: 0.8; stroke-linecap: square"/>
     </g>
     <g id="line2d_14">
      <defs>
       <path id="md7b8c9e6ef" d="M 0 0 
L -3.5 0 
" style="stroke: #000000; stroke-width: 0.8"/>
      </defs>
      <g>
       <use xlink:href="#md7b8c9e6ef" x="51.323438" y="225.56852" style="stroke: #000000; stroke-width: 0.8"/>
      </g>
     </g>
     <g id="text_8">
      <!-- −0.75 -->
      <g transform="translate(13.678125 229.367738) scale(0.1 -0.1)">
       <defs>
        <path id="DejaVuSans-2212" d="M 678 2272 
L 4684 2272 
L 4684 1741 
L 678 1741 
L 678 2272 
z
" transform="scale(0.015625)"/>
        <path id="DejaVuSans-37" d="M 525 4666 
L 3525 4666 
L 3525 4397 
L 1831 0 
L 1172 0 
L 2766 4134 
L 525 4134 
L 525 4666 
z
" transform="scale(0.015625)"/>
        <path id="DejaVuSans-35" d="M 691 4666 
L 3169 4666 
L 3169 4134 
L 1269 4134 
L 1269 2991 
Q 1406 3038 1543 3061 
Q 1681 3084 1819 3084 
Q 2600 3084 3056 2656 
Q 3513 2228 3513 1497 
Q 3513 744 3044 326 
Q 2575 -91 1722 -91 
Q 1428 -91 1123 -41 
Q 819 9 494 109 
L 494 744 
Q 775 591 1075 516 
Q 1375 441 1709 441 
Q 2250 441 2565 725 
Q 2881 1009 2881 1497 
Q 2881 1984 2565 2268 
Q 2250 2553 1709 2553 
Q 1456 2553 1204 2497 
Q 953 2441 691 2322 
L 691 4666 
z
" transform="scale(0.015625)"/>
       </defs>
       <use xlink:href="#DejaVuSans-2212"/>
       <use xlink:href="#DejaVuSans-30" transform="translate(83.789062 0)"/>
       <use xlink:href="#DejaVuSans-2e" transform="translate(147.412109 0)"/>
       <use xlink:href="#DejaVuSans-37" transform="translate(179.199219 0)"/>
       <use xlink:href="#DejaVuSans-35" transform="translate(242.822266 0)"/>
      </g>
     </g>
    </g>
    <g id="ytick_2">
     <g id="line2d_15">
      <path d="M 51.323438 196.652728 
L 304.959801 196.652728 
" clip-path="url(#pcd04351a9a)" style="fill: none; stroke: #b0b0b0; stroke-width: 0.8; stroke-linecap: square"/>
     </g>
     <g id="line2d_16">
      <g>
       <use xlink:href="#md7b8c9e6ef" x="51.323438" y="196.652728" style="stroke: #000000; stroke-width: 0.8"/>
      </g>
     </g>
     <g id="text_9">
      <!-- −0.50 -->
      <g transform="translate(13.678125 200.451947) scale(0.1 -0.1)">
       <use xlink:href="#DejaVuSans-2212"/>
       <use xlink:href="#DejaVuSans-30" transform="translate(83.789062 0)"/>
       <use xlink:href="#DejaVuSans-2e" transform="translate(147.412109 0)"/>
       <use xlink:href="#DejaVuSans-35" transform="translate(179.199219 0)"/>
       <use xlink:href="#DejaVuSans-30" transform="translate(242.822266 0)"/>
      </g>
     </g>
    </g>
    <g id="ytick_3">
     <g id="line2d_17">
      <path d="M 51.323438 167.736937 
L 304.959801 167.736937 
" clip-path="url(#pcd04351a9a)" style="fill: none; stroke: #b0b0b0; stroke-width: 0.8; stroke-linecap: square"/>
     </g>
     <g id="line2d_18">
      <g>
       <use xlink:href="#md7b8c9e6ef" x="51.323438" y="167.736937" style="stroke: #000000; stroke-width: 0.8"/>
      </g>
     </g>
     <g id="text_10">
      <!-- −0.25 -->
      <g transform="translate(13.678125 171.536155) scale(0.1 -0.1)">
       <use xlink:href="#DejaVuSans-2212"/>
       <use xlink:href="#DejaVuSans-30" transform="translate(83.789062 0)"/>
       <use xlink:href="#DejaVuSans-2e" transform="translate(147.412109 0)"/>
       <use xlink:href="#DejaVuSans-32" transform="translate(179.199219 0)"/>
       <use xlink:href="#DejaVuSans-35" transform="translate(242.822266 0)"/>
      </g>
     </g>
    </g>
    <g id="ytick_4">
     <g id="line2d_19">
      <path d="M 51.323438 138.821145 
L 304.959801 138.821145 
" clip-path="url(#pcd04351a9a)" style="fill: none; stroke: #b0b0b0; stroke-width: 0.8; stroke-linecap: square"/>
     </g>
     <g id="line2d_20">
      <g>
       <use xlink:href="#md7b8c9e6ef" x="51.323438" y="138.821145" style="stroke: #000000; stroke-width: 0.8"/>
      </g>
     </g>
     <g id="text_11">
      <!-- 0.00 -->
      <g transform="translate(22.057813 142.620364) scale(0.1 -0.1)">
       <use xlink:href="#DejaVuSans-30"/>
       <use xlink:href="#DejaVuSans-2e" transform="translate(63.623047 0)"/>
       <use xlink:href="#DejaVuSans-30" transform="translate(95.410156 0)"/>
       <use xlink:href="#DejaVuSans-30" transform="translate(159.033203 0)"/>
      </g>
     </g>
    </g>
    <g id="ytick_5">
     <g id="line2d_21">
      <path d="M 51.323438 109.905353 
L 304.959801 109.905353 
" clip-path="url(#pcd04351a9a)" style="fill: none; stroke: #b0b0b0; stroke-width: 0.8; stroke-linecap: square"/>
     </g>
     <g id="line2d_22">
      <g>
       <use xlink:href="#md7b8c9e6ef" x="51.323438" y="109.905353" style="stroke: #000000; stroke-width: 0.8"/>
      </g>
     </g>
     <g id="text_12">
      <!-- 0.25 -->
      <g transform="translate(22.057813 113.704572) scale(0.1 -0.1)">
       <use xlink:href="#DejaVuSans-30"/>
       <use xlink:href="#DejaVuSans-2e" transform="translate(63.623047 0)"/>
       <use xlink:href="#DejaVuSans-32" transform="translate(95.410156 0)"/>
       <use xlink:href="#DejaVuSans-35" transform="translate(159.033203 0)"/>
      </g>
     </g>
    </g>
    <g id="ytick_6">
     <g id="line2d_23">
      <path d="M 51.323438 80.989562 
L 304.959801 80.989562 
" clip-path="url(#pcd04351a9a)" style="fill: none; stroke: #b0b0b0; stroke-width: 0.8; stroke-linecap: square"/>
     </g>
     <g id="line2d_24">
      <g>
       <use xlink:href="#md7b8c9e6ef" x="51.323438" y="80.989562" style="stroke: #000000; stroke-width: 0.8"/>
      </g>
     </g>
     <g id="text_13">
      <!-- 0.50 -->
      <g transform="translate(22.057813 84.78878) scale(0.1 -0.1)">
       <use xlink:href="#DejaVuSans-30"/>
       <use xlink:href="#DejaVuSans-2e" transform="translate(63.623047 0)"/>
       <use xlink:href="#DejaVuSans-35" transform="translate(95.410156 0)"/>
       <use xlink:href="#DejaVuSans-30" transform="translate(159.033203 0)"/>
      </g>
     </g>
    </g>
    <g id="ytick_7">
     <g id="line2d_25">
      <path d="M 51.323438 52.07377 
L 304.959801 52.07377 
" clip-path="url(#pcd04351a9a)" style="fill: none; stroke: #b0b0b0; stroke-width: 0.8; stroke-linecap: square"/>
     </g>
     <g id="line2d_26">
      <g>
       <use xlink:href="#md7b8c9e6ef" x="51.323438" y="52.07377" style="stroke: #000000; stroke-width: 0.8"/>
      </g>
     </g>
     <g id="text_14">
      <!-- 0.75 -->
      <g transform="translate(22.057813 55.872989) scale(0.1 -0.1)">
       <use xlink:href="#DejaVuSans-30"/>
       <use xlink:href="#DejaVuSans-2e" transform="translate(63.623047 0)"/>
       <use xlink:href="#DejaVuSans-37" transform="translate(95.410156 0)"/>
       <use xlink:href="#DejaVuSans-35" transform="translate(159.033203 0)"/>
      </g>
     </g>
    </g>
    <g id="text_15">
     <!-- y -->
     <g transform="translate(7.598438 142.639375) rotate(-90) scale(0.1 -0.1)">
      <defs>
       <path id="DejaVuSans-79" d="M 2059 -325 
Q 1816 -950 1584 -1140 
Q 1353 -1331 966 -1331 
L 506 -1331 
L 506 -850 
L 844 -850 
Q 1081 -850 1212 -737 
Q 1344 -625 1503 -206 
L 1606 56 
L 191 3500 
L 800 3500 
L 1894 763 
L 2988 3500 
L 3597 3500 
L 2059 -325 
z
" transform="scale(0.015625)"/>
      </defs>
      <use xlink:href="#DejaVuSans-79"/>
     </g>
    </g>
   </g>
   <g id="line2d_27">
    <path d="M 62.852363 138.821145 
L 63.272016 138.717079 
L 63.69167 138.406089 
L 64.32115 137.556989 
L 64.95063 136.258839 
L 65.789936 133.855275 
L 66.629243 130.724139 
L 67.678376 125.871279 
L 68.937336 118.842015 
L 70.406123 109.30971 
L 72.504389 94.107283 
L 76.281269 66.502932 
L 77.959882 56.020373 
L 79.218842 49.491153 
L 80.267976 45.119052 
L 81.107282 42.404601 
L 81.946589 40.437835 
L 82.576069 39.475513 
L 83.205549 38.965258 
L 83.625202 38.88 
L 84.044855 39.000228 
L 84.464509 39.326435 
L 85.093989 40.201198 
L 85.723469 41.53466 
L 86.562775 44.012206 
L 87.402082 47.262474 
L 88.451215 52.350365 
L 89.710175 59.822866 
L 91.178962 70.144372 
L 93.067402 85.29761 
L 99.572028 139.449327 
L 101.040815 149.007501 
L 102.299774 155.6826 
L 103.348908 160.021671 
L 104.188214 162.627854 
L 104.817694 164.05595 
L 105.447174 165.022101 
L 106.076654 165.52078 
L 106.496308 165.592502 
L 106.915961 165.456012 
L 107.335614 165.112473 
L 107.965094 164.213311 
L 108.594574 162.862261 
L 109.433881 160.381186 
L 110.273187 157.161492 
L 111.322321 152.177611 
L 112.581281 144.954034 
L 114.050067 135.133701 
L 116.148334 119.387486 
L 120.344867 87.411739 
L 122.02348 76.579989 
L 123.28244 69.836021 
L 124.331573 65.311381 
L 125.17088 62.489523 
L 126.010187 60.426105 
L 126.639667 59.397037 
L 127.269147 58.823898 
L 127.6888 58.698383 
L 128.108453 58.779347 
L 128.528106 59.066991 
L 129.157586 59.884583 
L 129.787066 61.160813 
L 130.626373 63.560285 
L 131.46568 66.728422 
L 132.514813 71.70471 
L 133.773773 79.025112 
L 135.242559 89.136727 
L 137.130999 103.957375 
L 143.215972 153.450934 
L 144.684759 162.979109 
L 145.943719 169.68452 
L 146.992852 174.080825 
L 147.832159 176.749143 
L 148.671465 178.62387 
L 149.300945 179.494202 
L 149.720599 179.815738 
L 150.140252 179.929287 
L 150.559905 179.8348 
L 150.979559 179.532976 
L 151.609039 178.694843 
L 152.238519 177.401614 
L 153.077825 174.990071 
L 153.917132 171.828151 
L 154.966265 166.895092 
L 156.225225 159.693669 
L 157.694012 149.835097 
L 159.582452 135.553271 
L 164.618291 96.531408 
L 166.087078 87.068186 
L 167.346038 80.293511 
L 168.395171 75.766651 
L 169.234478 72.955626 
L 170.073784 70.911996 
L 170.703264 69.90233 
L 171.332744 69.351444 
L 171.752398 69.24187 
L 172.172051 69.339321 
L 172.591704 69.643708 
L 173.221184 70.486261 
L 173.850664 71.786405 
L 174.689971 74.214484 
L 175.529277 77.405472 
L 176.578411 82.399051 
L 177.837371 89.718719 
L 179.306157 99.792697 
L 181.194597 114.495832 
L 186.859917 160.102303 
L 188.328703 169.739962 
L 189.587663 176.594708 
L 190.636797 181.147308 
L 191.476103 183.957041 
L 192.31541 185.984042 
L 192.94489 186.973566 
L 193.57437 187.499656 
L 193.994023 187.590978 
L 194.413676 187.474508 
L 194.83333 187.150857 
L 195.46281 186.280087 
L 196.09229 184.954086 
L 196.931596 182.498146 
L 197.770903 179.290433 
L 198.820036 174.297237 
L 200.078996 167.017961 
L 201.547783 157.058667 
L 203.436223 142.628628 
L 208.681889 101.631282 
L 210.150676 92.205767 
L 211.409636 85.500044 
L 212.458769 81.052104 
L 213.298076 78.315545 
L 214.137382 76.354184 
L 214.766862 75.41002 
L 215.396342 74.926834 
L 215.815995 74.863135 
L 216.235649 75.006719 
L 216.655302 75.357206 
L 217.284782 76.268217 
L 217.914262 77.635133 
L 218.753569 80.147985 
L 219.592875 83.416897 
L 220.642009 88.495117 
L 221.900968 95.892788 
L 223.369755 106.018302 
L 225.258195 120.714758 
L 230.713688 164.291241 
L 232.182475 173.886602 
L 233.441435 180.716705 
L 234.490568 185.255605 
L 235.329874 188.058022 
L 236.169181 190.080256 
L 236.798661 191.067478 
L 237.428141 191.592033 
L 237.847794 191.682616 
L 238.267448 191.565533 
L 238.687101 191.241306 
L 239.316581 190.369556 
L 239.946061 189.042178 
L 240.785367 186.583298 
L 241.624674 183.37079 
L 242.673807 178.368066 
L 243.932767 171.070741 
L 245.401554 161.079224 
L 247.289994 146.587048 
L 252.53566 105.281853 
L 254.004447 95.736857 
L 255.263407 88.919637 
L 256.31254 84.373669 
L 257.151847 81.556144 
L 257.991153 79.512228 
L 258.620633 78.505496 
L 259.250113 77.959495 
L 259.669767 77.853926 
L 260.08942 77.955741 
L 260.509073 78.264649 
L 261.138553 79.113832 
L 261.768033 80.419821 
L 262.60734 82.85332 
L 263.446646 86.045614 
L 264.49578 91.032829 
L 265.75474 98.329708 
L 267.223526 108.351265 
L 269.111966 122.938672 
L 272.469193 150.46004 
L 272.469193 150.46004 
" clip-path="url(#pcd04351a9a)" style="fill: none; stroke: #0000ff; stroke-width: 1.5; stroke-linecap: square"/>
   </g>
   <g id="line2d_28">
    <path d="M 62.852363 138.821145 
L 83.814046 138.821145 
L 104.775729 114.337564 
L 125.737412 170.159761 
L 146.699095 89.257782 
L 167.660778 197.219375 
L 188.622461 66.87838 
L 209.584144 218.753554 
L 230.545827 49.618471 
L 251.50751 233.492364 
L 272.469193 39.164796 
L 293.430876 240.48 
" clip-path="url(#pcd04351a9a)" style="fill: none; stroke: #ff0000; stroke-width: 1.5; stroke-linecap: square"/>
   </g>
   <g id="line2d_29">
    <path d="M 62.852363 138.821145 
L 83.814046 119.987622 
L 104.775729 161.623913 
L 125.737412 101.361433 
L 146.699095 181.615662 
L 167.660778 84.954215 
L 188.622461 197.609925 
L 209.584144 72.385314 
L 230.545827 208.572884 
L 251.50751 64.840788 
L 272.469193 213.773408 
L 293.430876 63.030996 
" clip-path="url(#pcd04351a9a)" style="fill: none; stroke: #008000; stroke-width: 1.5; stroke-linecap: square"/>
   </g>
   <g id="patch_3">
    <path d="M 51.323438 250.56 
L 51.323438 28.8 
" style="fill: none; stroke: #000000; stroke-width: 0.8; stroke-linejoin: miter; stroke-linecap: square"/>
   </g>
   <g id="patch_4">
    <path d="M 304.959801 250.56 
L 304.959801 28.8 
" style="fill: none; stroke: #000000; stroke-width: 0.8; stroke-linejoin: miter; stroke-linecap: square"/>
   </g>
   <g id="patch_5">
    <path d="M 51.323438 250.56 
L 304.959801 250.56 
" style="fill: none; stroke: #000000; stroke-width: 0.8; stroke-linejoin: miter; stroke-linecap: square"/>
   </g>
   <g id="patch_6">
    <path d="M 51.323438 28.8 
L 304.959801 28.8 
" style="fill: none; stroke: #000000; stroke-width: 0.8; stroke-linejoin: miter; stroke-linecap: square"/>
   </g>
   <g id="text_16">
    <!-- passo = 1e-1 -->
    <g transform="translate(51.323438 22.8) scale(0.12 -0.12)">
     <defs>
      <path id="DejaVuSans-70" d="M 1159 525 
L 1159 -1331 
L 581 -1331 
L 581 3500 
L 1159 3500 
L 1159 2969 
Q 1341 3281 1617 3432 
Q 1894 3584 2278 3584 
Q 2916 3584 3314 3078 
Q 3713 2572 3713 1747 
Q 3713 922 3314 415 
Q 2916 -91 2278 -91 
Q 1894 -91 1617 61 
Q 1341 213 1159 525 
z
M 3116 1747 
Q 3116 2381 2855 2742 
Q 2594 3103 2138 3103 
Q 1681 3103 1420 2742 
Q 1159 2381 1159 1747 
Q 1159 1113 1420 752 
Q 1681 391 2138 391 
Q 2594 391 2855 752 
Q 3116 1113 3116 1747 
z
" transform="scale(0.015625)"/>
      <path id="DejaVuSans-61" d="M 2194 1759 
Q 1497 1759 1228 1600 
Q 959 1441 959 1056 
Q 959 750 1161 570 
Q 1363 391 1709 391 
Q 2188 391 2477 730 
Q 2766 1069 2766 1631 
L 2766 1759 
L 2194 1759 
z
M 3341 1997 
L 3341 0 
L 2766 0 
L 2766 531 
Q 2569 213 2275 61 
Q 1981 -91 1556 -91 
Q 1019 -91 701 211 
Q 384 513 384 1019 
Q 384 1609 779 1909 
Q 1175 2209 1959 2209 
L 2766 2209 
L 2766 2266 
Q 2766 2663 2505 2880 
Q 2244 3097 1772 3097 
Q 1472 3097 1187 3025 
Q 903 2953 641 2809 
L 641 3341 
Q 956 3463 1253 3523 
Q 1550 3584 1831 3584 
Q 2591 3584 2966 3190 
Q 3341 2797 3341 1997 
z
" transform="scale(0.015625)"/>
      <path id="DejaVuSans-73" d="M 2834 3397 
L 2834 2853 
Q 2591 2978 2328 3040 
Q 2066 3103 1784 3103 
Q 1356 3103 1142 2972 
Q 928 2841 928 2578 
Q 928 2378 1081 2264 
Q 1234 2150 1697 2047 
L 1894 2003 
Q 2506 1872 2764 1633 
Q 3022 1394 3022 966 
Q 3022 478 2636 193 
Q 2250 -91 1575 -91 
Q 1294 -91 989 -36 
Q 684 19 347 128 
L 347 722 
Q 666 556 975 473 
Q 1284 391 1588 391 
Q 1994 391 2212 530 
Q 2431 669 2431 922 
Q 2431 1156 2273 1281 
Q 2116 1406 1581 1522 
L 1381 1569 
Q 847 1681 609 1914 
Q 372 2147 372 2553 
Q 372 3047 722 3315 
Q 1072 3584 1716 3584 
Q 2034 3584 2315 3537 
Q 2597 3491 2834 3397 
z
" transform="scale(0.015625)"/>
      <path id="DejaVuSans-6f" d="M 1959 3097 
Q 1497 3097 1228 2736 
Q 959 2375 959 1747 
Q 959 1119 1226 758 
Q 1494 397 1959 397 
Q 2419 397 2687 759 
Q 2956 1122 2956 1747 
Q 2956 2369 2687 2733 
Q 2419 3097 1959 3097 
z
M 1959 3584 
Q 2709 3584 3137 3096 
Q 3566 2609 3566 1747 
Q 3566 888 3137 398 
Q 2709 -91 1959 -91 
Q 1206 -91 779 398 
Q 353 888 353 1747 
Q 353 2609 779 3096 
Q 1206 3584 1959 3584 
z
" transform="scale(0.015625)"/>
      <path id="DejaVuSans-20" transform="scale(0.015625)"/>
      <path id="DejaVuSans-3d" d="M 678 2906 
L 4684 2906 
L 4684 2381 
L 678 2381 
L 678 2906 
z
M 678 1631 
L 4684 1631 
L 4684 1100 
L 678 1100 
L 678 1631 
z
" transform="scale(0.015625)"/>
      <path id="DejaVuSans-65" d="M 3597 1894 
L 3597 1613 
L 953 1613 
Q 991 1019 1311 708 
Q 1631 397 2203 397 
Q 2534 397 2845 478 
Q 3156 559 3463 722 
L 3463 178 
Q 3153 47 2828 -22 
Q 2503 -91 2169 -91 
Q 1331 -91 842 396 
Q 353 884 353 1716 
Q 353 2575 817 3079 
Q 1281 3584 2069 3584 
Q 2775 3584 3186 3129 
Q 3597 2675 3597 1894 
z
M 3022 2063 
Q 3016 2534 2758 2815 
Q 2500 3097 2075 3097 
Q 1594 3097 1305 2825 
Q 1016 2553 972 2059 
L 3022 2063 
z
" transform="scale(0.015625)"/>
      <path id="DejaVuSans-2d" d="M 313 2009 
L 1997 2009 
L 1997 1497 
L 313 1497 
L 313 2009 
z
" transform="scale(0.015625)"/>
     </defs>
     <use xlink:href="#DejaVuSans-70"/>
     <use xlink:href="#DejaVuSans-61" transform="translate(63.476562 0)"/>
     <use xlink:href="#DejaVuSans-73" transform="translate(124.755859 0)"/>
     <use xlink:href="#DejaVuSans-73" transform="translate(176.855469 0)"/>
     <use xlink:href="#DejaVuSans-6f" transform="translate(228.955078 0)"/>
     <use xlink:href="#DejaVuSans-20" transform="translate(290.136719 0)"/>
     <use xlink:href="#DejaVuSans-3d" transform="translate(321.923828 0)"/>
     <use xlink:href="#DejaVuSans-20" transform="translate(405.712891 0)"/>
     <use xlink:href="#DejaVuSans-31" transform="translate(437.5 0)"/>
     <use xlink:href="#DejaVuSans-65" transform="translate(501.123047 0)"/>
     <use xlink:href="#DejaVuSans-2d" transform="translate(562.646484 0)"/>
     <use xlink:href="#DejaVuSans-31" transform="translate(598.730469 0)"/>
    </g>
   </g>
   <g id="legend_1">
    <g id="patch_7">
     <path d="M 58.323438 245.56 
L 176.017188 245.56 
Q 178.017188 245.56 178.017188 243.56 
L 178.017188 199.477187 
Q 178.017188 197.477187 176.017188 197.477187 
L 58.323438 197.477187 
Q 56.323438 197.477187 56.323438 199.477187 
L 56.323438 243.56 
Q 56.323438 245.56 58.323438 245.56 
z
" style="fill: #ffffff; opacity: 0.8; stroke: #cccccc; stroke-linejoin: miter"/>
    </g>
    <g id="line2d_30">
     <path d="M 60.323438 205.824062 
L 70.323438 205.824062 
L 80.323438 205.824062 
" style="fill: none; stroke: #0000ff; stroke-width: 1.5; stroke-linecap: square"/>
    </g>
    <g id="text_17">
     <!-- Solução Analítica -->
     <g transform="translate(88.323438 209.324062) scale(0.1 -0.1)">
      <defs>
       <path id="DejaVuSans-53" d="M 3425 4513 
L 3425 3897 
Q 3066 4069 2747 4153 
Q 2428 4238 2131 4238 
Q 1616 4238 1336 4038 
Q 1056 3838 1056 3469 
Q 1056 3159 1242 3001 
Q 1428 2844 1947 2747 
L 2328 2669 
Q 3034 2534 3370 2195 
Q 3706 1856 3706 1288 
Q 3706 609 3251 259 
Q 2797 -91 1919 -91 
Q 1588 -91 1214 -16 
Q 841 59 441 206 
L 441 856 
Q 825 641 1194 531 
Q 1563 422 1919 422 
Q 2459 422 2753 634 
Q 3047 847 3047 1241 
Q 3047 1584 2836 1778 
Q 2625 1972 2144 2069 
L 1759 2144 
Q 1053 2284 737 2584 
Q 422 2884 422 3419 
Q 422 4038 858 4394 
Q 1294 4750 2059 4750 
Q 2388 4750 2728 4690 
Q 3069 4631 3425 4513 
z
" transform="scale(0.015625)"/>
       <path id="DejaVuSans-6c" d="M 603 4863 
L 1178 4863 
L 1178 0 
L 603 0 
L 603 4863 
z
" transform="scale(0.015625)"/>
       <path id="DejaVuSans-75" d="M 544 1381 
L 544 3500 
L 1119 3500 
L 1119 1403 
Q 1119 906 1312 657 
Q 1506 409 1894 409 
Q 2359 409 2629 706 
Q 2900 1003 2900 1516 
L 2900 3500 
L 3475 3500 
L 3475 0 
L 2900 0 
L 2900 538 
Q 2691 219 2414 64 
Q 2138 -91 1772 -91 
Q 1169 -91 856 284 
Q 544 659 544 1381 
z
M 1991 3584 
L 1991 3584 
z
" transform="scale(0.015625)"/>
       <path id="DejaVuSans-e7" d="M 3122 3366 
L 3122 2828 
Q 2878 2963 2633 3030 
Q 2388 3097 2138 3097 
Q 1578 3097 1268 2742 
Q 959 2388 959 1747 
Q 959 1106 1268 751 
Q 1578 397 2138 397 
Q 2388 397 2633 464 
Q 2878 531 3122 666 
L 3122 134 
Q 2881 22 2623 -34 
Q 2366 -91 2075 -91 
Q 1284 -91 818 406 
Q 353 903 353 1747 
Q 353 2603 823 3093 
Q 1294 3584 2113 3584 
Q 2378 3584 2631 3529 
Q 2884 3475 3122 3366 
z
M 2311 0 
Q 2482 -194 2566 -358 
Q 2651 -522 2651 -672 
Q 2651 -950 2463 -1092 
Q 2276 -1234 1907 -1234 
Q 1764 -1234 1628 -1215 
Q 1492 -1197 1357 -1159 
L 1357 -750 
Q 1464 -803 1579 -826 
Q 1695 -850 1842 -850 
Q 2026 -850 2120 -775 
Q 2214 -700 2214 -556 
Q 2214 -463 2146 -327 
Q 2079 -191 1939 0 
L 2311 0 
z
" transform="scale(0.015625)"/>
       <path id="DejaVuSans-e3" d="M 2194 1759 
Q 1497 1759 1228 1600 
Q 959 1441 959 1056 
Q 959 750 1161 570 
Q 1363 391 1709 391 
Q 2188 391 2477 730 
Q 2766 1069 2766 1631 
L 2766 1759 
L 2194 1759 
z
M 3341 1997 
L 3341 0 
L 2766 0 
L 2766 531 
Q 2569 213 2275 61 
Q 1981 -91 1556 -91 
Q 1019 -91 701 211 
Q 384 513 384 1019 
Q 384 1609 779 1909 
Q 1175 2209 1959 2209 
L 2766 2209 
L 2766 2266 
Q 2766 2663 2505 2880 
Q 2244 3097 1772 3097 
Q 1472 3097 1187 3025 
Q 903 2953 641 2809 
L 641 3341 
Q 956 3463 1253 3523 
Q 1550 3584 1831 3584 
Q 2591 3584 2966 3190 
Q 3341 2797 3341 1997 
z
M 1844 4281 
L 1665 4453 
Q 1597 4516 1545 4545 
Q 1494 4575 1453 4575 
Q 1334 4575 1278 4461 
Q 1222 4347 1215 4091 
L 825 4091 
Q 831 4513 990 4742 
Q 1150 4972 1434 4972 
Q 1553 4972 1653 4928 
Q 1753 4884 1869 4781 
L 2047 4609 
Q 2115 4547 2167 4517 
Q 2219 4488 2259 4488 
Q 2378 4488 2434 4602 
Q 2490 4716 2497 4972 
L 2887 4972 
Q 2881 4550 2721 4320 
Q 2562 4091 2278 4091 
Q 2159 4091 2059 4134 
Q 1959 4178 1844 4281 
z
" transform="scale(0.015625)"/>
       <path id="DejaVuSans-41" d="M 2188 4044 
L 1331 1722 
L 3047 1722 
L 2188 4044 
z
M 1831 4666 
L 2547 4666 
L 4325 0 
L 3669 0 
L 3244 1197 
L 1141 1197 
L 716 0 
L 50 0 
L 1831 4666 
z
" transform="scale(0.015625)"/>
       <path id="DejaVuSans-6e" d="M 3513 2113 
L 3513 0 
L 2938 0 
L 2938 2094 
Q 2938 2591 2744 2837 
Q 2550 3084 2163 3084 
Q 1697 3084 1428 2787 
Q 1159 2491 1159 1978 
L 1159 0 
L 581 0 
L 581 3500 
L 1159 3500 
L 1159 2956 
Q 1366 3272 1645 3428 
Q 1925 3584 2291 3584 
Q 2894 3584 3203 3211 
Q 3513 2838 3513 2113 
z
" transform="scale(0.015625)"/>
       <path id="DejaVuSans-ed" d="M 1322 5119 
L 1944 5119 
L 926 3944 
L 447 3944 
L 1322 5119 
z
M 603 3500 
L 1178 3500 
L 1178 0 
L 603 0 
L 603 3500 
z
M 891 3584 
L 891 3584 
z
" transform="scale(0.015625)"/>
       <path id="DejaVuSans-74" d="M 1172 4494 
L 1172 3500 
L 2356 3500 
L 2356 3053 
L 1172 3053 
L 1172 1153 
Q 1172 725 1289 603 
Q 1406 481 1766 481 
L 2356 481 
L 2356 0 
L 1766 0 
Q 1100 0 847 248 
Q 594 497 594 1153 
L 594 3053 
L 172 3053 
L 172 3500 
L 594 3500 
L 594 4494 
L 1172 4494 
z
" transform="scale(0.015625)"/>
       <path id="DejaVuSans-69" d="M 603 3500 
L 1178 3500 
L 1178 0 
L 603 0 
L 603 3500 
z
M 603 4863 
L 1178 4863 
L 1178 4134 
L 603 4134 
L 603 4863 
z
" transform="scale(0.015625)"/>
       <path id="DejaVuSans-63" d="M 3122 3366 
L 3122 2828 
Q 2878 2963 2633 3030 
Q 2388 3097 2138 3097 
Q 1578 3097 1268 2742 
Q 959 2388 959 1747 
Q 959 1106 1268 751 
Q 1578 397 2138 397 
Q 2388 397 2633 464 
Q 2878 531 3122 666 
L 3122 134 
Q 2881 22 2623 -34 
Q 2366 -91 2075 -91 
Q 1284 -91 818 406 
Q 353 903 353 1747 
Q 353 2603 823 3093 
Q 1294 3584 2113 3584 
Q 2378 3584 2631 3529 
Q 2884 3475 3122 3366 
z
" transform="scale(0.015625)"/>
      </defs>
      <use xlink:href="#DejaVuSans-53"/>
      <use xlink:href="#DejaVuSans-6f" transform="translate(63.476562 0)"/>
      <use xlink:href="#DejaVuSans-6c" transform="translate(124.658203 0)"/>
      <use xlink:href="#DejaVuSans-75" transform="translate(152.441406 0)"/>
      <use xlink:href="#DejaVuSans-e7" transform="translate(215.820312 0)"/>
      <use xlink:href="#DejaVuSans-e3" transform="translate(270.800781 0)"/>
      <use xlink:href="#DejaVuSans-6f" transform="translate(332.080078 0)"/>
      <use xlink:href="#DejaVuSans-20" transform="translate(393.261719 0)"/>
      <use xlink:href="#DejaVuSans-41" transform="translate(425.048828 0)"/>
      <use xlink:href="#DejaVuSans-6e" transform="translate(493.457031 0)"/>
      <use xlink:href="#DejaVuSans-61" transform="translate(556.835938 0)"/>
      <use xlink:href="#DejaVuSans-6c" transform="translate(618.115234 0)"/>
      <use xlink:href="#DejaVuSans-ed" transform="translate(645.898438 0)"/>
      <use xlink:href="#DejaVuSans-74" transform="translate(673.681641 0)"/>
      <use xlink:href="#DejaVuSans-69" transform="translate(712.890625 0)"/>
      <use xlink:href="#DejaVuSans-63" transform="translate(740.673828 0)"/>
      <use xlink:href="#DejaVuSans-61" transform="translate(795.654297 0)"/>
     </g>
    </g>
    <g id="line2d_31">
     <path d="M 60.323438 220.902187 
L 70.323438 220.902187 
L 80.323438 220.902187 
" style="fill: none; stroke: #ff0000; stroke-width: 1.5; stroke-linecap: square"/>
    </g>
    <g id="text_18">
     <!-- Euler Explícito -->
     <g transform="translate(88.323438 224.402187) scale(0.1 -0.1)">
      <defs>
       <path id="DejaVuSans-45" d="M 628 4666 
L 3578 4666 
L 3578 4134 
L 1259 4134 
L 1259 2753 
L 3481 2753 
L 3481 2222 
L 1259 2222 
L 1259 531 
L 3634 531 
L 3634 0 
L 628 0 
L 628 4666 
z
" transform="scale(0.015625)"/>
       <path id="DejaVuSans-72" d="M 2631 2963 
Q 2534 3019 2420 3045 
Q 2306 3072 2169 3072 
Q 1681 3072 1420 2755 
Q 1159 2438 1159 1844 
L 1159 0 
L 581 0 
L 581 3500 
L 1159 3500 
L 1159 2956 
Q 1341 3275 1631 3429 
Q 1922 3584 2338 3584 
Q 2397 3584 2469 3576 
Q 2541 3569 2628 3553 
L 2631 2963 
z
" transform="scale(0.015625)"/>
      </defs>
      <use xlink:href="#DejaVuSans-45"/>
      <use xlink:href="#DejaVuSans-75" transform="translate(63.183594 0)"/>
      <use xlink:href="#DejaVuSans-6c" transform="translate(126.5625 0)"/>
      <use xlink:href="#DejaVuSans-65" transform="translate(154.345703 0)"/>
      <use xlink:href="#DejaVuSans-72" transform="translate(215.869141 0)"/>
      <use xlink:href="#DejaVuSans-20" transform="translate(256.982422 0)"/>
      <use xlink:href="#DejaVuSans-45" transform="translate(288.769531 0)"/>
      <use xlink:href="#DejaVuSans-78" transform="translate(351.953125 0)"/>
      <use xlink:href="#DejaVuSans-70" transform="translate(411.132812 0)"/>
      <use xlink:href="#DejaVuSans-6c" transform="translate(474.609375 0)"/>
      <use xlink:href="#DejaVuSans-ed" transform="translate(502.392578 0)"/>
      <use xlink:href="#DejaVuSans-63" transform="translate(530.175781 0)"/>
      <use xlink:href="#DejaVuSans-69" transform="translate(585.15625 0)"/>
      <use xlink:href="#DejaVuSans-74" transform="translate(612.939453 0)"/>
      <use xlink:href="#DejaVuSans-6f" transform="translate(652.148438 0)"/>
     </g>
    </g>
    <g id="line2d_32">
     <path d="M 60.323438 235.980312 
L 70.323438 235.980312 
L 80.323438 235.980312 
" style="fill: none; stroke: #008000; stroke-width: 1.5; stroke-linecap: square"/>
    </g>
    <g id="text_19">
     <!-- Euler Implícito -->
     <g transform="translate(88.323438 239.480312) scale(0.1 -0.1)">
      <defs>
       <path id="DejaVuSans-49" d="M 628 4666 
L 1259 4666 
L 1259 0 
L 628 0 
L 628 4666 
z
" transform="scale(0.015625)"/>
       <path id="DejaVuSans-6d" d="M 3328 2828 
Q 3544 3216 3844 3400 
Q 4144 3584 4550 3584 
Q 5097 3584 5394 3201 
Q 5691 2819 5691 2113 
L 5691 0 
L 5113 0 
L 5113 2094 
Q 5113 2597 4934 2840 
Q 4756 3084 4391 3084 
Q 3944 3084 3684 2787 
Q 3425 2491 3425 1978 
L 3425 0 
L 2847 0 
L 2847 2094 
Q 2847 2600 2669 2842 
Q 2491 3084 2119 3084 
Q 1678 3084 1418 2786 
Q 1159 2488 1159 1978 
L 1159 0 
L 581 0 
L 581 3500 
L 1159 3500 
L 1159 2956 
Q 1356 3278 1631 3431 
Q 1906 3584 2284 3584 
Q 2666 3584 2933 3390 
Q 3200 3197 3328 2828 
z
" transform="scale(0.015625)"/>
      </defs>
      <use xlink:href="#DejaVuSans-45"/>
      <use xlink:href="#DejaVuSans-75" transform="translate(63.183594 0)"/>
      <use xlink:href="#DejaVuSans-6c" transform="translate(126.5625 0)"/>
      <use xlink:href="#DejaVuSans-65" transform="translate(154.345703 0)"/>
      <use xlink:href="#DejaVuSans-72" transform="translate(215.869141 0)"/>
      <use xlink:href="#DejaVuSans-20" transform="translate(256.982422 0)"/>
      <use xlink:href="#DejaVuSans-49" transform="translate(288.769531 0)"/>
      <use xlink:href="#DejaVuSans-6d" transform="translate(318.261719 0)"/>
      <use xlink:href="#DejaVuSans-70" transform="translate(415.673828 0)"/>
      <use xlink:href="#DejaVuSans-6c" transform="translate(479.150391 0)"/>
      <use xlink:href="#DejaVuSans-ed" transform="translate(506.933594 0)"/>
      <use xlink:href="#DejaVuSans-63" transform="translate(534.716797 0)"/>
      <use xlink:href="#DejaVuSans-69" transform="translate(589.697266 0)"/>
      <use xlink:href="#DejaVuSans-74" transform="translate(617.480469 0)"/>
      <use xlink:href="#DejaVuSans-6f" transform="translate(656.689453 0)"/>
     </g>
    </g>
   </g>
  </g>
  <g id="axes_2">
   <g id="patch_8">
    <path d="M 355.687074 250.56 
L 609.323437 250.56 
L 609.323437 28.8 
L 355.687074 28.8 
z
" style="fill: #ffffff"/>
   </g>
   <g id="matplotlib.axis_3">
    <g id="xtick_7">
     <g id="line2d_33">
      <path d="M 367.215999 250.56 
L 367.215999 28.8 
" clip-path="url(#p4a0cc52c50)" style="fill: none; stroke: #b0b0b0; stroke-width: 0.8; stroke-linecap: square"/>
     </g>
     <g id="line2d_34">
      <g>
       <use xlink:href="#mb8ed490b8a" x="367.215999" y="250.56" style="stroke: #000000; stroke-width: 0.8"/>
      </g>
     </g>
     <g id="text_20">
      <!-- 0.0 -->
      <g transform="translate(359.264437 265.158437) scale(0.1 -0.1)">
       <use xlink:href="#DejaVuSans-30"/>
       <use xlink:href="#DejaVuSans-2e" transform="translate(63.623047 0)"/>
       <use xlink:href="#DejaVuSans-30" transform="translate(95.410156 0)"/>
      </g>
     </g>
    </g>
    <g id="xtick_8">
     <g id="line2d_35">
      <path d="M 413.331702 250.56 
L 413.331702 28.8 
" clip-path="url(#p4a0cc52c50)" style="fill: none; stroke: #b0b0b0; stroke-width: 0.8; stroke-linecap: square"/>
     </g>
     <g id="line2d_36">
      <g>
       <use xlink:href="#mb8ed490b8a" x="413.331702" y="250.56" style="stroke: #000000; stroke-width: 0.8"/>
      </g>
     </g>
     <g id="text_21">
      <!-- 0.2 -->
      <g transform="translate(405.380139 265.158437) scale(0.1 -0.1)">
       <use xlink:href="#DejaVuSans-30"/>
       <use xlink:href="#DejaVuSans-2e" transform="translate(63.623047 0)"/>
       <use xlink:href="#DejaVuSans-32" transform="translate(95.410156 0)"/>
      </g>
     </g>
    </g>
    <g id="xtick_9">
     <g id="line2d_37">
      <path d="M 459.447404 250.56 
L 459.447404 28.8 
" clip-path="url(#p4a0cc52c50)" style="fill: none; stroke: #b0b0b0; stroke-width: 0.8; stroke-linecap: square"/>
     </g>
     <g id="line2d_38">
      <g>
       <use xlink:href="#mb8ed490b8a" x="459.447404" y="250.56" style="stroke: #000000; stroke-width: 0.8"/>
      </g>
     </g>
     <g id="text_22">
      <!-- 0.4 -->
      <g transform="translate(451.495842 265.158437) scale(0.1 -0.1)">
       <use xlink:href="#DejaVuSans-30"/>
       <use xlink:href="#DejaVuSans-2e" transform="translate(63.623047 0)"/>
       <use xlink:href="#DejaVuSans-34" transform="translate(95.410156 0)"/>
      </g>
     </g>
    </g>
    <g id="xtick_10">
     <g id="line2d_39">
      <path d="M 505.563107 250.56 
L 505.563107 28.8 
" clip-path="url(#p4a0cc52c50)" style="fill: none; stroke: #b0b0b0; stroke-width: 0.8; stroke-linecap: square"/>
     </g>
     <g id="line2d_40">
      <g>
       <use xlink:href="#mb8ed490b8a" x="505.563107" y="250.56" style="stroke: #000000; stroke-width: 0.8"/>
      </g>
     </g>
     <g id="text_23">
      <!-- 0.6 -->
      <g transform="translate(497.611544 265.158437) scale(0.1 -0.1)">
       <use xlink:href="#DejaVuSans-30"/>
       <use xlink:href="#DejaVuSans-2e" transform="translate(63.623047 0)"/>
       <use xlink:href="#DejaVuSans-36" transform="translate(95.410156 0)"/>
      </g>
     </g>
    </g>
    <g id="xtick_11">
     <g id="line2d_41">
      <path d="M 551.678809 250.56 
L 551.678809 28.8 
" clip-path="url(#p4a0cc52c50)" style="fill: none; stroke: #b0b0b0; stroke-width: 0.8; stroke-linecap: square"/>
     </g>
     <g id="line2d_42">
      <g>
       <use xlink:href="#mb8ed490b8a" x="551.678809" y="250.56" style="stroke: #000000; stroke-width: 0.8"/>
      </g>
     </g>
     <g id="text_24">
      <!-- 0.8 -->
      <g transform="translate(543.727247 265.158437) scale(0.1 -0.1)">
       <use xlink:href="#DejaVuSans-30"/>
       <use xlink:href="#DejaVuSans-2e" transform="translate(63.623047 0)"/>
       <use xlink:href="#DejaVuSans-38" transform="translate(95.410156 0)"/>
      </g>
     </g>
    </g>
    <g id="xtick_12">
     <g id="line2d_43">
      <path d="M 597.794512 250.56 
L 597.794512 28.8 
" clip-path="url(#p4a0cc52c50)" style="fill: none; stroke: #b0b0b0; stroke-width: 0.8; stroke-linecap: square"/>
     </g>
     <g id="line2d_44">
      <g>
       <use xlink:href="#mb8ed490b8a" x="597.794512" y="250.56" style="stroke: #000000; stroke-width: 0.8"/>
      </g>
     </g>
     <g id="text_25">
      <!-- 1.0 -->
      <g transform="translate(589.842949 265.158437) scale(0.1 -0.1)">
       <use xlink:href="#DejaVuSans-31"/>
       <use xlink:href="#DejaVuSans-2e" transform="translate(63.623047 0)"/>
       <use xlink:href="#DejaVuSans-30" transform="translate(95.410156 0)"/>
      </g>
     </g>
    </g>
    <g id="text_26">
     <!-- x -->
     <g transform="translate(479.545881 278.836563) scale(0.1 -0.1)">
      <use xlink:href="#DejaVuSans-78"/>
     </g>
    </g>
   </g>
   <g id="matplotlib.axis_4">
    <g id="ytick_8">
     <g id="line2d_45">
      <path d="M 355.687074 230.288611 
L 609.323437 230.288611 
" clip-path="url(#p4a0cc52c50)" style="fill: none; stroke: #b0b0b0; stroke-width: 0.8; stroke-linecap: square"/>
     </g>
     <g id="line2d_46">
      <g>
       <use xlink:href="#md7b8c9e6ef" x="355.687074" y="230.288611" style="stroke: #000000; stroke-width: 0.8"/>
      </g>
     </g>
     <g id="text_27">
      <!-- −0.4 -->
      <g transform="translate(324.404261 234.08783) scale(0.1 -0.1)">
       <use xlink:href="#DejaVuSans-2212"/>
       <use xlink:href="#DejaVuSans-30" transform="translate(83.789062 0)"/>
       <use xlink:href="#DejaVuSans-2e" transform="translate(147.412109 0)"/>
       <use xlink:href="#DejaVuSans-34" transform="translate(179.199219 0)"/>
      </g>
     </g>
    </g>
    <g id="ytick_9">
     <g id="line2d_47">
      <path d="M 355.687074 200.171664 
L 609.323437 200.171664 
" clip-path="url(#p4a0cc52c50)" style="fill: none; stroke: #b0b0b0; stroke-width: 0.8; stroke-linecap: square"/>
     </g>
     <g id="line2d_48">
      <g>
       <use xlink:href="#md7b8c9e6ef" x="355.687074" y="200.171664" style="stroke: #000000; stroke-width: 0.8"/>
      </g>
     </g>
     <g id="text_28">
      <!-- −0.2 -->
      <g transform="translate(324.404261 203.970883) scale(0.1 -0.1)">
       <use xlink:href="#DejaVuSans-2212"/>
       <use xlink:href="#DejaVuSans-30" transform="translate(83.789062 0)"/>
       <use xlink:href="#DejaVuSans-2e" transform="translate(147.412109 0)"/>
       <use xlink:href="#DejaVuSans-32" transform="translate(179.199219 0)"/>
      </g>
     </g>
    </g>
    <g id="ytick_10">
     <g id="line2d_49">
      <path d="M 355.687074 170.054716 
L 609.323437 170.054716 
" clip-path="url(#p4a0cc52c50)" style="fill: none; stroke: #b0b0b0; stroke-width: 0.8; stroke-linecap: square"/>
     </g>
     <g id="line2d_50">
      <g>
       <use xlink:href="#md7b8c9e6ef" x="355.687074" y="170.054716" style="stroke: #000000; stroke-width: 0.8"/>
      </g>
     </g>
     <g id="text_29">
      <!-- 0.0 -->
      <g transform="translate(332.783949 173.853935) scale(0.1 -0.1)">
       <use xlink:href="#DejaVuSans-30"/>
       <use xlink:href="#DejaVuSans-2e" transform="translate(63.623047 0)"/>
       <use xlink:href="#DejaVuSans-30" transform="translate(95.410156 0)"/>
      </g>
     </g>
    </g>
    <g id="ytick_11">
     <g id="line2d_51">
      <path d="M 355.687074 139.937769 
L 609.323437 139.937769 
" clip-path="url(#p4a0cc52c50)" style="fill: none; stroke: #b0b0b0; stroke-width: 0.8; stroke-linecap: square"/>
     </g>
     <g id="line2d_52">
      <g>
       <use xlink:href="#md7b8c9e6ef" x="355.687074" y="139.937769" style="stroke: #000000; stroke-width: 0.8"/>
      </g>
     </g>
     <g id="text_30">
      <!-- 0.2 -->
      <g transform="translate(332.783949 143.736988) scale(0.1 -0.1)">
       <use xlink:href="#DejaVuSans-30"/>
       <use xlink:href="#DejaVuSans-2e" transform="translate(63.623047 0)"/>
       <use xlink:href="#DejaVuSans-32" transform="translate(95.410156 0)"/>
      </g>
     </g>
    </g>
    <g id="ytick_12">
     <g id="line2d_53">
      <path d="M 355.687074 109.820822 
L 609.323437 109.820822 
" clip-path="url(#p4a0cc52c50)" style="fill: none; stroke: #b0b0b0; stroke-width: 0.8; stroke-linecap: square"/>
     </g>
     <g id="line2d_54">
      <g>
       <use xlink:href="#md7b8c9e6ef" x="355.687074" y="109.820822" style="stroke: #000000; stroke-width: 0.8"/>
      </g>
     </g>
     <g id="text_31">
      <!-- 0.4 -->
      <g transform="translate(332.783949 113.620041) scale(0.1 -0.1)">
       <use xlink:href="#DejaVuSans-30"/>
       <use xlink:href="#DejaVuSans-2e" transform="translate(63.623047 0)"/>
       <use xlink:href="#DejaVuSans-34" transform="translate(95.410156 0)"/>
      </g>
     </g>
    </g>
    <g id="ytick_13">
     <g id="line2d_55">
      <path d="M 355.687074 79.703874 
L 609.323437 79.703874 
" clip-path="url(#p4a0cc52c50)" style="fill: none; stroke: #b0b0b0; stroke-width: 0.8; stroke-linecap: square"/>
     </g>
     <g id="line2d_56">
      <g>
       <use xlink:href="#md7b8c9e6ef" x="355.687074" y="79.703874" style="stroke: #000000; stroke-width: 0.8"/>
      </g>
     </g>
     <g id="text_32">
      <!-- 0.6 -->
      <g transform="translate(332.783949 83.503093) scale(0.1 -0.1)">
       <use xlink:href="#DejaVuSans-30"/>
       <use xlink:href="#DejaVuSans-2e" transform="translate(63.623047 0)"/>
       <use xlink:href="#DejaVuSans-36" transform="translate(95.410156 0)"/>
      </g>
     </g>
    </g>
    <g id="ytick_14">
     <g id="line2d_57">
      <path d="M 355.687074 49.586927 
L 609.323437 49.586927 
" clip-path="url(#p4a0cc52c50)" style="fill: none; stroke: #b0b0b0; stroke-width: 0.8; stroke-linecap: square"/>
     </g>
     <g id="line2d_58">
      <g>
       <use xlink:href="#md7b8c9e6ef" x="355.687074" y="49.586927" style="stroke: #000000; stroke-width: 0.8"/>
      </g>
     </g>
     <g id="text_33">
      <!-- 0.8 -->
      <g transform="translate(332.783949 53.386146) scale(0.1 -0.1)">
       <use xlink:href="#DejaVuSans-30"/>
       <use xlink:href="#DejaVuSans-2e" transform="translate(63.623047 0)"/>
       <use xlink:href="#DejaVuSans-38" transform="translate(95.410156 0)"/>
      </g>
     </g>
    </g>
    <g id="text_34">
     <!-- y -->
     <g transform="translate(318.324574 142.639375) rotate(-90) scale(0.1 -0.1)">
      <use xlink:href="#DejaVuSans-79"/>
     </g>
    </g>
   </g>
   <g id="line2d_59">
    <path d="M 367.215999 170.054716 
L 367.677618 169.919231 
L 368.139237 169.514345 
L 368.600855 168.843135 
L 369.293283 167.346028 
L 369.985711 165.276494 
L 370.908949 161.665538 
L 371.832186 157.141297 
L 372.986233 150.320981 
L 374.371088 140.665435 
L 376.217563 125.883543 
L 379.218084 99.519432 
L 381.987796 75.901847 
L 383.603461 63.828679 
L 384.988317 55.050682 
L 386.142364 49.090392 
L 387.065601 45.322026 
L 387.988838 42.513126 
L 388.681266 41.06702 
L 389.373694 40.205223 
L 389.835313 39.961005 
L 390.296932 39.983628 
L 390.75855 40.274221 
L 391.220169 40.832941 
L 391.912597 42.171702 
L 392.605025 44.104829 
L 393.528262 47.585978 
L 394.451499 52.061558 
L 395.605546 58.968893 
L 396.759593 67.204904 
L 398.144449 78.603686 
L 399.990923 95.806903 
L 402.991444 126.391727 
L 405.991966 156.432596 
L 407.83844 172.785363 
L 409.223296 183.316585 
L 410.377343 190.698145 
L 411.531389 196.648872 
L 412.454627 200.297799 
L 413.147055 202.355103 
L 413.839482 203.814473 
L 414.301101 204.450642 
L 414.76272 204.815632 
L 415.224338 204.909008 
L 415.685957 204.731309 
L 416.147576 204.284047 
L 416.609194 203.5697 
L 417.301622 202.005169 
L 417.99405 199.86322 
L 418.917288 196.144692 
L 419.840525 191.496401 
L 420.994571 184.491869 
L 422.379427 174.563523 
L 423.995093 161.319355 
L 426.533995 138.340686 
L 430.226944 105.042043 
L 431.84261 92.315425 
L 433.227465 82.972741 
L 434.381512 76.540058 
L 435.304749 72.393504 
L 436.227987 69.206959 
L 436.920415 67.478441 
L 437.612843 66.335316 
L 438.074461 65.904322 
L 438.53608 65.740911 
L 438.997699 65.84632 
L 439.459317 66.220811 
L 439.920936 66.863672 
L 440.613364 68.327213 
L 441.305792 70.380832 
L 442.229029 74.011063 
L 443.152266 78.61654 
L 444.306313 85.649875 
L 445.691169 95.761534 
L 447.306834 109.463988 
L 449.384118 129.193926 
L 454.923542 183.173437 
L 456.539207 196.457155 
L 457.924063 206.111569 
L 459.07811 212.703907 
L 460.001347 216.923238 
L 460.924584 220.142648 
L 461.617012 221.874868 
L 462.30944 223.007975 
L 462.771059 223.426591 
L 463.232677 223.574423 
L 463.694296 223.451408 
L 464.155915 223.058455 
L 464.617533 222.397445 
L 465.309961 220.909805 
L 466.002389 218.839268 
L 466.925626 215.20415 
L 467.848864 210.62184 
L 469.00291 203.669177 
L 470.387766 193.74896 
L 472.003432 180.426875 
L 474.311525 159.294871 
L 478.466093 120.817811 
L 480.312567 105.993666 
L 481.697423 96.596165 
L 482.85147 90.15021 
L 483.774707 86.010899 
L 484.697944 82.844637 
L 485.390372 81.138212 
L 486.0828 80.021724 
L 486.544419 79.610395 
L 487.006037 79.467738 
L 487.467656 79.594612 
L 487.929275 79.990901 
L 488.390893 80.655517 
L 489.083321 82.150786 
L 489.775749 84.233936 
L 490.698987 87.898015 
L 491.622224 92.528462 
L 492.77627 99.576518 
L 494.161126 109.675481 
L 495.776792 123.312483 
L 497.854076 142.86516 
L 503.16269 193.823097 
L 504.778355 206.938751 
L 506.163211 216.466674 
L 507.317258 222.964289 
L 508.240495 227.113779 
L 509.163732 230.267738 
L 509.85616 231.953235 
L 510.548588 233.041228 
L 511.010207 233.430474 
L 511.471826 233.549368 
L 511.933444 233.397733 
L 512.395063 232.976364 
L 512.856681 232.287027 
L 513.549109 230.756821 
L 514.241537 228.643293 
L 515.164775 224.949568 
L 516.088012 220.306426 
L 517.242059 213.273423 
L 518.626915 203.248702 
L 520.24258 189.791036 
L 522.550673 168.435453 
L 526.93605 127.457098 
L 528.551715 114.376226 
L 529.936571 104.77184 
L 531.090618 98.146914 
L 532.013855 93.861107 
L 532.937092 90.546226 
L 533.62952 88.727435 
L 534.321948 87.498205 
L 534.783567 87.011685 
L 535.245186 86.793942 
L 535.706804 86.845944 
L 536.168423 87.167688 
L 536.630042 87.758193 
L 537.32247 89.143354 
L 538.014898 91.117988 
L 538.938135 94.640471 
L 539.861372 99.133603 
L 541.015419 106.017195 
L 542.400275 115.931121 
L 544.01594 129.371753 
L 546.093224 148.706503 
L 551.401838 199.296413 
L 553.017503 212.351031 
L 554.402359 221.842496 
L 555.556406 228.31925 
L 556.479643 232.457242 
L 557.402881 235.603443 
L 558.095309 237.285063 
L 558.787737 238.370434 
L 559.249355 238.758441 
L 559.710974 238.876373 
L 560.172592 238.723939 
L 560.634211 238.301821 
L 561.09583 237.611672 
L 561.788258 236.079887 
L 562.480686 233.964016 
L 563.403923 230.265359 
L 564.32716 225.614467 
L 565.481207 218.566646 
L 566.866063 208.514845 
L 568.481728 195.010271 
L 570.789821 173.554723 
L 575.175198 132.271295 
L 576.790864 119.042091 
L 578.17572 109.297694 
L 579.329766 102.548552 
L 580.253003 98.15942 
L 581.176241 94.738534 
L 581.868669 92.838971 
L 582.561097 91.528281 
L 583.022715 90.987254 
L 583.484334 90.714972 
L 583.945953 90.712515 
L 584.407571 90.979989 
L 584.86919 91.516526 
L 585.561618 92.821541 
L 586.254046 94.717325 
L 587.177283 98.13731 
L 588.10052 102.531707 
L 589.254567 109.298352 
L 590.639423 119.08324 
L 592.255088 132.391473 
L 594.332372 151.588475 
L 597.794512 185.207682 
L 597.794512 185.207682 
" clip-path="url(#p4a0cc52c50)" style="fill: none; stroke: #0000ff; stroke-width: 1.5; stroke-linecap: square"/>
   </g>
   <g id="line2d_60">
    <path d="M 367.215999 170.054716 
L 369.521785 170.054716 
L 371.82757 163.379592 
L 374.133355 150.825865 
L 376.43914 133.709169 
L 378.744925 113.746906 
L 381.05071 92.905012 
L 383.356495 73.222515 
L 385.66228 56.629558 
L 387.968066 44.775146 
L 390.273851 38.88 
L 392.579636 39.627664 
L 394.885421 47.103589 
L 397.191206 60.787647 
L 399.496991 79.600722 
L 401.802776 102.001243 
L 404.108561 126.123014 
L 406.414347 149.942043 
L 408.720132 171.457457 
L 411.025917 188.870356 
L 413.331702 200.744612 
L 415.637487 206.135272 
L 417.943272 204.673067 
L 420.249057 196.597511 
L 422.554842 182.735597 
L 424.860628 164.428031 
L 427.166413 143.409559 
L 429.472198 121.654106 
L 431.777983 101.198534 
L 434.083768 83.960787 
L 436.389553 71.568648 
L 438.695338 65.214417 
L 441.001123 65.548485 
L 443.306909 72.621315 
L 445.612694 85.879005 
L 447.918479 104.212844 
L 450.224264 126.058413 
L 452.530049 149.535406 
L 454.835834 172.615651 
L 457.141619 193.304349 
L 459.447404 209.818325 
L 461.75319 220.74537 
L 464.058975 225.170454 
L 466.36476 222.757515 
L 468.670545 213.779533 
L 470.97633 199.094203 
L 473.282115 180.067369 
L 475.5879 158.451064 
L 477.893685 136.227063 
L 480.199471 115.429894 
L 482.505256 97.965154 
L 484.811041 85.439328 
L 487.116826 79.016328 
L 489.422611 79.313571 
L 491.728396 86.346864 
L 494.034181 99.529031 
L 496.339966 117.722403 
L 498.645752 139.340479 
L 500.951537 162.489682 
L 503.257322 185.138536 
L 505.563107 205.299169 
L 507.868892 221.204918 
L 510.174677 231.468167 
L 512.480462 235.204333 
L 514.786247 232.110912 
L 517.092033 222.494528 
L 519.397818 207.243574 
L 521.703603 187.748881 
L 524.009388 165.779506 
L 526.315173 143.32473 
L 528.620958 122.41639 
L 530.926743 104.947404 
L 533.232528 92.502706 
L 535.538314 86.217691 
L 537.844099 86.676814 
L 540.149884 93.861406 
L 542.455669 107.151362 
L 544.761454 125.380553 
L 547.067239 146.941011 
L 549.373024 169.926585 
L 551.678809 192.303229 
L 553.984595 212.090716 
L 556.29038 227.53954 
L 558.596165 237.287217 
L 560.90195 240.48 
L 563.207735 236.849165 
L 565.51352 226.735025 
L 567.819305 211.05655 
L 570.12509 191.229287 
L 572.430876 169.038935 
L 574.736661 146.481839 
L 577.042446 125.586683 
L 579.348231 108.233281 
L 581.654016 95.984674 
L 583.959801 89.94752 
L 586.265586 90.673249 
L 588.571371 98.108821 
L 590.877157 111.601469 
L 593.182942 129.957025 
L 595.488727 151.546598 
L 597.794512 174.452089 
" clip-path="url(#p4a0cc52c50)" style="fill: none; stroke: #ff0000; stroke-width: 1.5; stroke-linecap: square"/>
   </g>
   <g id="line2d_61">
    <path d="M 367.215999 170.054716 
L 369.521785 163.574013 
L 371.82757 151.380265 
L 374.133355 134.745967 
L 376.43914 115.334931 
L 378.744925 95.05383 
L 381.05071 75.882022 
L 383.356495 59.694894 
L 385.66228 48.096474 
L 387.968066 42.276294 
L 390.273851 42.90326 
L 392.579636 50.066034 
L 394.885421 63.265242 
L 397.191206 81.4582 
L 399.496991 103.152178 
L 401.802776 126.537851 
L 404.108561 149.651039 
L 406.414347 170.548267 
L 408.720132 187.480474 
L 411.025917 199.049361 
L 413.331702 204.332387 
L 415.637487 202.965282 
L 417.943272 195.174678 
L 420.249057 181.757951 
L 422.554842 164.012089 
L 424.860628 143.617921 
L 427.166413 122.490053 
L 429.472198 102.605927 
L 431.777983 85.829258 
L 434.083768 73.743633 
L 436.389553 67.511128 
L 438.695338 67.768572 
L 441.001123 74.570734 
L 443.306909 87.385499 
L 445.612694 105.141463 
L 447.918479 126.323707 
L 450.224264 149.109176 
L 452.530049 171.529596 
L 454.835834 191.647344 
L 457.141619 207.728592 
L 459.447404 218.39824 
L 461.75319 222.762801 
L 464.058975 220.490267 
L 466.36476 211.839816 
L 468.670545 197.638711 
L 470.97633 179.208449 
L 473.282115 158.246763 
L 475.5879 136.676013 
L 477.893685 116.471511 
L 480.199471 99.485114 
L 482.505256 87.279847 
L 484.811041 80.990318 
L 487.116826 81.221409 
L 489.422611 87.99428 
L 491.728396 100.744517 
L 494.034181 118.372583 
L 496.339966 139.342069 
L 498.645752 161.816977 
L 500.951537 183.825749 
L 503.257322 203.437416 
L 505.563107 218.934116 
L 507.868892 228.964576 
L 510.174677 232.664842 
L 512.480462 229.735485 
L 514.786247 220.468377 
L 517.092033 205.72064 
L 519.397818 186.838112 
L 521.703603 165.535148 
L 524.009388 143.741512 
L 526.315173 123.430013 
L 528.620958 106.44031 
L 530.926743 94.314597 
L 533.232528 88.159866 
L 535.538314 88.549048 
L 537.844099 95.469849 
L 540.149884 108.325872 
L 542.455669 125.989906 
L 544.761454 146.904641 
L 547.067239 169.221792 
L 549.373024 190.967217 
L 551.678809 210.217282 
L 553.984595 225.270707 
L 556.29038 234.800553 
L 558.596165 237.97277 
L 560.90195 234.520713 
L 563.207735 224.768979 
L 565.51352 209.604422 
L 567.819305 190.396948 
L 570.12509 168.877159 
L 572.430876 146.981778 
L 574.736661 126.680657 
L 577.042446 109.80083 
L 579.348231 97.863322 
L 581.654016 91.94729 
L 583.959801 92.593636 
L 586.265586 99.756704 
L 588.571371 112.808366 
L 590.877157 130.594141 
L 593.182942 151.536335 
L 595.488727 173.774975 
L 597.794512 195.33397 
" clip-path="url(#p4a0cc52c50)" style="fill: none; stroke: #008000; stroke-width: 1.5; stroke-linecap: square"/>
   </g>
   <g id="patch_9">
    <path d="M 355.687074 250.56 
L 355.687074 28.8 
" style="fill: none; stroke: #000000; stroke-width: 0.8; stroke-linejoin: miter; stroke-linecap: square"/>
   </g>
   <g id="patch_10">
    <path d="M 609.323437 250.56 
L 609.323437 28.8 
" style="fill: none; stroke: #000000; stroke-width: 0.8; stroke-linejoin: miter; stroke-linecap: square"/>
   </g>
   <g id="patch_11">
    <path d="M 355.687074 250.56 
L 609.323437 250.56 
" style="fill: none; stroke: #000000; stroke-width: 0.8; stroke-linejoin: miter; stroke-linecap: square"/>
   </g>
   <g id="patch_12">
    <path d="M 355.687074 28.8 
L 609.323437 28.8 
" style="fill: none; stroke: #000000; stroke-width: 0.8; stroke-linejoin: miter; stroke-linecap: square"/>
   </g>
   <g id="text_35">
    <!-- passo = 1e-2 -->
    <g transform="translate(529.840312 22.8) scale(0.12 -0.12)">
     <use xlink:href="#DejaVuSans-70"/>
     <use xlink:href="#DejaVuSans-61" transform="translate(63.476562 0)"/>
     <use xlink:href="#DejaVuSans-73" transform="translate(124.755859 0)"/>
     <use xlink:href="#DejaVuSans-73" transform="translate(176.855469 0)"/>
     <use xlink:href="#DejaVuSans-6f" transform="translate(228.955078 0)"/>
     <use xlink:href="#DejaVuSans-20" transform="translate(290.136719 0)"/>
     <use xlink:href="#DejaVuSans-3d" transform="translate(321.923828 0)"/>
     <use xlink:href="#DejaVuSans-20" transform="translate(405.712891 0)"/>
     <use xlink:href="#DejaVuSans-31" transform="translate(437.5 0)"/>
     <use xlink:href="#DejaVuSans-65" transform="translate(501.123047 0)"/>
     <use xlink:href="#DejaVuSans-2d" transform="translate(562.646484 0)"/>
     <use xlink:href="#DejaVuSans-32" transform="translate(598.730469 0)"/>
    </g>
   </g>
   <g id="legend_2">
    <g id="patch_13">
     <path d="M 484.629687 81.882812 
L 602.323437 81.882812 
Q 604.323437 81.882812 604.323437 79.882812 
L 604.323437 35.8 
Q 604.323437 33.8 602.323437 33.8 
L 484.629687 33.8 
Q 482.629687 33.8 482.629687 35.8 
L 482.629687 79.882812 
Q 482.629687 81.882812 484.629687 81.882812 
z
" style="fill: #ffffff; opacity: 0.8; stroke: #cccccc; stroke-linejoin: miter"/>
    </g>
    <g id="line2d_62">
     <path d="M 486.629687 42.146875 
L 496.629687 42.146875 
L 506.629687 42.146875 
" style="fill: none; stroke: #0000ff; stroke-width: 1.5; stroke-linecap: square"/>
    </g>
    <g id="text_36">
     <!-- Solução Analítica -->
     <g transform="translate(514.629687 45.646875) scale(0.1 -0.1)">
      <use xlink:href="#DejaVuSans-53"/>
      <use xlink:href="#DejaVuSans-6f" transform="translate(63.476562 0)"/>
      <use xlink:href="#DejaVuSans-6c" transform="translate(124.658203 0)"/>
      <use xlink:href="#DejaVuSans-75" transform="translate(152.441406 0)"/>
      <use xlink:href="#DejaVuSans-e7" transform="translate(215.820312 0)"/>
      <use xlink:href="#DejaVuSans-e3" transform="translate(270.800781 0)"/>
      <use xlink:href="#DejaVuSans-6f" transform="translate(332.080078 0)"/>
      <use xlink:href="#DejaVuSans-20" transform="translate(393.261719 0)"/>
      <use xlink:href="#DejaVuSans-41" transform="translate(425.048828 0)"/>
      <use xlink:href="#DejaVuSans-6e" transform="translate(493.457031 0)"/>
      <use xlink:href="#DejaVuSans-61" transform="translate(556.835938 0)"/>
      <use xlink:href="#DejaVuSans-6c" transform="translate(618.115234 0)"/>
      <use xlink:href="#DejaVuSans-ed" transform="translate(645.898438 0)"/>
      <use xlink:href="#DejaVuSans-74" transform="translate(673.681641 0)"/>
      <use xlink:href="#DejaVuSans-69" transform="translate(712.890625 0)"/>
      <use xlink:href="#DejaVuSans-63" transform="translate(740.673828 0)"/>
      <use xlink:href="#DejaVuSans-61" transform="translate(795.654297 0)"/>
     </g>
    </g>
    <g id="line2d_63">
     <path d="M 486.629687 57.225 
L 496.629687 57.225 
L 506.629687 57.225 
" style="fill: none; stroke: #ff0000; stroke-width: 1.5; stroke-linecap: square"/>
    </g>
    <g id="text_37">
     <!-- Euler Explícito -->
     <g transform="translate(514.629687 60.725) scale(0.1 -0.1)">
      <use xlink:href="#DejaVuSans-45"/>
      <use xlink:href="#DejaVuSans-75" transform="translate(63.183594 0)"/>
      <use xlink:href="#DejaVuSans-6c" transform="translate(126.5625 0)"/>
      <use xlink:href="#DejaVuSans-65" transform="translate(154.345703 0)"/>
      <use xlink:href="#DejaVuSans-72" transform="translate(215.869141 0)"/>
      <use xlink:href="#DejaVuSans-20" transform="translate(256.982422 0)"/>
      <use xlink:href="#DejaVuSans-45" transform="translate(288.769531 0)"/>
      <use xlink:href="#DejaVuSans-78" transform="translate(351.953125 0)"/>
      <use xlink:href="#DejaVuSans-70" transform="translate(411.132812 0)"/>
      <use xlink:href="#DejaVuSans-6c" transform="translate(474.609375 0)"/>
      <use xlink:href="#DejaVuSans-ed" transform="translate(502.392578 0)"/>
      <use xlink:href="#DejaVuSans-63" transform="translate(530.175781 0)"/>
      <use xlink:href="#DejaVuSans-69" transform="translate(585.15625 0)"/>
      <use xlink:href="#DejaVuSans-74" transform="translate(612.939453 0)"/>
      <use xlink:href="#DejaVuSans-6f" transform="translate(652.148438 0)"/>
     </g>
    </g>
    <g id="line2d_64">
     <path d="M 486.629687 72.303125 
L 496.629687 72.303125 
L 506.629687 72.303125 
" style="fill: none; stroke: #008000; stroke-width: 1.5; stroke-linecap: square"/>
    </g>
    <g id="text_38">
     <!-- Euler Implícito -->
     <g transform="translate(514.629687 75.803125) scale(0.1 -0.1)">
      <use xlink:href="#DejaVuSans-45"/>
      <use xlink:href="#DejaVuSans-75" transform="translate(63.183594 0)"/>
      <use xlink:href="#DejaVuSans-6c" transform="translate(126.5625 0)"/>
      <use xlink:href="#DejaVuSans-65" transform="translate(154.345703 0)"/>
      <use xlink:href="#DejaVuSans-72" transform="translate(215.869141 0)"/>
      <use xlink:href="#DejaVuSans-20" transform="translate(256.982422 0)"/>
      <use xlink:href="#DejaVuSans-49" transform="translate(288.769531 0)"/>
      <use xlink:href="#DejaVuSans-6d" transform="translate(318.261719 0)"/>
      <use xlink:href="#DejaVuSans-70" transform="translate(415.673828 0)"/>
      <use xlink:href="#DejaVuSans-6c" transform="translate(479.150391 0)"/>
      <use xlink:href="#DejaVuSans-ed" transform="translate(506.933594 0)"/>
      <use xlink:href="#DejaVuSans-63" transform="translate(534.716797 0)"/>
      <use xlink:href="#DejaVuSans-69" transform="translate(589.697266 0)"/>
      <use xlink:href="#DejaVuSans-74" transform="translate(617.480469 0)"/>
      <use xlink:href="#DejaVuSans-6f" transform="translate(656.689453 0)"/>
     </g>
    </g>
   </g>
  </g>
  <g id="text_39">
   <!-- EDO: $\dfrac{dI}{dt} = 15\cdot sen(30\cdot t) - 3\cdot I$	 PVI: I(0)=0 -->
   <g transform="translate(183.563438 14.64) scale(0.12 -0.12)">
    <defs>
     <path id="DejaVuSans-44" d="M 1259 4147 
L 1259 519 
L 2022 519 
Q 2988 519 3436 956 
Q 3884 1394 3884 2338 
Q 3884 3275 3436 3711 
Q 2988 4147 2022 4147 
L 1259 4147 
z
M 628 4666 
L 1925 4666 
Q 3281 4666 3915 4102 
Q 4550 3538 4550 2338 
Q 4550 1131 3912 565 
Q 3275 0 1925 0 
L 628 0 
L 628 4666 
z
" transform="scale(0.015625)"/>
     <path id="DejaVuSans-4f" d="M 2522 4238 
Q 1834 4238 1429 3725 
Q 1025 3213 1025 2328 
Q 1025 1447 1429 934 
Q 1834 422 2522 422 
Q 3209 422 3611 934 
Q 4013 1447 4013 2328 
Q 4013 3213 3611 3725 
Q 3209 4238 2522 4238 
z
M 2522 4750 
Q 3503 4750 4090 4092 
Q 4678 3434 4678 2328 
Q 4678 1225 4090 567 
Q 3503 -91 2522 -91 
Q 1538 -91 948 565 
Q 359 1222 359 2328 
Q 359 3434 948 4092 
Q 1538 4750 2522 4750 
z
" transform="scale(0.015625)"/>
     <path id="DejaVuSans-3a" d="M 750 794 
L 1409 794 
L 1409 0 
L 750 0 
L 750 794 
z
M 750 3309 
L 1409 3309 
L 1409 2516 
L 750 2516 
L 750 3309 
z
" transform="scale(0.015625)"/>
     <path id="DejaVuSans-Oblique-64" d="M 2675 525 
Q 2444 222 2128 65 
Q 1813 -91 1428 -91 
Q 903 -91 598 267 
Q 294 625 294 1247 
Q 294 1766 478 2236 
Q 663 2706 1013 3078 
Q 1244 3325 1534 3454 
Q 1825 3584 2144 3584 
Q 2481 3584 2739 3421 
Q 2997 3259 3138 2956 
L 3513 4863 
L 4091 4863 
L 3144 0 
L 2566 0 
L 2675 525 
z
M 891 1350 
Q 891 897 1095 644 
Q 1300 391 1663 391 
Q 1931 391 2161 520 
Q 2391 650 2566 903 
Q 2750 1166 2856 1509 
Q 2963 1853 2963 2188 
Q 2963 2622 2758 2865 
Q 2553 3109 2194 3109 
Q 1922 3109 1687 2981 
Q 1453 2853 1288 2613 
Q 1106 2353 998 2009 
Q 891 1666 891 1350 
z
" transform="scale(0.015625)"/>
     <path id="DejaVuSans-Oblique-49" d="M 1081 4666 
L 1716 4666 
L 806 0 
L 172 0 
L 1081 4666 
z
" transform="scale(0.015625)"/>
     <path id="DejaVuSans-Oblique-74" d="M 2706 3500 
L 2619 3053 
L 1472 3053 
L 1100 1153 
Q 1081 1047 1072 975 
Q 1063 903 1063 863 
Q 1063 663 1183 572 
Q 1303 481 1569 481 
L 2150 481 
L 2053 0 
L 1503 0 
Q 991 0 739 200 
Q 488 400 488 806 
Q 488 878 497 964 
Q 506 1050 525 1153 
L 897 3053 
L 409 3053 
L 500 3500 
L 978 3500 
L 1172 4494 
L 1747 4494 
L 1556 3500 
L 2706 3500 
z
" transform="scale(0.015625)"/>
     <path id="DejaVuSans-22c5" d="M 684 2619 
L 1344 2619 
L 1344 1825 
L 684 1825 
L 684 2619 
z
" transform="scale(0.015625)"/>
     <path id="DejaVuSans-Oblique-73" d="M 3200 3397 
L 3091 2853 
Q 2863 2978 2609 3040 
Q 2356 3103 2088 3103 
Q 1634 3103 1373 2948 
Q 1113 2794 1113 2528 
Q 1113 2219 1719 2053 
Q 1766 2041 1788 2034 
L 1972 1978 
Q 2547 1819 2739 1644 
Q 2931 1469 2931 1166 
Q 2931 609 2489 259 
Q 2047 -91 1331 -91 
Q 1053 -91 747 -37 
Q 441 16 72 128 
L 184 722 
Q 500 559 806 475 
Q 1113 391 1394 391 
Q 1816 391 2080 572 
Q 2344 753 2344 1031 
Q 2344 1331 1650 1516 
L 1591 1531 
L 1394 1581 
Q 956 1697 753 1886 
Q 550 2075 550 2369 
Q 550 2928 970 3256 
Q 1391 3584 2113 3584 
Q 2397 3584 2667 3537 
Q 2938 3491 3200 3397 
z
" transform="scale(0.015625)"/>
     <path id="DejaVuSans-Oblique-65" d="M 3078 2063 
Q 3088 2113 3092 2166 
Q 3097 2219 3097 2272 
Q 3097 2653 2873 2875 
Q 2650 3097 2266 3097 
Q 1838 3097 1509 2826 
Q 1181 2556 1013 2059 
L 3078 2063 
z
M 3578 1613 
L 903 1613 
Q 884 1494 878 1425 
Q 872 1356 872 1306 
Q 872 872 1139 634 
Q 1406 397 1894 397 
Q 2269 397 2603 481 
Q 2938 566 3225 728 
L 3116 159 
Q 2806 34 2476 -28 
Q 2147 -91 1806 -91 
Q 1078 -91 686 257 
Q 294 606 294 1247 
Q 294 1794 489 2264 
Q 684 2734 1063 3103 
Q 1306 3334 1642 3459 
Q 1978 3584 2356 3584 
Q 2950 3584 3301 3228 
Q 3653 2872 3653 2272 
Q 3653 2128 3634 1964 
Q 3616 1800 3578 1613 
z
" transform="scale(0.015625)"/>
     <path id="DejaVuSans-Oblique-6e" d="M 3566 2113 
L 3156 0 
L 2578 0 
L 2988 2091 
Q 3016 2238 3031 2350 
Q 3047 2463 3047 2528 
Q 3047 2791 2881 2937 
Q 2716 3084 2419 3084 
Q 1956 3084 1622 2776 
Q 1288 2469 1184 1941 
L 800 0 
L 225 0 
L 903 3500 
L 1478 3500 
L 1363 2950 
Q 1603 3253 1940 3418 
Q 2278 3584 2650 3584 
Q 3113 3584 3367 3334 
Q 3622 3084 3622 2631 
Q 3622 2519 3608 2391 
Q 3594 2263 3566 2113 
z
" transform="scale(0.015625)"/>
     <path id="DejaVuSans-28" d="M 1984 4856 
Q 1566 4138 1362 3434 
Q 1159 2731 1159 2009 
Q 1159 1288 1364 580 
Q 1569 -128 1984 -844 
L 1484 -844 
Q 1016 -109 783 600 
Q 550 1309 550 2009 
Q 550 2706 781 3412 
Q 1013 4119 1484 4856 
L 1984 4856 
z
" transform="scale(0.015625)"/>
     <path id="DejaVuSans-33" d="M 2597 2516 
Q 3050 2419 3304 2112 
Q 3559 1806 3559 1356 
Q 3559 666 3084 287 
Q 2609 -91 1734 -91 
Q 1441 -91 1130 -33 
Q 819 25 488 141 
L 488 750 
Q 750 597 1062 519 
Q 1375 441 1716 441 
Q 2309 441 2620 675 
Q 2931 909 2931 1356 
Q 2931 1769 2642 2001 
Q 2353 2234 1838 2234 
L 1294 2234 
L 1294 2753 
L 1863 2753 
Q 2328 2753 2575 2939 
Q 2822 3125 2822 3475 
Q 2822 3834 2567 4026 
Q 2313 4219 1838 4219 
Q 1578 4219 1281 4162 
Q 984 4106 628 3988 
L 628 4550 
Q 988 4650 1302 4700 
Q 1616 4750 1894 4750 
Q 2613 4750 3031 4423 
Q 3450 4097 3450 3541 
Q 3450 3153 3228 2886 
Q 3006 2619 2597 2516 
z
" transform="scale(0.015625)"/>
     <path id="DejaVuSans-29" d="M 513 4856 
L 1013 4856 
Q 1481 4119 1714 3412 
Q 1947 2706 1947 2009 
Q 1947 1309 1714 600 
Q 1481 -109 1013 -844 
L 513 -844 
Q 928 -128 1133 580 
Q 1338 1288 1338 2009 
Q 1338 2731 1133 3434 
Q 928 4138 513 4856 
z
" transform="scale(0.015625)"/>
     <path id="DejaVuSans-50" d="M 1259 4147 
L 1259 2394 
L 2053 2394 
Q 2494 2394 2734 2622 
Q 2975 2850 2975 3272 
Q 2975 3691 2734 3919 
Q 2494 4147 2053 4147 
L 1259 4147 
z
M 628 4666 
L 2053 4666 
Q 2838 4666 3239 4311 
Q 3641 3956 3641 3272 
Q 3641 2581 3239 2228 
Q 2838 1875 2053 1875 
L 1259 1875 
L 1259 0 
L 628 0 
L 628 4666 
z
" transform="scale(0.015625)"/>
     <path id="DejaVuSans-56" d="M 1831 0 
L 50 4666 
L 709 4666 
L 2188 738 
L 3669 4666 
L 4325 4666 
L 2547 0 
L 1831 0 
z
" transform="scale(0.015625)"/>
    </defs>
    <use xlink:href="#DejaVuSans-45" transform="translate(0 0.796875)"/>
    <use xlink:href="#DejaVuSans-44" transform="translate(63.183594 0.796875)"/>
    <use xlink:href="#DejaVuSans-4f" transform="translate(140.185547 0.796875)"/>
    <use xlink:href="#DejaVuSans-3a" transform="translate(218.896484 0.796875)"/>
    <use xlink:href="#DejaVuSans-20" transform="translate(252.587891 0.796875)"/>
    <use xlink:href="#DejaVuSans-Oblique-64" transform="translate(289.375 46.015625)"/>
    <use xlink:href="#DejaVuSans-Oblique-49" transform="translate(352.851562 46.015625)"/>
    <use xlink:href="#DejaVuSans-Oblique-64" transform="translate(284.375 -62.640625)"/>
    <use xlink:href="#DejaVuSans-Oblique-74" transform="translate(347.851562 -62.640625)"/>
    <use xlink:href="#DejaVuSans-3d" transform="translate(419.042969 0.796875)"/>
    <use xlink:href="#DejaVuSans-31" transform="translate(522.314453 0.796875)"/>
    <use xlink:href="#DejaVuSans-35" transform="translate(585.9375 0.796875)"/>
    <use xlink:href="#DejaVuSans-22c5" transform="translate(669.042969 0.796875)"/>
    <use xlink:href="#DejaVuSans-Oblique-73" transform="translate(720.3125 0.796875)"/>
    <use xlink:href="#DejaVuSans-Oblique-65" transform="translate(772.412109 0.796875)"/>
    <use xlink:href="#DejaVuSans-Oblique-6e" transform="translate(833.935547 0.796875)"/>
    <use xlink:href="#DejaVuSans-28" transform="translate(897.314453 0.796875)"/>
    <use xlink:href="#DejaVuSans-33" transform="translate(936.328125 0.796875)"/>
    <use xlink:href="#DejaVuSans-30" transform="translate(999.951172 0.796875)"/>
    <use xlink:href="#DejaVuSans-22c5" transform="translate(1083.056641 0.796875)"/>
    <use xlink:href="#DejaVuSans-Oblique-74" transform="translate(1134.326172 0.796875)"/>
    <use xlink:href="#DejaVuSans-29" transform="translate(1173.535156 0.796875)"/>
    <use xlink:href="#DejaVuSans-2212" transform="translate(1232.03125 0.796875)"/>
    <use xlink:href="#DejaVuSans-33" transform="translate(1335.302734 0.796875)"/>
    <use xlink:href="#DejaVuSans-22c5" transform="translate(1418.408203 0.796875)"/>
    <use xlink:href="#DejaVuSans-Oblique-49" transform="translate(1469.677734 0.796875)"/>
    <use xlink:href="#DejaVuSans-20" transform="translate(1499.169922 0.796875)"/>
    <use xlink:href="#DejaVuSans-20" transform="translate(1530.957031 0.796875)"/>
    <use xlink:href="#DejaVuSans-20" transform="translate(1562.744141 0.796875)"/>
    <use xlink:href="#DejaVuSans-20" transform="translate(1594.53125 0.796875)"/>
    <use xlink:href="#DejaVuSans-20" transform="translate(1626.318359 0.796875)"/>
    <use xlink:href="#DejaVuSans-20" transform="translate(1658.105469 0.796875)"/>
    <use xlink:href="#DejaVuSans-20" transform="translate(1689.892578 0.796875)"/>
    <use xlink:href="#DejaVuSans-20" transform="translate(1721.679688 0.796875)"/>
    <use xlink:href="#DejaVuSans-50" transform="translate(1753.466797 0.796875)"/>
    <use xlink:href="#DejaVuSans-56" transform="translate(1813.769531 0.796875)"/>
    <use xlink:href="#DejaVuSans-49" transform="translate(1882.177734 0.796875)"/>
    <use xlink:href="#DejaVuSans-3a" transform="translate(1911.669922 0.796875)"/>
    <use xlink:href="#DejaVuSans-20" transform="translate(1945.361328 0.796875)"/>
    <use xlink:href="#DejaVuSans-49" transform="translate(1977.148438 0.796875)"/>
    <use xlink:href="#DejaVuSans-28" transform="translate(2006.640625 0.796875)"/>
    <use xlink:href="#DejaVuSans-30" transform="translate(2045.654297 0.796875)"/>
    <use xlink:href="#DejaVuSans-29" transform="translate(2109.277344 0.796875)"/>
    <use xlink:href="#DejaVuSans-3d" transform="translate(2148.291016 0.796875)"/>
    <use xlink:href="#DejaVuSans-30" transform="translate(2232.080078 0.796875)"/>
    <path d="M 284.375 19.59375 
L 284.375 25.84375 
L 387.060547 25.84375 
L 387.060547 19.59375 
L 284.375 19.59375 
z
"/>
   </g>
  </g>
 </g>
 <defs>
  <clipPath id="pcd04351a9a">
   <rect x="51.323438" y="28.8" width="253.636364" height="221.76"/>
  </clipPath>
  <clipPath id="p4a0cc52c50">
   <rect x="355.687074" y="28.8" width="253.636364" height="221.76"/>
  </clipPath>
 </defs>
</svg>
